<svg width="40" height="40" viewBox="0 0 40 40" fill="none" xmlns="http://www.w3.org/2000/svg" class="header__logo-icon"><path d="M33.4911 15.9468C36.8832 14.4265 36.7828 11.9435 36.1707 10.6071C32.0145 4.03695 24.5955 1.37438 18.2632 2.55698C8.79989 4.11936 3.34473 12.5602 3.49484 20.6461C3.63835 28.3763 9.19734 33.4469 11.2297 34.5504C8.81474 31.3961 9.6623 25.6353 10.2841 23.4464C10.0704 22.267 9.95358 19.899 11.1559 16.8288C12.6014 13.1375 14.7884 11.1415 19.3777 11.1415C23.2435 11.1415 25.7112 13.5501 26.4521 14.7745C27.3984 15.75 30.5056 17.2848 33.4911 15.9468Z" fill="url(#paint0_linear_2699_11939)"></path><path d="M33.491 15.9468C36.8831 14.4265 36.7827 11.9435 36.1706 10.6071C32.0145 4.03695 24.5954 1.37438 18.2631 2.55698C15.5018 3.01286 13.0818 4.05437 11.0427 5.50182C12.6717 4.88448 17.1629 3.96685 22.9423 6.10781C28.5168 8.17286 31.883 13.3647 32.8272 16.198C33.0485 16.1291 33.2701 16.0458 33.491 15.9468Z" fill="url(#paint1_linear_2699_11939)"></path><path d="M33.4955 24.0031C36.8877 25.5235 36.7872 28.0065 36.1751 29.3429C32.019 35.913 24.6 38.5756 18.2676 37.393C11.7266 36.313 7.00346 31.9068 4.82649 26.7946C3.8315 24.4581 3.43178 22.2116 3.51399 19.467C3.95514 11.3459 9.07648 6.86548 11.0611 5.49438C10.0228 7.32976 8.14116 12.0252 8.22928 16.5035C8.31686 20.9549 9.49571 22.449 10.2695 23.4297L10.2835 23.4475C10.4656 24.2419 10.6516 25.3354 11.0627 25.8244C12.7355 27.8146 17.0286 28.5457 19.3915 28.5457C23.3883 28.5457 26.0527 27.439 26.9518 26.0894C27.3934 25.4265 27.4906 24.6597 27.4906 24.4178C28.8993 23.6254 31.2324 22.9888 33.4955 24.0031Z" fill="url(#paint2_linear_2699_11939)"></path><path d="M33.491 24.0534C36.8831 25.5738 36.7827 28.0568 36.1706 29.3932C32.0145 35.9633 24.5954 38.6259 18.2631 37.4433C15.5018 36.9874 13.0818 35.9459 11.0427 34.4984C12.6717 35.1158 17.1629 36.0334 22.9423 33.8924C28.5168 31.8274 31.883 26.6356 32.8272 23.8022C33.0485 23.8712 33.2701 23.9544 33.491 24.0534Z" fill="url(#paint3_linear_2699_11939)"></path><path fill-rule="evenodd" clip-rule="evenodd" d="M16.9685 20.1517C16.9685 21.3508 15.9667 22.2501 14.8647 22.2501C13.6626 22.2501 12.761 21.3508 12.761 20.1517C12.761 19.752 12.8612 19.2524 13.1617 18.9526" fill="url(#paint4_linear_2699_11939)"></path><path fill-rule="evenodd" clip-rule="evenodd" d="M20.9756 20.1517C20.9756 21.3508 21.9774 22.2501 23.0794 22.2501C24.2815 22.2501 25.1831 21.3508 25.1831 20.1517C25.1831 19.752 25.0829 19.2524 24.7824 18.9526" fill="url(#paint5_linear_2699_11939)"></path><defs><linearGradient id="paint0_linear_2699_11939" x1="5.59478" y1="24.1656" x2="25.4384" y2="7.88397" gradientUnits="userSpaceOnUse"><stop stop-color="#0F53FB"></stop><stop offset="1" stop-color="#087AFF"></stop></linearGradient><linearGradient id="paint1_linear_2699_11939" x1="21.4671" y1="11.7251" x2="24.1714" y2="2.94839" gradientUnits="userSpaceOnUse"><stop stop-color="#5DD2FF"></stop><stop offset="1" stop-color="#0F53FB"></stop></linearGradient><linearGradient id="paint2_linear_2699_11939" x1="3.91794" y1="11.6436" x2="27.7255" y2="31.327" gradientUnits="userSpaceOnUse"><stop stop-color="#BC55FF"></stop><stop offset="1" stop-color="#5402FF"></stop></linearGradient><linearGradient id="paint3_linear_2699_11939" x1="26.3783" y1="15.9529" x2="38.4798" y2="29.9739" gradientUnits="userSpaceOnUse"><stop stop-color="#5402FF"></stop><stop offset="0.995152" stop-color="#BC55FF"></stop></linearGradient><linearGradient id="paint4_linear_2699_11939" x1="14.8237" y1="18.9081" x2="14.8237" y2="22.1967" gradientUnits="userSpaceOnUse"><stop stop-color="#5402FF"></stop><stop offset="1" stop-color="#BC55FF"></stop></linearGradient><linearGradient id="paint5_linear_2699_11939" x1="23.1331" y1="18.8911" x2="23.1331" y2="26.895" gradientUnits="userSpaceOnUse"><stop stop-color="#0C68FE"></stop><stop offset="1" stop-color="#00F2FF"></stop></linearGradient></defs></svg>