<svg width="24" height="24" viewBox="0 0 24 24" fill="none" xmlns="http://www.w3.org/2000/svg">
    <g clip-path="url(#clip0_3562_1691)">
        <path d="M12.0001 23.7978C18.5158 23.7978 23.7978 18.5158 23.7978 12.0001C23.7978 5.48443 18.5158 0.202415 12.0001 0.202415C5.48441 0.202415 0.202393 5.48443 0.202393 12.0001C0.202393 18.5158 5.48441 23.7978 12.0001 23.7978Z" fill="white"/>
        <path fill-rule="evenodd" clip-rule="evenodd" d="M12 0.404707C5.59604 0.404707 0.404585 5.59615 0.404585 12.0001C0.404585 18.4041 5.59604 23.5955 12 23.5955C18.404 23.5955 23.5954 18.4041 23.5954 12.0001C23.5954 5.59615 18.404 0.404707 12 0.404707ZM0 12.0001C0 5.37271 5.37259 0.00012207 12 0.00012207C18.6274 0.00012207 24 5.37271 24 12.0001C24 18.6275 18.6274 24.0001 12 24.0001C5.37259 24.0001 0 18.6275 0 12.0001Z" fill="#231F20"/>
        <path d="M11.9999 22.2078C17.6375 22.2078 22.2076 17.6376 22.2076 12.0001C22.2076 6.36255 17.6375 1.79243 11.9999 1.79243C6.36236 1.79243 1.79224 6.36255 1.79224 12.0001C1.79224 17.6376 6.36236 22.2078 11.9999 22.2078Z" fill="#009F55"/>
        <path fill-rule="evenodd" clip-rule="evenodd" d="M12 2.19701C6.58584 2.19701 2.19687 6.58599 2.19687 12.0001C2.19687 17.4142 6.58584 21.8032 12 21.8032C17.4141 21.8032 21.803 17.4142 21.803 12.0001C21.803 6.58599 17.4141 2.19701 12 2.19701ZM1.3877 12.0001C1.3877 6.1391 6.13895 1.38784 12 1.38784C17.8609 1.38784 22.6122 6.1391 22.6122 12.0001C22.6122 17.8611 17.8609 22.6124 12 22.6124C6.13895 22.6124 1.3877 17.8611 1.3877 12.0001Z" fill="#231F20"/>
        <path d="M16.4186 16.5946C16.3089 16.6714 16.1581 16.7235 15.9662 16.7509C15.7852 16.7783 15.6537 16.7728 15.5714 16.7344C15.5494 16.7235 15.5275 16.6851 15.5056 16.6193C15.4891 16.548 15.4672 16.4987 15.4398 16.4712C15.4288 16.4603 15.4151 16.4521 15.3987 16.4466C15.1793 16.326 14.9436 16.2218 14.6913 16.1341C14.0991 15.9147 13.4877 15.7804 12.8571 15.731C12.5337 14.9579 12.3582 14.5356 12.3307 14.4644C12.1389 13.9764 12.0785 13.6967 12.1498 13.6255L18.335 7.44029C18.3733 7.40189 18.4912 7.41015 18.6886 7.46495C18.8915 7.52529 19.0204 7.58835 19.0752 7.65412C19.1355 7.72543 19.2233 7.90087 19.3384 8.18052C19.4591 8.45469 19.5824 8.65484 19.7085 8.78095C19.873 8.94547 20.1609 9.08527 20.5721 9.20041C20.956 9.2991 21.1671 9.38959 21.2055 9.47182C21.2932 9.6473 21.3426 9.98725 21.3535 10.4917C21.3754 10.9962 21.3453 11.3115 21.2631 11.4376C21.2247 11.4979 21.0876 11.5308 20.8518 11.5363C20.6215 11.5473 20.4707 11.5171 20.3994 11.4458C20.3391 11.3855 20.3035 11.3334 20.2925 11.2896C20.2815 11.2457 20.2678 11.221 20.2514 11.2155C20.0101 11.062 19.7743 10.9304 19.544 10.8207C19.0012 10.552 18.5433 10.4122 18.1705 10.4013L16.8298 11.7419C17.1204 11.8351 17.4714 11.9832 17.8826 12.1861C17.9813 12.2629 18.0416 12.5699 18.0635 13.1073C18.0964 13.6446 18.0635 13.9626 17.9648 14.0614C17.9045 14.1217 17.7948 14.1546 17.6359 14.1601C17.4768 14.1655 17.3507 14.1436 17.2575 14.0942C17.2027 14.0394 17.1012 13.9489 16.9532 13.8228C16.7064 13.6528 16.1636 13.4609 15.3246 13.2471L14.461 14.1107C14.7242 14.1765 15.0614 14.2834 15.4727 14.4315C15.8949 14.5795 16.1389 14.6865 16.2047 14.7522C16.2815 14.829 16.3528 15.1416 16.4186 15.6899C16.4953 16.2382 16.4953 16.5398 16.4186 16.5946Z" fill="white"/>
        <path fill-rule="evenodd" clip-rule="evenodd" d="M18.4417 7.61971L12.3235 13.738C12.3244 13.7603 12.3286 13.7954 12.3395 13.846C12.3662 13.9697 12.4245 14.1496 12.5192 14.3903L12.5194 14.391L12.5197 14.3918C12.5444 14.4561 12.7025 14.8367 12.9967 15.5401C13.6016 15.598 14.1895 15.7326 14.7598 15.9436C15.0166 16.0331 15.2581 16.1393 15.4839 16.2625C15.5191 16.2771 15.5532 16.2984 15.583 16.3282C15.6486 16.3938 15.681 16.4839 15.7 16.5619C15.7437 16.5678 15.8183 16.5687 15.936 16.5509L15.9369 16.5508L15.9377 16.5507C16.0855 16.5296 16.1921 16.494 16.2666 16.4517C16.2707 16.4258 16.274 16.3855 16.274 16.3273C16.274 16.1906 16.2563 15.9891 16.2184 15.7179L16.2181 15.716L16.2178 15.714C16.1853 15.4426 16.152 15.2354 16.1186 15.0892C16.102 15.0159 16.0862 14.9625 16.0723 14.9259C16.0656 14.9083 16.0606 14.898 16.0578 14.8928C16.0524 14.8889 16.0416 14.882 16.0236 14.8719C15.9925 14.8546 15.949 14.8333 15.8913 14.808C15.7761 14.7575 15.6149 14.6957 15.4059 14.6224L15.4051 14.6221L15.4043 14.6218C14.9961 14.4749 14.666 14.3704 14.4121 14.3069L14.0655 14.2203L15.2632 13.0226L15.3748 13.051C15.7975 13.1588 16.1493 13.262 16.4285 13.3607C16.7044 13.4582 16.9222 13.5557 17.0681 13.6563L17.0766 13.6621L17.0845 13.6688C17.2134 13.7786 17.3113 13.865 17.3748 13.9259C17.4269 13.9471 17.5079 13.9621 17.629 13.9579C17.6974 13.9555 17.7462 13.9474 17.7794 13.9375C17.8038 13.9302 17.8154 13.9232 17.8198 13.92C17.8219 13.9164 17.8272 13.9061 17.8338 13.8853C17.8447 13.8507 17.8551 13.7995 17.8625 13.728C17.8773 13.5849 17.8779 13.3836 17.8618 13.1196L17.8617 13.1176L17.8616 13.1155C17.8508 12.8509 17.8308 12.6516 17.8035 12.5129C17.7898 12.4434 17.7755 12.3953 17.7627 12.3643C17.7601 12.358 17.7578 12.353 17.7559 12.3491C17.366 12.1583 17.0373 12.0209 16.7682 11.9345L16.4525 11.8333L18.0893 10.1965L18.1766 10.1991C18.5908 10.2113 19.0785 10.3647 19.6325 10.6387C19.8672 10.7505 20.106 10.8837 20.3492 11.0379C20.4059 11.0676 20.4367 11.1142 20.451 11.1399C20.4691 11.1726 20.4803 11.2071 20.4878 11.2364C20.4887 11.2381 20.4908 11.2417 20.4946 11.2473C20.5033 11.26 20.5182 11.2783 20.542 11.3021C20.542 11.302 20.5568 11.3138 20.6058 11.3235C20.6591 11.3342 20.7364 11.3393 20.8423 11.3342L20.8448 11.3341L20.8473 11.3341C20.959 11.3315 21.036 11.3224 21.0844 11.3108C21.0925 11.3089 21.099 11.307 21.1043 11.3054C21.1174 11.2719 21.1349 11.2049 21.1461 11.0873C21.16 10.9428 21.1624 10.7482 21.1516 10.5005L21.1515 10.4983L21.1514 10.4961C21.146 10.2487 21.1313 10.0465 21.1083 9.88748C21.0864 9.7375 21.0588 9.63736 21.0314 9.57636C21.0307 9.5759 21.0301 9.57543 21.0293 9.57491C21.0134 9.56389 20.9848 9.54795 20.9388 9.52822C20.8472 9.48897 20.7099 9.44467 20.5219 9.39633L20.5198 9.39582L20.5178 9.39521C20.0968 9.27735 19.7676 9.12601 19.5656 8.92399C19.4137 8.77209 19.2782 8.54564 19.1534 8.262L19.1524 8.2598L19.1515 8.25755C19.0949 8.12014 19.0463 8.01132 19.0055 7.92965C18.9627 7.84418 18.9345 7.80086 18.9209 7.78478L18.9205 7.78422L18.92 7.7837C18.92 7.7837 18.9159 7.77911 18.9042 7.7709C18.8919 7.76228 18.8739 7.7515 18.8487 7.73917C18.7981 7.71446 18.7273 7.6875 18.6329 7.65937C18.543 7.63448 18.4808 7.62285 18.4417 7.61971ZM21.0389 9.58237C21.0389 9.58237 21.0385 9.58204 21.0379 9.58143C21.0386 9.58204 21.0389 9.58237 21.0389 9.58237ZM21.121 11.299C21.121 11.2991 21.121 11.2991 21.121 11.2991C21.1213 11.2988 21.1214 11.2988 21.121 11.299ZM16.2601 16.479C16.26 16.4788 16.2605 16.4774 16.2615 16.4749C16.2607 16.4779 16.2601 16.4791 16.2601 16.479ZM12.3243 13.7143C12.3243 13.7144 12.3242 13.7155 12.3238 13.7175C12.324 13.7153 12.3242 13.7142 12.3243 13.7143ZM18.4664 7.21586C18.5453 7.22134 18.6392 7.24122 18.7429 7.27005L18.7447 7.27052L18.7464 7.27104C18.8541 7.30306 18.9485 7.33761 19.0265 7.37578C19.1013 7.41234 19.1763 7.45956 19.2302 7.52397C19.2768 7.57915 19.3225 7.65904 19.3673 7.74873C19.414 7.84203 19.4665 7.95998 19.5247 8.10124C19.6408 8.36468 19.7516 8.53786 19.8517 8.63791C19.9785 8.76468 20.2245 8.89277 20.6248 9.00505C20.8197 9.05521 20.9792 9.10533 21.0982 9.15634C21.1578 9.18189 21.2132 9.21012 21.2596 9.24228C21.3021 9.27167 21.3556 9.31687 21.3875 9.3833C21.4452 9.49938 21.4829 9.6525 21.5086 9.82934C21.5348 10.0098 21.5502 10.229 21.5559 10.4851C21.5669 10.741 21.5652 10.9555 21.5489 11.1258C21.5334 11.2872 21.5027 11.4402 21.4331 11.5473C21.3685 11.6478 21.2549 11.686 21.1788 11.7042C21.0907 11.7253 20.9821 11.7355 20.8591 11.7385C20.7357 11.7442 20.6233 11.7396 20.5265 11.7203C20.4311 11.7012 20.3316 11.664 20.2565 11.5889C20.1947 11.527 20.1315 11.4502 20.1028 11.3608C19.8817 11.2221 19.6666 11.1031 19.4572 11.0034L19.4558 11.0027L19.4545 11.002C18.9677 10.7611 18.5679 10.6352 18.2496 10.6084L17.199 11.659C17.4306 11.7492 17.6885 11.8647 17.9723 12.0047L17.9907 12.0138L18.0069 12.0264C18.0719 12.077 18.111 12.148 18.1364 12.2094C18.1633 12.2743 18.184 12.3509 18.2005 12.435C18.2335 12.6029 18.2546 12.8251 18.2657 13.097C18.2823 13.3694 18.2829 13.5951 18.2649 13.7696C18.2558 13.8571 18.2415 13.9375 18.2196 14.0071C18.1983 14.0744 18.1651 14.1474 18.108 14.2044C17.9909 14.3215 17.8138 14.3564 17.6429 14.3622C17.4652 14.3684 17.2994 14.3453 17.163 14.273L17.1361 14.2588L17.1146 14.2373C17.0671 14.1897 16.974 14.1063 16.8305 13.9839C16.7284 13.9156 16.5538 13.8341 16.2937 13.7421C16.054 13.6574 15.7519 13.5672 15.3861 13.4718L14.8489 14.009C15.0521 14.0707 15.2828 14.1481 15.5406 14.2409C15.7534 14.3155 15.9251 14.3811 16.0537 14.4374C16.118 14.4656 16.1742 14.4926 16.2206 14.5185C16.2637 14.5425 16.3112 14.5725 16.3479 14.6092C16.3983 14.6596 16.4294 14.7268 16.4505 14.7821C16.4736 14.8429 16.4942 14.9163 16.5131 14.9993C16.551 15.1652 16.5862 15.3878 16.6193 15.6638C16.6579 15.9401 16.6786 16.1628 16.6786 16.3273C16.6786 16.409 16.6736 16.4852 16.6596 16.5498C16.648 16.6036 16.6207 16.699 16.5363 16.7592L16.5355 16.7598L16.5347 16.7604C16.3902 16.8615 16.2057 16.921 15.9958 16.951C15.8087 16.9793 15.6257 16.983 15.486 16.9178L15.4835 16.9166L15.4811 16.9154C15.4157 16.8827 15.38 16.8275 15.363 16.7978C15.3428 16.7625 15.3269 16.7225 15.3138 16.6833L15.3108 16.6742L15.3086 16.6648C15.3041 16.6453 15.2997 16.631 15.2961 16.6209C15.0888 16.5073 14.8652 16.4087 14.625 16.3251L14.6231 16.3245L14.6212 16.3237C14.0466 16.1109 13.4535 15.9806 12.8415 15.9327L12.7184 15.923L12.6707 15.8091C12.3493 15.041 12.1721 14.6148 12.1424 14.5377C12.0453 14.2908 11.9776 14.0871 11.944 13.9313C11.9273 13.854 11.9169 13.7789 11.919 13.7116C11.9208 13.6514 11.9338 13.5555 12.0069 13.4824L18.1921 7.29725C18.2407 7.24863 18.2988 7.22964 18.3405 7.22158C18.3834 7.21333 18.427 7.21309 18.4664 7.21586Z" fill="#231F20"/>
        <path d="M7.75677 16.6063C7.8669 16.6834 8.01833 16.7357 8.21102 16.7632C8.39269 16.7908 8.52485 16.7852 8.60741 16.7467C8.62945 16.7357 8.65148 16.6971 8.67347 16.6311C8.69002 16.5595 8.71206 16.5099 8.73958 16.4824C8.75059 16.4714 8.76433 16.4631 8.78083 16.4577C9.00109 16.3365 9.23785 16.2319 9.49111 16.1438C10.0857 15.9236 10.6996 15.7887 11.3328 15.7391C11.6576 14.9628 11.8338 14.5389 11.8613 14.4673C12.054 13.9773 12.1146 13.6965 12.043 13.6249L5.83256 7.4145C5.79402 7.37592 5.67564 7.38422 5.47742 7.43926C5.27371 7.49983 5.14432 7.56312 5.08927 7.62923C5.0287 7.70077 4.94061 7.87696 4.825 8.15774C4.70385 8.43304 4.57999 8.63402 4.45335 8.76065C4.28818 8.92582 3.99913 9.06619 3.5862 9.1818C3.2008 9.28091 2.98883 9.37177 2.95029 9.45438C2.8622 9.63052 2.81265 9.97187 2.80163 10.4784C2.77961 10.985 2.80989 11.3015 2.89248 11.4281C2.93102 11.4887 3.06866 11.5218 3.30541 11.5273C3.53665 11.5383 3.68806 11.508 3.75963 11.4364C3.82019 11.3759 3.85598 11.3236 3.86699 11.2795C3.878 11.2355 3.89177 11.2107 3.90829 11.2052C4.15054 11.051 4.38728 10.9189 4.61852 10.8088C5.16358 10.539 5.62332 10.3986 5.99772 10.3876L7.34387 11.7337C7.05207 11.8273 6.6997 11.976 6.28676 12.1797C6.18765 12.2568 6.12707 12.5651 6.10509 13.1046C6.07203 13.6442 6.10509 13.9635 6.2042 14.0626C6.26472 14.1232 6.37485 14.1563 6.53453 14.1617C6.69417 14.1673 6.8208 14.1452 6.91443 14.0957C6.96947 14.0407 7.07134 13.9498 7.21996 13.8232C7.46774 13.6525 8.0128 13.4598 8.85519 13.245L9.72234 14.1122C9.45806 14.1783 9.11947 14.2856 8.70652 14.4343C8.28261 14.5829 8.0376 14.6903 7.97149 14.7564C7.89442 14.8334 7.82288 15.1473 7.75677 15.6979C7.6797 16.2484 7.6797 16.5512 7.75677 16.6063Z" fill="white"/>
        <path fill-rule="evenodd" clip-rule="evenodd" d="M5.82716 7.1949C5.86898 7.20297 5.92735 7.22205 5.97615 7.27086L12.1866 13.4813C12.2601 13.5547 12.273 13.651 12.2749 13.7115C12.277 13.7791 12.2665 13.8544 12.2498 13.932C12.2161 14.0885 12.1481 14.293 12.0506 14.541C12.0207 14.6184 11.8428 15.0464 11.5201 15.8176L11.4722 15.932L11.3486 15.9417C10.7341 15.9898 10.1386 16.1206 9.56161 16.3343L9.55974 16.335L9.55782 16.3357C9.31665 16.4195 9.09213 16.5186 8.88402 16.6327C8.88031 16.6428 8.87591 16.6572 8.87141 16.6767L8.86925 16.6862L8.8662 16.6953C8.85303 16.7347 8.83709 16.7748 8.81683 16.8103C8.79977 16.8401 8.76386 16.8956 8.69827 16.9284L8.69578 16.9296L8.6933 16.9307C8.55307 16.9962 8.36929 16.9925 8.18138 16.9642C7.97064 16.934 7.78541 16.8743 7.64031 16.7727L7.63951 16.7721L7.63871 16.7716C7.554 16.7111 7.52648 16.6153 7.51485 16.5613C7.50088 16.4964 7.49586 16.42 7.49586 16.3379C7.49586 16.1727 7.51658 15.9491 7.55536 15.6717C7.58864 15.3945 7.62399 15.171 7.66197 15.0044C7.681 14.9211 7.70168 14.8474 7.72488 14.7864C7.74598 14.7309 7.77725 14.6634 7.82789 14.6128C7.86474 14.5759 7.91242 14.5458 7.95569 14.5217C8.00229 14.4957 8.05874 14.4686 8.1233 14.4403C8.25241 14.3837 8.42485 14.3178 8.63849 14.2429C8.89733 14.1497 9.12898 14.072 9.33297 14.0101L8.79358 13.4707C8.42635 13.5665 8.12297 13.6571 7.88232 13.7421C7.62118 13.8345 7.44584 13.9163 7.34331 13.9849C7.19923 14.1078 7.10575 14.1916 7.05802 14.2393L7.03646 14.2609L7.00945 14.2752C6.87246 14.3477 6.70598 14.3709 6.5275 14.3648C6.356 14.3588 6.17817 14.3239 6.06054 14.2063C6.00325 14.149 5.96987 14.0757 5.94854 14.0082C5.92646 13.9383 5.91211 13.8576 5.90302 13.7697C5.88492 13.5945 5.88553 13.3678 5.90222 13.0943C5.91342 12.8213 5.93457 12.5982 5.96771 12.4296C5.98426 12.3452 6.00499 12.2683 6.03199 12.2031C6.05754 12.1415 6.09678 12.0701 6.16204 12.0193L6.17836 12.0067L6.19688 11.9975C6.48178 11.857 6.74077 11.741 6.97335 11.6505L5.91839 10.5955C5.59879 10.6225 5.19738 10.7489 4.70863 10.9908L4.70722 10.9915L4.70586 10.9921C4.49564 11.0922 4.27958 11.2118 4.05768 11.351C4.02882 11.4408 3.96535 11.5179 3.90325 11.58C3.82784 11.6554 3.72799 11.6928 3.63222 11.712C3.53496 11.7314 3.42209 11.736 3.29822 11.7303C3.17469 11.7273 3.06564 11.7171 2.9772 11.6958C2.90074 11.6775 2.78671 11.6393 2.72182 11.5383C2.65203 11.4308 2.62113 11.2772 2.60562 11.1151C2.58927 10.9441 2.5875 10.7287 2.5986 10.4718C2.60426 10.2146 2.61973 9.99452 2.64604 9.81331C2.67182 9.63572 2.7098 9.48199 2.76766 9.3654C2.79975 9.29873 2.85344 9.25339 2.89609 9.22386C2.94271 9.1916 2.99833 9.16324 3.05815 9.13759C3.17766 9.08635 3.33778 9.03604 3.53347 8.98564C3.93541 8.87289 4.18242 8.74429 4.30972 8.617C4.41018 8.51653 4.52153 8.34265 4.63811 8.07813C4.69653 7.93631 4.74923 7.81788 4.79611 7.72417C4.84112 7.63415 4.88702 7.55393 4.93376 7.49852C4.98791 7.43382 5.06325 7.38647 5.13831 7.34971C5.21665 7.31141 5.31145 7.27667 5.41951 7.24455L5.42129 7.24404L5.42303 7.24357C5.52725 7.2146 5.62153 7.19467 5.70072 7.18914C5.74029 7.18637 5.78403 7.18661 5.82716 7.1949ZM5.53353 7.63448C5.43878 7.6627 5.36761 7.6898 5.31689 7.7146C5.29157 7.72698 5.27352 7.73776 5.26114 7.74644C5.24937 7.75473 5.24525 7.75933 5.24525 7.75933L5.24483 7.75984L5.24431 7.76041C5.23067 7.77658 5.20235 7.82004 5.15945 7.90588C5.11843 7.98784 5.06963 8.09712 5.0128 8.2351L5.01187 8.23735L5.01088 8.23955C4.88556 8.52441 4.74951 8.75175 4.59698 8.90426C4.39414 9.10712 4.06368 9.25906 3.64096 9.3774L3.63888 9.37801L3.63678 9.37852C3.44804 9.42709 3.3102 9.47154 3.21818 9.51097C3.17201 9.53075 3.14332 9.54679 3.12732 9.55785C3.12659 9.55837 3.12591 9.55888 3.12527 9.5593C3.09772 9.62058 3.06992 9.7211 3.04806 9.87168C3.02489 10.0313 3.0101 10.2344 3.0047 10.4828L3.00465 10.4851L3.00456 10.4873C2.99374 10.7359 2.99614 10.9313 3.01002 11.0764C3.02132 11.1945 3.03888 11.2618 3.05207 11.2954C3.05731 11.2971 3.0639 11.2989 3.07201 11.3009C3.12064 11.3125 3.19792 11.3216 3.31012 11.3242L3.3126 11.3243L3.31506 11.3243C3.42147 11.3295 3.49905 11.3243 3.55255 11.3136C3.60153 11.3038 3.61642 11.2921 3.61666 11.2921C3.64055 11.2682 3.6555 11.2499 3.66425 11.2371C3.66809 11.2315 3.67009 11.2279 3.67097 11.2261C3.67853 11.1967 3.68977 11.1621 3.70801 11.1292C3.72234 11.1034 3.75327 11.0566 3.81021 11.0268C4.05437 10.872 4.29423 10.7383 4.52981 10.626C5.08608 10.3508 5.57582 10.1968 5.99172 10.1845L6.07934 10.182L7.72287 11.8255L7.40589 11.9271C7.13566 12.0138 6.8056 12.1518 6.41413 12.3434C6.41221 12.3473 6.40991 12.3524 6.40729 12.3586C6.3944 12.3898 6.38 12.4381 6.36631 12.5079C6.33898 12.6472 6.31887 12.8473 6.30804 13.1129L6.30794 13.115L6.3078 13.1171C6.29158 13.3821 6.29224 13.5842 6.3071 13.7279C6.31455 13.7998 6.32496 13.8511 6.33593 13.8858C6.3425 13.9068 6.34789 13.9171 6.34995 13.9207C6.35436 13.9239 6.36603 13.9309 6.39055 13.9383C6.42384 13.9483 6.47288 13.9564 6.54151 13.9587C6.66317 13.963 6.74452 13.948 6.79674 13.9267C6.86055 13.8655 6.95887 13.7788 7.08826 13.6685L7.09618 13.6618L7.10476 13.6559C7.25123 13.5549 7.46998 13.457 7.74687 13.3591C8.02728 13.26 8.38054 13.1564 8.80502 13.0482L8.91707 13.0197L10.1196 14.2222L9.7716 14.3092C9.51665 14.373 9.18519 14.4778 8.77534 14.6254L8.77455 14.6257L8.77375 14.626C8.56385 14.6996 8.40206 14.7616 8.28635 14.8123C8.22841 14.8378 8.18471 14.8591 8.15353 14.8765C8.13539 14.8866 8.12465 14.8936 8.11912 14.8975C8.11636 14.9027 8.11129 14.9131 8.10459 14.9308C8.09062 14.9675 8.07482 15.0211 8.05803 15.0947C8.02456 15.2415 7.99118 15.4496 7.95846 15.7221L7.95822 15.724L7.95794 15.726C7.91982 15.9983 7.9021 16.2006 7.9021 16.3379C7.9021 16.3964 7.90538 16.4368 7.90956 16.4628C7.98433 16.5053 8.09137 16.541 8.23975 16.5622L8.2406 16.5622L8.24144 16.5624C8.35963 16.5803 8.4346 16.5794 8.47843 16.5734C8.49751 16.4951 8.5301 16.4046 8.59592 16.3388C8.62583 16.3089 8.66006 16.2874 8.69545 16.2728C8.92218 16.1491 9.16461 16.0424 9.42242 15.9526C9.99514 15.7407 10.5854 15.6056 11.1928 15.5475C11.4882 14.8412 11.6469 14.459 11.6717 14.3944L11.672 14.3937L11.6723 14.393C11.7673 14.1513 11.8259 13.9707 11.8527 13.8464C11.8637 13.7956 11.8679 13.7604 11.8688 13.738L5.72547 7.59468C5.68623 7.59782 5.62383 7.60949 5.53353 7.63448ZM11.868 13.7142C11.868 13.7142 11.8683 13.7151 11.8685 13.7174C11.868 13.7154 11.8679 13.7143 11.868 13.7142ZM7.91607 16.4901C7.91598 16.4903 7.91546 16.4891 7.91457 16.4861C7.9157 16.4885 7.91612 16.49 7.91607 16.4901ZM3.1177 9.5653C3.11768 9.5653 3.11798 9.56502 3.11869 9.56441C3.11807 9.56502 3.11773 9.5653 3.1177 9.5653Z" fill="#231F20"/>
    </g>
    <defs>
        <clipPath id="clip0_3562_1691">
            <rect width="24" height="24" fill="white"/>
        </clipPath>
    </defs>
</svg>
