<svg width="24" height="24" viewBox="0 0 24 24" fill="none" xmlns="http://www.w3.org/2000/svg">
    <path d="M6.21295 12.5035L1.14916 15.2999C-0.0536492 15.9642 -0.505889 17.4393 0.747387 18.0025C1.46443 18.3248 2.44908 18.556 3.77071 18.556C7.04119 18.556 8.63749 16.9279 9.02684 16.1138L6.21295 12.5035Z" fill="#7BDFD5"/>
    <path d="M17.787 12.5035L22.8508 15.2999C24.0536 15.9642 24.5059 17.4393 23.2526 18.0025C22.5356 18.3248 21.5509 18.556 20.2293 18.556C16.9588 18.556 15.3625 16.9279 14.9732 16.1138L17.787 12.5035Z" fill="#7BDFD5"/>
    <path d="M15.3978 3.84948C14.2077 3.84948 13.2741 4.7696 13.2741 5.86698C13.2741 6.10155 13.084 6.29172 12.8494 6.29172C12.6148 6.29172 12.4247 6.10155 12.4247 5.86698C12.4247 4.26673 13.773 3 15.3978 3C15.6324 3 15.8226 3.19016 15.8226 3.42474C15.8226 3.65931 15.6324 3.84948 15.3978 3.84948Z" fill="#2E323B"/>
    <path d="M11.2566 7.67651C11.7166 7.41096 12.2833 7.41096 12.7432 7.67651L17.05 10.163C17.51 10.4286 17.7933 10.9194 17.7933 11.4505V16.4235C17.7933 16.9546 17.51 17.4454 17.05 17.7109L12.7432 20.1975C12.2833 20.463 11.7166 20.463 11.2566 20.1975L6.94983 17.7109C6.48988 17.4454 6.20654 16.9546 6.20654 16.4235V11.4505C6.20654 10.9194 6.48988 10.4286 6.94983 10.163L11.2566 7.67651Z" fill="#2E323B"/>
    <path d="M10.7257 5.86698C10.7257 4.7696 9.79212 3.84948 8.60202 3.84948C8.36744 3.84948 8.17728 3.65931 8.17728 3.42474C8.17728 3.19016 8.36744 3 8.60202 3C10.2268 3 11.5752 4.26673 11.5752 5.86698C11.5752 6.10155 11.385 6.29172 11.1504 6.29172C10.9159 6.29172 10.7257 6.10155 10.7257 5.86698Z" fill="#2E323B"/>
    <path d="M6.20654 12.5566V11.4505C6.20654 10.9194 6.48989 10.4286 6.94983 10.163L7.21809 10.0082H16.7817L17.05 10.163C17.5099 10.4286 17.7933 10.9194 17.7933 11.4505V12.5566H6.20654Z" fill="#FFDD0F"/>
    <path d="M7.21809 17.8658L6.94983 17.7109C6.48989 17.4454 6.20654 16.9546 6.20654 16.4235V15.3174H17.7933V16.4235C17.7933 16.9546 17.5099 17.4454 17.05 17.7109L16.7817 17.8658H7.21809Z" fill="#FFDD0F"/>
</svg>
