<svg id="luaswap" width="24" height="24" viewBox="0 0 24 24" fill="none" xmlns="http://www.w3.org/2000/svg">
<path d="M24 12C24 15.1759 22.7538 18.0704 20.7437 20.2211C19.3367 21.7085 17.5678 22.8342 15.5779 23.4573C15.3367 23.5377 15.0955 23.598 14.8543 23.6583C14.1709 23.8392 13.4472 23.9397 12.7035 23.9799C12.4623 24 12.2412 24 12 24C5.36683 24 0 18.6332 0 12C0 5.36683 5.36683 0 12 0C13.0251 0 14.0302 0.120603 14.9749 0.38191C15.799 0.582915 16.5829 0.884422 17.3266 1.24623C21.2864 3.21608 24 7.27638 24 12Z" fill="#FABC46"/>
<path d="M17.3266 1.24624C17.0653 4.32162 15.4974 5.28644 15.4974 5.28644C13.9095 3.8392 14.4522 1.66835 14.9748 0.361816C15.799 0.582922 16.5829 0.884429 17.3266 1.24624Z" fill="#1A1A1A"/>
<path d="M18.0703 7.43718C18.5527 6.43216 18.6532 5.54774 18.6331 4.90452C18.6532 4.88442 18.6532 4.84422 18.6532 4.82412V3.01507C18.6532 2.89447 18.5728 2.81407 18.4522 2.81407C18.3316 2.81407 18.2512 2.89447 18.2512 3.01507V4.0201C17.7487 4.1608 16.6231 4.64321 15.819 6.11055C14.7537 8.0603 15.1155 9.54774 15.1155 9.54774C15.1155 9.54774 17.1457 9.32663 18.0703 7.43718Z" fill="#1A1A1A"/>
<path d="M12.2613 6.93467C12.8241 8.96482 14.5326 9.68844 14.5326 9.68844C14.5326 9.68844 15.3367 8.1809 14.7739 6.25125C14.3316 4.72362 13.3869 3.85929 12.9849 3.53769V2.51256C12.9849 2.39196 12.9045 2.31156 12.7839 2.31156C12.6633 2.31156 12.5829 2.39196 12.5829 2.51256V3.79899C12.3015 4.34171 11.8593 5.50754 12.2613 6.93467Z" fill="#1A1A1A"/>
<path d="M18.2915 12.1005C19.2764 10.6935 19.2764 9.32666 19.196 8.70355V7.21611C19.196 7.09551 19.1156 7.0151 18.995 7.0151C18.8744 7.0151 18.794 7.09551 18.794 7.21611V8.40204C18.191 8.56284 16.8844 9.06535 16.0804 10.4724C15.0151 12.3618 15.196 14.0302 15.196 14.0302C15.196 14.0302 16.9447 14.0302 18.2915 12.1005Z" fill="#1A1A1A"/>
<path d="M11.7185 12.1809C12.9648 14.191 14.814 14.1709 14.814 14.1709C14.814 14.1709 15.1557 12.2814 13.8894 10.4523C13.005 9.18595 11.8592 8.70353 11.2964 8.52263V7.3568C11.2964 7.2362 11.216 7.1558 11.0954 7.1558C10.9748 7.1558 10.8944 7.2362 10.8944 7.3568V8.88444C10.8542 9.52766 10.8542 10.7739 11.7185 12.1809Z" fill="#1A1A1A"/>
<path d="M18.9346 16.9045C20.1607 14.995 20.02 13.2663 19.9396 12.7437V11.4774C19.9396 11.3568 19.8592 11.2764 19.7386 11.2764C19.618 11.2764 19.5376 11.3568 19.5376 11.4774V12.6432C18.8341 12.8241 17.3065 13.4071 16.4422 14.9749C15.2763 17.0854 15.3567 19.0352 15.3567 19.0352C15.3567 19.0352 17.4673 19.196 18.9346 16.9045Z" fill="#1A1A1A"/>
<path d="M10.5929 12.8643V11.6784C10.5929 11.5578 10.5125 11.4774 10.3919 11.4774C10.2713 11.4774 10.1909 11.5578 10.1909 11.6784V13.1658C10.0703 13.8091 9.98988 15.3568 11.3366 17.1457C13.1256 19.4975 14.9748 19.1759 14.9748 19.1759C14.9748 19.1759 15.4572 17.2663 13.6482 14.8945C12.422 13.2663 11.1557 12.9246 10.5929 12.8643Z" fill="#1A1A1A"/>
<path d="M20.7437 20.2211C19.3367 21.7086 17.5678 22.8342 15.5779 23.4573C15.6181 22.4925 15.9196 21.0854 16.9648 19.6985C18.412 17.789 20.0804 17.2663 20.804 17.1256V15.8995C20.804 15.7789 20.8844 15.6985 21.005 15.6985C21.1256 15.6985 21.206 15.7789 21.206 15.8995V17.4271C21.2462 17.9498 21.2261 18.995 20.7437 20.2211Z" fill="#1A1A1A"/>
<path d="M14.8542 23.6583C14.1708 23.8392 13.4472 23.9397 12.7035 23.9799C12.0603 23.7186 11.397 23.3166 10.8743 22.7136C9.1055 20.6432 9.0854 18.8945 9.1658 18.1709V16.4623C9.1658 16.3618 9.2663 16.2613 9.3668 16.2613C9.46731 16.2613 9.56781 16.3618 9.56781 16.4623V17.8292C10.2512 17.8895 11.8392 18.2513 13.1859 19.9397C14.3115 21.3468 14.7135 22.794 14.8542 23.6583Z" fill="#1A1A1A"/>
</svg>
