<svg id="nearpad" width="24" height="24" viewBox="0 0 24 24" fill="none" xmlns="http://www.w3.org/2000/svg">
<path d="M11.2524 0H1V24H11.2524V0Z" fill="#A5B4FC"/>
<path d="M23 12C23 18.6276 17.7406 24 11.2524 24V0C17.7406 0 23 5.3724 23 12Z" fill="#A5B4FC"/>
<path d="M6.12613 0H1V24H6.12613C6.1261 24 6.12615 24 6.12613 24C12.6143 24 17.8737 18.6276 17.8737 12C17.8737 5.37242 12.6143 3.84305e-05 6.12613 0C6.1261 0 6.12615 0 6.12613 0Z" fill="#6366F1"/>
<path d="M1 24C7.48816 24 12.7475 18.6276 12.7475 12C12.7475 5.3724 7.48816 0 1 0V24Z" fill="#4338CA"/>
</svg>
