<svg width="352" height="502" viewBox="0 0 352 502" fill="none" xmlns="http://www.w3.org/2000/svg">
<path d="M41.2434 358.616C43.0786 331.317 42.5543 303.237 45.8314 275.288C47.6666 260.078 50.9438 244.999 52.2546 229.789C53.9588 208.99 51.8614 188.19 51.337 167.261C51.206 161.151 50.5505 155.041 52.1236 148.931C52.9101 145.812 54.0898 142.562 57.367 141.912C63.0037 140.612 61.4307 137.492 60.2509 134.112C58.94 130.342 57.7603 126.572 56.3183 122.932C48.4531 103.823 55.1385 86.6631 64.7078 70.5436C72.8352 56.7639 83.4531 44.4143 94.5955 32.8446C107.049 19.8449 122.517 13.3451 140.738 13.0851C144.146 13.0851 147.554 12.9551 151.094 12.6951C152.798 12.5651 154.502 12.5651 156.337 12.4351C157.91 12.3051 159.614 12.4351 161.187 12.1751C161.712 12.0451 162.236 11.9152 162.76 11.7852C163.678 11.7852 164.595 12.0451 165.382 12.0451C167.348 12.3051 169.183 12.5651 171.15 12.9551C174.951 13.6051 178.753 14.2551 182.554 15.0351C190.157 16.465 197.629 18.285 205.101 20.2349C209.165 21.2749 213.228 22.4449 217.03 24.3948C223.977 28.1647 228.959 34.5345 235.644 38.6944C240.232 41.5544 245.345 43.2443 249.539 46.6242C254.258 50.3941 257.273 55.724 260.157 61.0538C263.303 66.7737 266.449 72.4935 268.547 78.7334C269.071 80.2933 269.595 81.9833 269.989 83.5432C271.562 90.173 272.348 96.9329 273.135 103.693C273.921 110.323 274.839 117.082 277.067 123.452C277.592 125.012 278.247 126.572 278.903 128.132C279.165 128.782 279.558 129.432 279.689 130.082C279.689 130.992 279.558 131.902 279.558 132.812C279.427 152.441 277.723 171.941 277.33 191.57C276.674 223.289 274.446 255.009 270.906 286.598C270.251 292.188 271.037 297.647 272.348 302.977C276.15 318.837 277.33 334.696 274.97 351.076C273.004 364.856 273.004 379.025 272.086 393.065C271.693 399.305 268.285 401.905 262.124 402.035C254.914 402.165 248.359 399.175 241.15 399.045C231.056 398.785 221.356 401.125 211.524 402.165C195.007 403.725 179.015 400.735 162.76 398.785C159.876 398.525 157.124 397.225 154.24 397.355C151.225 397.355 148.341 397.485 145.326 397.355C143.884 397.225 142.442 397.225 141 396.835C140.082 396.575 139.427 396.185 138.509 396.055C134.577 395.665 130.644 395.665 126.712 395.405C122.779 395.275 118.846 395.015 114.914 394.885C107.049 394.495 99.0524 394.235 91.1872 393.975C83.3221 393.715 75.3258 393.455 67.4606 393.195C65.4943 393.195 63.528 393.065 61.5618 393.065C59.7266 393.065 57.6292 392.675 55.794 392.935C55.2696 393.065 54.7453 393.325 54.352 393.455C52.5168 393.975 50.2884 393.715 48.4531 393.325C42.6854 391.765 41.2434 385.655 41.1123 380.455C40.9812 376.945 41.3745 373.435 41.5056 369.926C41.2434 366.416 41.2434 362.906 41.2434 358.616Z" fill="#6B00FA" stroke="#362745" stroke-width="0.5" stroke-miterlimit="10"/>
<path d="M283.098 467.683C282.049 474.442 282.967 482.112 281.001 489.392C280.214 492.252 279.559 494.982 276.413 496.152C273.398 497.192 271.3 495.892 269.858 493.292C268.81 491.472 266.974 491.602 265.139 491.472C250.326 490.562 235.514 489.652 220.832 488.872C170.233 486.272 119.765 483.672 69.1654 481.072C55.0081 480.422 40.8508 480.032 26.6935 479.252C22.892 478.992 15.289 479.252 14.3714 474.182C14.1092 472.622 13.1916 471.323 12.7984 469.763C11.8808 466.513 11.7497 463.003 11.7497 459.623C11.4875 451.823 11.3564 443.893 11.0943 436.093C11.0943 434.793 11.0943 433.494 10.9632 432.194C10.9632 431.284 10.701 430.764 10.3077 430.114C9.39014 428.164 10.1767 425.954 11.4875 424.394C13.1916 422.314 15.5512 421.404 18.0418 422.444C26.1692 425.434 34.6898 424.784 42.9482 425.304C81.7497 427.514 120.682 429.204 159.615 431.024C195.008 432.714 230.27 434.533 265.664 436.353C277.855 437.003 282.574 441.943 282.574 454.163C282.574 458.453 282.836 462.743 283.098 467.683Z" fill="#4300BF" stroke="#362745" stroke-width="0.5" stroke-miterlimit="10"/>
<path d="M170.233 398.133C158.304 397.743 146.244 397.223 134.446 395.533C126.843 394.363 119.503 392.673 111.9 391.633C103.772 390.593 95.3828 390.463 87.2555 390.333C74.8023 390.073 62.0869 389.943 50.027 392.933C37.9671 395.923 26.1693 402.553 19.7461 413.212C31.1506 421.532 46.0944 422.572 60.2517 423.352C68.9034 423.872 77.5551 424.262 86.2068 424.782C150.046 428.292 213.885 431.802 277.724 431.932C275.757 425.952 273.791 419.842 271.694 413.862C269.858 408.532 267.237 402.293 260.945 400.993C258.847 400.603 256.75 400.993 254.652 401.123C250.982 401.123 247.181 400.863 243.51 400.733C227.911 400.213 212.181 399.563 196.581 399.043C187.799 398.783 179.016 398.393 170.233 398.133Z" fill="#6B00FA" stroke="#362745" stroke-width="0.5" stroke-miterlimit="10"/>
<path d="M315.345 387.214C317.311 386.174 319.54 385.134 320.72 383.314C321.899 381.494 322.03 379.284 322.162 377.204C322.686 368.625 323.21 360.175 323.735 351.595C324.39 341.975 324.914 332.356 324.783 322.736C324.652 313.636 323.735 304.536 324.259 295.567C324.783 287.247 326.487 279.057 327.405 270.737C330.682 241.358 323.735 211.719 325.045 182.21C325.57 171.29 327.274 160.37 327.929 149.32C329.896 119.551 324.652 89.2621 312.854 61.8328C311.806 59.4929 310.757 57.153 308.791 55.593C306.169 53.5131 302.63 53.2531 299.746 51.5631C295.682 49.0932 294.109 44.1533 291.881 39.8634C286.375 29.2037 275.888 21.9239 264.484 17.894C253.079 13.8641 241.019 12.6942 229.09 11.5242C220.701 10.7442 212.311 9.96424 203.922 9.05426C199.858 8.66427 193.959 9.96424 194.615 13.9941C206.675 22.9639 220.57 29.4637 233.285 37.5235C246 45.5833 258.06 55.853 264.09 69.6326C266.712 75.4825 268.023 81.8523 269.334 88.2221C273.266 106.422 277.068 124.621 277.986 143.211C278.641 156.73 277.723 170.38 276.806 184.03C275.626 201.839 274.839 219.779 274.053 237.588C273.266 255.398 272.742 273.337 272.48 291.147C272.087 309.086 271.956 326.896 272.087 344.705C272.087 353.675 272.218 362.645 272.349 371.484C272.349 375.904 272.48 380.454 272.611 384.874C272.742 389.034 272.349 393.584 272.873 397.874C273.791 404.244 281 403.334 285.457 401.384C293.585 397.874 301.45 393.714 309.577 389.814C311.019 389.294 313.903 387.214 315.345 387.214Z" fill="#4300BF" stroke="#362745" stroke-width="0.5" stroke-miterlimit="10"/>
<path d="M281.131 430.372C281.656 431.282 282.311 432.322 283.36 432.322C284.015 432.322 284.671 431.932 285.195 431.672C291.225 427.642 296.206 422.183 302.76 419.193C307.217 417.113 312.068 416.333 316.656 414.773C323.21 412.563 329.109 408.793 335.008 405.153C337.105 403.853 339.465 401.903 339.071 399.433C338.94 398.523 338.416 397.743 337.891 397.093C334.614 392.673 330.682 388.903 326.225 385.784C325.307 385.134 324.39 384.614 323.341 384.484C322.03 384.354 320.719 385.004 319.539 385.524C309.97 390.203 300.532 394.883 291.094 399.693C286.375 402.033 281.656 404.503 276.936 406.843C273.004 408.793 269.727 410.223 272.348 414.903C275.363 420.103 278.509 425.173 281.131 430.372Z" fill="#100342" stroke="#362745" stroke-width="0.5" stroke-miterlimit="10"/>
<path d="M285.326 486.271C285.457 487.181 285.589 488.221 286.113 488.871C287.555 490.431 290.045 489.521 291.881 488.481C307.742 479.641 323.604 470.802 339.465 461.962C341.038 461.052 342.742 460.142 343.791 458.582C344.839 456.892 344.971 454.812 345.102 452.862C345.626 442.332 346.019 431.803 346.544 421.143C346.675 418.153 346.675 414.903 344.971 412.563C343.135 409.963 339.596 409.183 336.45 409.573C333.304 409.963 330.42 411.523 327.667 413.083C314.952 420.103 302.237 426.993 289.521 433.883C285.326 436.223 280.214 437.782 280.607 443.242C281.001 449.612 282.049 455.982 282.705 462.222C283.098 466.252 283.622 470.152 284.016 474.181C284.409 478.211 285.326 482.371 285.326 486.271Z" fill="#100342" stroke="#362745" stroke-width="0.5" stroke-miterlimit="10"/>
<path d="M213.491 78.3436C215.982 80.4236 215.72 84.7135 213.098 86.6634C210.476 88.6134 206.282 87.3134 205.102 84.3235C203.922 81.3335 206.151 77.5636 209.297 77.0437C210.739 76.9137 212.312 77.3037 213.491 78.3436Z" fill="#4300BF"/>
<path d="M234.727 96.6718C234.596 97.3218 234.465 97.8418 234.465 98.4918C234.596 99.6618 235.382 100.572 236.431 100.962C239.184 102.392 243.248 100.312 243.641 97.1918C243.903 94.0719 240.495 91.082 237.48 91.992C237.218 91.862 236.824 92.122 236.693 92.382C235.514 93.8119 235.251 95.1119 234.727 96.6718Z" fill="#4300BF"/>
<path d="M221.75 115.002C219.784 115.002 217.817 115.002 215.982 115.002C215.458 115.002 214.933 115.002 214.54 115.392C214.278 115.652 214.278 116.042 214.147 116.432C213.885 117.992 213.754 119.422 213.622 120.982C213.491 122.802 213.491 125.142 215.064 126.052C216.113 126.572 217.293 126.442 218.342 126.702C219.259 126.962 220.046 127.482 220.963 127.352C222.799 127.352 223.978 125.402 224.372 123.582C224.765 121.632 224.896 119.682 223.978 117.862C223.061 116.042 221.225 114.742 219.259 115.002" fill="#4300BF"/>
<path d="M310.233 171.549C308.923 170.249 307.349 170.379 305.645 170.899C304.072 171.419 303.155 172.979 303.286 174.539C303.286 175.839 304.203 177.139 305.121 178.049C306.563 179.479 309.185 178.179 310.233 176.879C311.544 175.579 311.544 173.109 310.233 171.549Z" fill="#6B00FA"/>
<path d="M301.058 193.389C300.927 192.609 300.403 191.309 299.747 190.659C298.961 189.879 297.388 190.269 296.47 190.659C295.683 191.049 294.897 191.569 294.241 192.219C293.979 192.479 293.717 192.609 293.586 192.999C293.193 193.649 293.062 194.299 292.931 195.079C292.931 195.469 292.537 197.289 292.931 197.549C294.504 198.589 296.601 198.849 298.436 198.069C300.009 197.159 301.32 195.209 301.058 193.389Z" fill="#6B00FA"/>
<path d="M75.1948 357.705C72.7042 357.705 70.3446 358.875 69.1648 360.955C67.9851 363.035 68.3783 366.025 70.2135 367.585C72.1798 369.275 78.603 369.145 80.4382 367.455C82.2734 365.765 79.7828 362.775 78.7341 360.305C77.1611 359.395 75.457 358.485 73.7529 357.705" fill="#4300BF"/>
<path d="M63.7905 314.675C63.0039 316.755 62.3485 318.835 61.9552 321.045C61.8242 321.435 61.8242 321.955 62.0863 322.345C62.4796 322.995 63.2661 323.125 64.0526 323.255C66.0189 323.385 68.2474 323.385 69.4272 321.955C69.8204 321.565 70.0826 320.915 70.2137 320.395C70.8691 318.315 70.4758 315.845 68.6406 314.675C66.8054 313.505 63.9215 314.155 63.5283 316.235" fill="#4300BF"/>
<path d="M93.0236 335.996C92.7614 335.346 92.2371 334.306 91.5816 334.046C91.1884 333.916 90.533 334.046 90.0086 334.046C89.4843 334.046 89.091 334.046 88.5667 334.046C88.1734 334.046 87.7802 334.046 87.518 334.176C86.9936 334.436 86.4693 335.216 86.076 335.606C85.8139 335.736 85.6828 335.866 85.5517 336.126C85.1584 336.776 85.0273 337.686 85.0273 338.466C85.0273 338.726 85.0273 340.806 85.2895 340.806C86.6004 341.066 91.1884 341.456 92.4993 341.716C93.2858 341.846 91.0573 342.106 91.7127 341.586C91.9749 341.326 92.2371 341.066 92.4993 340.676C93.1547 339.116 93.5479 337.426 93.0236 335.996Z" fill="#4300BF"/>
<path d="M221.488 475.612C223.979 477.432 228.042 476.912 229.746 474.312C231.057 472.362 230.795 469.892 230.402 467.552C230.271 466.902 230.14 466.252 229.746 465.862C229.353 465.472 228.698 465.342 228.042 465.342C226.207 465.082 224.634 465.212 222.799 465.212C222.537 465.212 222.274 465.212 222.012 465.212C221.357 465.472 220.701 465.992 220.177 466.512C218.866 467.812 218.342 469.372 218.735 471.192C219.128 472.882 220.046 474.572 221.488 475.612Z" fill="#6B00FA"/>
<path d="M204.84 450.262C203.005 451.042 202.087 453.252 202.742 455.072C203.791 455.982 205.102 456.762 206.544 456.892C207.986 457.022 209.559 456.112 209.821 454.682C210.083 453.512 209.428 452.472 208.772 451.432C208.117 450.392 207.33 449.352 206.151 448.962C204.971 448.702 203.398 449.742 203.922 450.912" fill="#6B00FA"/>
<path d="M296.732 360.045C294.634 359.395 292.275 360.305 290.833 361.865C289.391 363.555 288.735 365.765 288.604 367.845C288.473 369.015 288.604 370.185 289.26 371.095C290.177 372.265 291.881 372.395 293.323 372.005C296.207 371.485 298.829 369.405 299.616 366.675C300.402 363.945 298.567 360.435 295.683 360.045C297.78 359.785 295.29 358.615 296.732 360.045Z" fill="#6B00FA"/>
<path d="M306.039 327.156C303.286 327.676 300.664 329.626 300.402 332.356C300.14 335.086 303.286 337.686 305.777 336.386C308.267 334.046 308.005 329.496 305.383 327.286" fill="#6B00FA"/>
<path d="M219.915 62.4832C218.342 62.8732 217.687 64.9531 218.342 66.3831C218.998 67.8131 220.702 68.593 222.406 68.593C223.192 68.593 224.11 68.333 224.503 67.6831C224.634 67.2931 224.765 66.9031 224.765 66.5131C224.765 65.0831 224.765 63.5232 224.372 62.0932C222.93 61.9632 221.488 61.9632 220.046 62.2232" fill="#100342"/>
<path d="M205.494 85.4918C204.315 85.6218 203.004 85.7518 201.955 86.2718C200.906 86.7917 199.989 87.9617 200.12 89.1317C200.251 90.6917 201.955 91.7316 203.397 92.3816C204.577 92.9016 206.15 93.4216 207.199 92.5116C208.247 91.6016 207.854 90.0417 208.641 88.8717C208.903 88.4817 209.296 88.0917 209.427 87.5717C209.558 86.6617 208.509 86.0118 207.592 85.8818C206.674 85.7518 205.626 85.6218 205.232 84.8418" fill="#100342"/>
<path d="M185.964 57.4141C184.784 58.064 183.473 58.974 182.818 60.144C181.507 62.3539 182.555 65.8638 185.046 66.3838C187.537 66.9038 189.765 64.6939 191.076 62.4839C191.207 62.2239 191.338 61.9639 191.338 61.7039C191.338 61.444 191.076 61.184 190.814 61.054C189.372 60.014 187.93 58.974 186.488 58.064C186.095 57.8041 185.439 57.5441 185.177 58.064" fill="#100342"/>
<path d="M84.8955 80.2931C84.24 81.853 83.9779 83.673 84.1089 85.493C85.2887 86.1429 86.7307 86.0129 87.9104 85.493C89.0902 84.843 90.0078 83.933 90.7943 82.763C90.9254 82.503 91.1876 82.243 91.1876 81.853C91.1876 81.3331 90.9254 80.8131 90.5322 80.4231C89.7456 79.5131 88.697 78.8631 87.5172 78.7331C86.3374 78.6031 85.0265 79.5131 84.8955 80.5531" fill="#100342"/>
<path d="M78.9972 101.482C77.9485 102.002 77.8175 103.692 78.4729 104.602C79.2594 105.512 80.5703 105.902 81.75 105.772C82.5366 105.642 83.4542 105.382 83.7163 104.732C84.2407 103.692 83.4542 102.522 82.6676 101.742C81.8811 100.832 80.7014 99.7919 79.3905 100.182" fill="#100342"/>
<path d="M132.087 34.6638C131.563 35.9638 131.563 37.5237 131.956 38.9537C132.612 39.9937 134.185 40.2536 135.233 39.6037C136.282 38.9537 136.806 37.6537 136.675 36.3537C136.413 34.9238 134.84 33.4938 133.529 34.1438" fill="#100342"/>
<path d="M247.18 161.8C246.262 163.36 246.655 165.7 248.228 166.74C249.801 167.78 252.161 167.26 253.079 165.7C253.603 164.92 253.603 163.75 253.341 162.84C252.816 161.54 251.375 160.63 249.933 160.63C248.491 160.5 247.049 161.15 246 162.06C246.524 162.19 246.918 162.45 247.442 162.58" fill="#100342"/>
<path d="M238.66 352.766C238.529 354.716 237.611 356.536 237.611 358.485C237.611 360.435 238.922 362.645 240.888 362.645C242.593 362.645 243.772 361.085 244.559 359.655C245.214 358.745 245.739 357.706 246.263 356.796C246.656 356.276 246.918 355.626 246.656 354.976C246.525 354.716 246.263 354.456 246.001 354.326C243.772 352.896 241.02 352.246 238.267 352.376" fill="#100342"/>
<path d="M238.66 352.766C238.529 354.716 237.611 356.536 237.611 358.485C237.611 360.435 238.922 362.645 240.888 362.645C242.593 362.645 243.772 361.085 244.559 359.655C245.214 358.745 245.739 357.706 246.263 356.796C246.656 356.276 246.918 355.626 246.656 354.976C246.525 354.716 246.263 354.456 246.001 354.326C243.772 352.896 241.02 352.246 238.267 352.376" stroke="#362745" stroke-width="0.5" stroke-miterlimit="10"/>
<path d="M227.125 330.276C227.78 331.706 228.829 333.136 230.271 333.526C232.762 334.306 235.646 331.316 234.597 328.976C233.548 326.636 229.353 326.506 228.305 328.976" fill="#100641"/>
<path d="M173.642 365.114C172.724 367.454 174.69 370.314 177.181 370.704C179.672 371.094 182.162 369.014 182.818 366.544C182.949 366.154 182.949 365.634 182.687 365.244C182.424 364.854 182.031 364.724 181.507 364.594C179.409 364.074 177.181 363.554 175.084 362.904C174.821 363.554 174.559 364.334 174.428 364.984" fill="#100641"/>
<path d="M75.72 271.257C75.4578 272.427 75.0645 273.597 75.3267 274.767C75.4578 275.937 76.2443 277.107 77.4241 277.367C78.7349 277.757 80.1769 276.717 80.7012 275.417C81.2256 274.117 81.2256 272.687 81.0945 271.387C79.5215 271.127 77.9484 270.867 76.5065 270.607" fill="#100342"/>
<path d="M63.267 446.363C62.7427 448.053 62.3494 450.263 63.7914 451.433C65.3644 452.733 67.5929 451.563 69.5592 451.953C69.9524 450.393 70.0835 448.703 69.6902 447.143C69.297 445.583 68.1172 444.023 66.5442 443.763C64.9711 443.373 63.1359 444.673 63.267 446.363C63.5292 446.363 64.0535 446.363 64.4468 446.363H63.267Z" fill="#100641"/>
<path d="M93.1543 457.672C93.1543 459.752 93.1543 461.702 93.2854 463.782C94.7273 464.042 96.3004 464.172 97.8734 464.432C98.2667 464.432 98.791 464.562 99.1843 464.302C99.5775 464.042 99.7086 463.522 99.8397 463.002C100.364 460.792 100.364 458.322 98.791 456.632C97.218 455.072 93.8097 455.462 93.5475 457.672" fill="#100641"/>
<path d="M228.566 461.312C227.124 462.482 226.337 464.562 227.124 466.252C227.91 467.942 230.27 468.852 231.843 467.682C232.498 466.252 233.154 464.692 232.891 463.132C232.629 461.572 230.532 460.402 229.221 461.442" fill="#100641"/>
<path d="M300.402 461.572C300.14 462.612 300.008 463.782 300.402 464.822C300.795 465.862 302.237 466.512 303.155 465.862C303.548 465.602 303.679 465.212 303.81 464.822C304.334 463.652 304.596 462.482 304.465 461.312C304.334 460.142 303.417 458.972 302.237 458.842C301.057 458.712 299.746 459.882 300.14 460.922" fill="#100641"/>
<path d="M293.323 305.187C293.061 306.357 292.668 307.527 292.93 308.697C293.192 309.867 294.11 311.037 295.29 310.907C297.125 310.907 297.911 308.697 298.174 306.877C298.436 305.317 298.436 303.237 296.994 302.587C295.421 301.937 293.979 303.627 293.061 304.927" fill="#100641"/>
<path d="M306.561 109.152C306.299 110.322 306.168 111.621 306.693 112.661C307.217 113.701 308.659 114.351 309.707 113.701C310.232 113.441 310.494 112.921 310.756 112.401C311.149 111.361 311.543 110.322 311.28 109.282C311.018 108.242 310.232 107.202 309.183 107.072C308.134 106.942 306.955 107.982 307.217 109.022" fill="#100342"/>
<path d="M299.354 126.572C299.354 128.002 299.354 129.302 299.485 130.732C301.451 130.992 303.417 129.562 303.679 127.612C303.941 125.662 302.368 123.712 300.402 123.582C300.533 124.492 300.271 125.402 299.878 126.182" fill="#100342"/>
<path d="M316.657 129.821C316.133 131.251 315.739 132.81 316.001 134.37C316.264 135.93 317.837 137.23 319.279 136.97C321.245 136.58 321.638 133.85 321.507 131.771C321.376 130.341 321.245 128.651 320.065 127.871C318.885 127.091 316.657 128.001 317.181 129.301" fill="#100342"/>
<path d="M113.602 277.757C115.831 269.957 111.636 262.937 105.606 255.917C96.299 245.127 87.7784 233.818 85.8121 218.738C81.4863 184.679 100.625 151.4 132.217 139.31C165.381 126.571 202.086 138.01 221.88 167.129C230.662 179.999 235.119 194.169 235.119 209.768C235.119 224.068 230.531 236.418 220.438 246.687C215.587 251.497 211.524 257.087 206.411 261.637C201.037 266.317 199.071 271.647 199.464 278.406C199.726 283.736 199.071 289.066 199.202 294.396C199.202 294.786 199.202 295.176 199.202 295.436C199.202 295.956 199.071 296.346 199.071 296.736C199.071 296.996 199.071 299.466 199.202 299.466C198.284 299.466 197.366 299.466 196.58 299.596C195.531 299.596 194.483 299.726 193.434 299.596C191.468 299.336 189.632 299.336 187.666 299.206C187.273 299.206 186.88 299.206 186.355 299.076C185.569 299.076 184.913 298.946 184.127 298.946C183.865 298.946 183.602 298.816 183.209 298.816C182.816 298.816 182.423 298.816 182.029 298.816C180.587 298.816 179.014 298.816 177.441 298.816C177.441 298.036 177.31 297.256 177.31 296.476C177.179 294.916 177.179 293.356 177.179 291.796C177.179 288.806 177.048 285.816 177.048 282.826C177.048 282.696 177.048 282.566 176.917 282.436C176.786 282.306 176.655 282.306 176.524 282.306C173.378 282.046 170.232 282.306 167.086 282.696C167.086 284.516 167.086 286.336 166.954 288.286C166.954 288.806 166.954 289.326 166.954 289.846C166.954 290.626 166.954 291.276 166.823 292.056C166.823 292.316 166.692 292.446 166.692 292.576C166.561 292.836 166.561 293.226 166.561 293.486C166.43 294.916 166.43 296.476 166.692 297.906C165.775 297.906 164.857 297.906 163.808 297.906C162.629 297.906 161.318 297.906 160.138 297.646C158.696 297.386 157.123 297.516 155.681 297.386C155.157 297.386 154.501 297.386 153.977 297.256C152.535 297.256 151.093 296.996 149.651 296.996C148.865 296.996 148.209 296.996 147.423 296.996C147.292 296.996 145.325 297.126 145.194 297.256C145.194 295.956 145.325 294.526 145.325 293.226C145.325 292.576 145.325 291.926 145.456 291.146C145.456 290.496 145.587 289.846 145.587 289.196C145.587 286.596 145.587 283.996 145.456 281.266C142.048 280.616 138.509 280.356 134.969 280.356C134.838 283.346 134.707 286.336 134.445 289.326C134.314 290.756 134.314 292.316 134.183 293.876C134.183 294.266 134.183 294.656 134.183 295.046C134.183 295.306 134.183 295.566 134.052 295.696C133.921 295.956 133.265 295.956 133.003 295.956C131.168 296.086 129.202 295.956 127.366 295.826C126.58 295.826 125.662 295.696 124.876 295.696C122.778 295.566 120.681 295.566 118.584 295.436C117.928 295.436 117.142 295.306 116.486 295.306C116.093 295.176 115.7 295.046 115.175 295.046C115.044 295.046 112.947 294.916 112.947 294.916C112.947 294.786 112.947 294.656 112.947 294.526C112.947 293.096 112.947 291.536 112.947 289.976C112.947 289.326 112.816 288.676 113.078 288.026C113.209 287.766 113.078 287.506 113.078 287.246C113.078 286.596 113.078 285.946 113.078 285.296C113.078 283.606 113.209 282.046 113.209 280.356C113.471 280.356 113.471 279.836 113.602 277.757ZM156.074 253.837C157.254 253.967 158.434 253.967 159.614 254.097C161.449 254.227 163.415 254.357 165.25 254.617C164.595 252.667 163.939 250.717 163.153 248.897C162.891 248.117 162.498 247.467 162.235 246.817C161.973 246.167 161.58 245.647 161.318 244.997C161.187 244.867 161.187 244.607 161.187 244.477C161.056 243.827 160.793 243.307 160.662 242.657C160.007 241.097 159.483 239.408 158.827 237.718C158.565 236.938 158.303 236.288 157.91 235.508C157.91 235.638 157.647 236.028 157.647 236.028C157.516 236.288 157.254 236.548 157.123 236.808C155.419 239.148 153.846 241.487 152.404 243.957C151.617 245.127 150.962 246.427 150.175 247.727C149.782 248.377 149.52 249.027 149.127 249.547C148.996 249.807 148.865 250.067 148.733 250.327C148.602 250.847 148.078 251.367 147.685 251.887C147.16 252.537 146.636 253.187 146.243 253.967C146.243 253.967 146.636 253.967 146.767 253.967C146.898 253.967 147.16 253.967 147.292 253.967C147.685 253.967 148.078 253.967 148.471 253.967C149.258 253.967 149.913 253.967 150.7 253.837C150.962 253.837 151.355 253.707 151.617 253.707C152.011 253.707 152.404 253.707 152.797 253.837C153.584 253.837 154.239 253.967 155.026 253.967C155.419 253.707 155.812 253.707 156.074 253.837Z" fill="#362745" stroke="#362745" stroke-width="0.5" stroke-miterlimit="10"/>
<path d="M110.588 274.117C112.685 266.447 108.622 259.557 102.723 252.667C93.5468 242.008 85.1573 230.958 83.3221 216.268C79.1273 182.859 97.8726 150.36 128.809 138.531C161.318 126.051 197.236 137.231 216.768 165.83C225.288 178.439 229.745 192.349 229.876 207.559C229.876 221.598 225.419 233.688 215.457 243.698C210.738 248.508 206.805 253.967 201.693 258.257C196.449 262.807 194.483 268.007 194.876 274.767C195.139 279.967 194.483 285.167 194.614 290.366C194.614 290.756 194.614 291.016 194.614 291.406C194.614 291.796 194.483 292.316 194.483 292.706C194.483 292.966 194.483 295.306 194.614 295.306C193.697 295.306 192.91 295.306 191.992 295.306C190.944 295.306 189.895 295.436 188.846 295.306C187.011 295.046 185.045 295.046 183.21 294.916C182.816 294.916 182.423 294.916 182.03 294.786C181.243 294.786 180.588 294.656 179.801 294.656C179.539 294.656 179.277 294.526 179.015 294.526C178.622 294.526 178.228 294.526 177.835 294.526C176.393 294.526 174.82 294.526 173.378 294.526C173.378 293.746 173.247 293.096 173.247 292.316C173.116 290.756 173.116 289.327 173.116 287.767C173.116 284.777 172.985 281.917 172.985 278.927C172.985 278.797 172.985 278.667 172.854 278.537C172.723 278.407 172.592 278.407 172.461 278.407C169.446 278.147 166.3 278.407 163.285 278.797C163.285 280.617 163.285 282.437 163.154 284.257C163.154 284.777 163.154 285.297 163.154 285.817C163.154 286.467 163.154 287.247 163.022 288.027C163.022 288.287 162.891 288.417 162.891 288.547C162.76 288.807 162.76 289.197 162.76 289.456C162.629 290.886 162.629 292.316 162.891 293.746C161.974 293.746 161.056 293.746 160.139 293.746C158.959 293.746 157.779 293.746 156.599 293.486C155.157 293.226 153.715 293.356 152.142 293.226C151.618 293.226 150.962 293.226 150.438 293.096C148.996 293.096 147.685 292.836 146.243 292.836C145.457 292.836 144.801 292.836 144.015 292.836C143.884 292.836 141.918 292.966 141.918 293.096C141.918 291.796 142.049 290.496 142.049 289.067C142.049 288.417 142.049 287.767 142.18 287.117C142.18 286.467 142.311 285.817 142.311 285.167C142.311 282.567 142.311 279.967 142.18 277.367C138.771 276.847 135.363 276.457 131.955 276.457C131.824 279.447 131.693 282.307 131.562 285.297C131.431 286.727 131.431 288.287 131.3 289.716C131.3 290.106 131.3 290.496 131.3 290.886C131.3 291.146 131.3 291.406 131.168 291.536C131.037 291.796 130.382 291.796 130.12 291.796C128.285 291.926 126.449 291.796 124.614 291.666C123.828 291.666 122.91 291.536 122.124 291.536C120.026 291.406 117.929 291.406 115.962 291.276C115.307 291.276 114.652 291.146 113.865 291.146C113.472 291.146 113.079 290.886 112.554 290.886C112.423 290.886 110.457 290.756 110.457 290.756C110.457 290.626 110.457 290.496 110.457 290.366C110.457 288.937 110.457 287.377 110.457 285.947C110.457 285.297 110.326 284.647 110.588 284.127C110.719 283.867 110.588 283.607 110.588 283.347C110.588 282.697 110.588 282.047 110.588 281.397C110.588 279.837 110.719 278.147 110.719 276.587C110.457 276.587 110.457 276.197 110.588 274.117ZM152.273 250.588C153.453 250.718 154.633 250.718 155.682 250.848C157.517 250.978 159.352 251.108 161.187 251.368C160.532 249.548 160.007 247.598 159.221 245.648C158.959 244.868 158.565 244.218 158.303 243.568C158.041 242.918 157.648 242.398 157.386 241.748C157.255 241.618 157.255 241.358 157.255 241.228C157.124 240.578 156.861 240.058 156.73 239.408C156.075 237.848 155.551 236.158 154.895 234.598C154.633 233.818 154.371 233.168 153.977 232.388C153.977 232.518 153.715 232.778 153.715 232.908C153.584 233.168 153.322 233.428 153.191 233.688C151.618 236.028 150.045 238.368 148.603 240.708C147.816 241.878 147.161 243.178 146.506 244.348C146.112 244.998 145.85 245.518 145.457 246.168C145.326 246.428 145.195 246.688 145.064 246.948C144.933 247.468 144.408 247.988 144.015 248.378C143.491 249.028 143.097 249.678 142.573 250.328C142.573 250.328 142.966 250.328 143.097 250.328C143.228 250.328 143.491 250.328 143.622 250.328C144.015 250.328 144.408 250.328 144.801 250.328C145.588 250.328 146.243 250.328 147.03 250.198C147.292 250.198 147.685 250.068 147.948 250.068C148.341 250.068 148.734 250.068 149.127 250.198C149.914 250.198 150.569 250.328 151.356 250.328C151.618 250.588 152.011 250.588 152.273 250.588Z" fill="#E0E3BD" stroke="#362745" stroke-width="0.5" stroke-miterlimit="10"/>
<path d="M203.003 146.071C179.015 127.092 151.88 123.972 123.827 136.452C78.8648 156.471 66.8049 215.75 93.8086 245.259C97.6101 249.419 100.494 254.229 104.427 258.388C107.966 262.158 109.146 266.188 108.884 271.258C108.49 278.278 107.835 285.428 108.884 293.098L131.955 294.137L132.348 277.888L141.262 278.148V278.278C141.262 278.408 141.262 278.538 141.262 278.668C141.262 278.798 141.262 279.058 141.262 279.188C141.262 279.448 141.262 279.708 141.262 279.838C141.262 280.098 141.262 280.358 141.262 280.618C141.262 280.878 141.262 281.268 141.262 281.528C141.262 281.918 141.262 282.178 141.262 282.568C141.262 282.958 141.262 283.348 141.262 283.738C141.262 284.128 141.262 284.518 141.262 284.908C141.262 285.298 141.262 285.688 141.262 286.078C141.262 286.468 141.262 286.858 141.262 287.248C141.262 287.638 141.262 288.028 141.262 288.418C141.262 288.808 141.262 289.068 141.262 289.458C141.262 289.718 141.262 290.108 141.262 290.498C141.262 290.758 141.262 291.148 141.262 291.408C141.262 291.668 141.262 291.928 141.262 292.188C141.262 292.318 141.262 292.578 141.262 292.838C141.262 292.968 141.262 293.098 141.262 293.228C141.262 293.618 141.131 294.008 141.131 294.527C141.262 294.527 141.262 294.527 141.393 294.527H141.524H141.655C141.786 294.527 142.048 294.527 142.179 294.527C142.573 294.527 142.966 294.527 143.359 294.527C144.932 294.527 146.374 294.657 147.947 294.657C149.782 294.787 151.749 294.787 153.715 294.917C155.419 295.047 157.254 295.047 158.958 295.177C160.007 295.177 161.056 295.307 162.236 295.307C162.367 295.307 162.498 295.307 162.629 295.307C162.891 295.307 163.022 295.307 163.284 295.177C163.284 294.787 163.415 294.268 163.415 293.878V293.748C163.415 293.618 163.415 293.358 163.546 293.228C163.546 292.838 163.678 292.448 163.678 292.188C163.678 291.928 163.678 291.668 163.678 291.408C163.678 291.148 163.678 290.888 163.678 290.758C163.678 290.498 163.678 290.368 163.678 290.108C163.678 289.848 163.678 289.588 163.678 289.328C163.678 289.068 163.678 288.678 163.678 288.288C163.678 287.898 163.678 287.508 163.678 287.248C163.678 286.858 163.678 286.468 163.678 286.078C163.678 285.688 163.678 285.298 163.678 284.908C163.678 284.518 163.678 284.128 163.678 283.738C163.678 283.348 163.678 282.958 163.678 282.568C163.678 282.308 163.678 281.918 163.678 281.528C163.678 281.268 163.678 281.008 163.678 280.748C163.678 280.488 163.678 280.358 163.678 280.098C163.678 279.968 163.678 279.838 163.678 279.708V279.578L172.591 279.838L172.198 295.957C173.64 295.957 196.449 296.997 196.449 296.997C196.449 292.318 196.449 287.638 196.449 282.828C196.449 280.618 196.449 278.408 196.449 276.198C196.449 275.548 196.449 274.898 196.318 274.378C196.318 272.818 196.318 271.258 196.58 269.828C196.842 268.268 197.367 266.578 198.415 265.278C198.678 265.018 198.94 264.628 199.202 264.368C199.595 263.978 199.857 263.718 200.251 263.328C200.906 262.678 201.561 261.898 202.217 261.248C203.528 259.818 204.839 258.518 206.149 257.088C207.46 255.659 208.64 254.359 209.951 252.929C211.262 251.499 212.442 250.199 213.621 248.769C214.801 247.339 216.112 246.039 217.292 244.609C218.472 243.179 219.651 241.879 220.831 240.449C221.487 239.799 222.011 239.019 222.666 238.369C227.123 232.909 230.269 226.799 231.318 219.779C236.037 189.75 226.73 164.791 203.003 146.071ZM128.678 273.598C128.415 273.598 128.153 273.598 127.76 273.598C127.629 273.598 127.498 273.598 127.367 273.598C127.367 274.248 127.367 274.898 127.367 275.548C127.367 276.848 127.236 278.278 127.236 279.578C127.105 282.308 126.973 285.168 126.973 287.898L115.307 287.378C115.307 286.208 115.438 285.038 115.438 283.868C115.569 281.268 115.7 278.668 115.7 275.938C115.831 273.208 115.962 270.348 115.962 267.618C115.962 266.578 116.093 265.538 116.093 264.498C116.093 263.978 115.962 263.458 115.962 263.068C115.962 262.548 115.831 262.028 115.831 261.508C115.831 261.248 115.7 261.118 115.7 260.858C115.569 260.728 115.569 260.468 115.438 260.338C115.307 259.948 115.176 259.558 114.914 259.168C114.52 258.388 114.127 257.608 113.734 256.828C113.34 256.049 112.816 255.399 112.292 254.619C112.03 254.229 111.636 253.709 111.243 253.319C105.737 246.689 100.494 239.799 95.2506 232.909C87.7787 222.769 86.4678 210.94 87.9098 198.98C91.1869 172.071 105.344 152.571 130.644 142.562C155.681 132.682 179.408 136.842 199.333 154.651C219.651 172.721 227.123 195.73 220.569 222.639C218.996 229.529 214.539 234.469 210.082 239.409C204.576 245.519 198.94 251.499 193.303 257.478C193.041 257.738 192.779 257.868 192.648 258.128C192.648 258.258 192.648 258.258 192.517 258.388C192.385 258.518 192.385 258.648 192.254 258.778C192.123 259.038 191.861 259.298 191.73 259.558C191.599 259.688 191.599 259.818 191.468 259.948C191.337 260.078 191.337 260.078 191.337 260.208C191.075 260.728 190.812 261.248 190.55 261.768C190.026 262.938 189.764 264.238 189.502 265.538C189.37 266.188 189.37 266.838 189.37 267.488C189.37 267.748 189.37 268.138 189.37 268.398C189.37 268.528 189.37 268.658 189.37 268.918C189.37 269.178 189.37 269.438 189.37 269.698C189.37 270.088 189.37 270.608 189.37 270.998C189.37 271.778 189.37 272.428 189.37 273.208C189.37 274.638 189.37 276.198 189.37 277.628C189.37 279.058 189.37 280.618 189.37 282.048C189.37 283.478 189.37 285.038 189.37 286.468C189.37 287.248 189.37 287.898 189.37 288.678C189.37 289.068 189.37 289.458 189.37 289.848C189.37 289.978 189.37 290.108 189.37 290.238V290.368C189.239 290.498 189.108 290.368 189.108 290.368C188.977 290.368 188.715 290.368 188.584 290.368C187.928 290.368 187.142 290.368 186.487 290.238C183.603 290.108 180.719 289.978 177.835 289.848C177.966 287.378 177.966 284.908 178.097 282.568C178.097 281.788 178.228 280.878 178.228 280.098C178.228 279.058 178.228 278.148 178.228 277.108C178.228 276.718 178.228 276.458 178.228 276.068L176.524 275.808C175.869 275.678 175.213 275.548 174.558 275.548C173.116 275.418 171.805 275.288 170.363 275.158C168.921 275.028 167.479 275.028 166.037 275.028C164.595 275.028 163.153 275.028 161.711 275.028C160.531 275.028 159.221 275.028 158.041 275.028L157.517 289.978L145.85 289.458L146.374 274.768C145.719 274.638 144.932 274.508 144.277 274.378C142.835 274.118 141.524 273.988 140.082 273.858C138.64 273.728 137.198 273.728 135.756 273.598C134.314 273.598 132.872 273.598 131.43 273.468C130.775 273.468 129.988 273.468 129.333 273.468" fill="#362745"/>
<path d="M157.779 230.178C157.647 230.048 157.647 229.788 157.516 229.658C157.254 229.268 157.123 228.749 156.861 228.359C156.73 228.099 156.599 227.839 156.468 227.579C156.337 227.319 156.206 227.189 156.074 226.929C155.55 226.149 155.157 225.239 154.632 224.459C154.37 224.069 154.239 223.679 153.977 223.159C153.977 223.029 153.846 222.899 153.846 222.899C153.846 222.769 153.715 222.639 153.715 222.639C153.584 222.639 153.584 222.639 153.584 222.769C153.584 222.899 153.453 222.899 153.453 223.029C153.453 223.159 153.322 223.289 153.322 223.419C153.191 223.679 153.059 223.939 152.928 224.069C152.404 224.849 151.88 225.759 151.486 226.539C150.962 227.319 150.438 228.229 150.044 229.008C149.389 230.048 148.865 231.088 148.209 232.258C147.947 232.648 147.816 233.038 147.554 233.298C147.292 233.688 147.03 234.078 146.898 234.468C146.636 234.858 146.374 235.248 146.112 235.768C145.85 236.158 145.588 236.678 145.325 237.068C145.063 237.588 144.801 237.978 144.539 238.498C144.277 239.018 144.015 239.408 143.752 239.928C143.49 240.448 143.228 240.968 142.966 241.358C142.704 241.878 142.441 242.398 142.179 242.788C141.917 243.308 141.655 243.698 141.393 244.218C141.131 244.738 140.868 245.128 140.606 245.648C140.344 246.168 140.082 246.558 139.82 247.078C139.558 247.468 139.295 247.988 139.033 248.378C138.771 248.768 138.509 249.158 138.378 249.548C138.116 249.938 137.985 250.328 137.722 250.718C137.591 251.108 137.329 251.368 137.198 251.758C137.067 252.018 136.805 252.278 136.674 252.668C136.543 252.928 136.412 253.188 136.28 253.448C136.149 253.578 136.018 253.838 136.018 253.968C135.887 254.098 135.887 254.228 135.756 254.358L135.625 254.488H135.756C136.543 254.488 137.198 254.488 137.985 254.618C138.116 254.618 138.247 254.618 138.509 254.618C138.64 254.618 138.902 254.618 139.033 254.618C139.164 254.618 139.164 254.618 139.295 254.618C139.427 254.618 139.558 254.618 139.689 254.618C139.82 254.618 139.951 254.618 140.213 254.618C140.344 254.618 140.606 254.618 140.737 254.618C141 254.618 141.262 254.618 141.393 254.618C141.655 254.618 141.917 254.618 142.179 254.618C142.441 254.618 142.704 254.618 142.966 254.618C143.228 254.618 143.621 254.618 143.883 254.618C144.146 254.618 144.539 254.618 144.801 254.618C145.194 254.618 145.456 254.618 145.85 254.618C146.243 254.618 146.505 254.618 146.898 254.618C147.292 254.618 147.685 254.618 147.947 254.618C148.34 254.618 148.734 254.618 149.127 254.618C149.52 254.618 149.913 254.618 150.307 254.618C150.7 254.618 151.093 254.618 151.486 254.618C151.88 254.618 152.273 254.618 152.666 254.618C153.059 254.618 153.453 254.618 153.846 254.618C154.239 254.618 154.632 254.618 155.026 254.618C155.419 254.618 155.812 254.618 156.206 254.618C156.599 254.618 156.992 254.618 157.385 254.618C157.779 254.618 158.172 254.618 158.434 254.618C158.827 254.618 159.089 254.618 159.483 254.618C159.876 254.618 160.138 254.618 160.531 254.618C160.794 254.618 161.187 254.618 161.449 254.618C161.711 254.618 162.104 254.618 162.367 254.618C162.629 254.618 162.891 254.618 163.153 254.618C163.415 254.618 163.677 254.618 163.94 254.618C164.202 254.618 164.333 254.618 164.595 254.618L169.314 254.748C169.445 254.748 169.445 254.748 169.445 254.748C169.183 253.968 168.79 253.318 168.528 252.538C167.741 250.718 157.91 230.438 157.779 230.178C157.779 230.308 157.779 230.308 157.779 230.178ZM144.277 249.808C147.423 244.478 150.307 239.668 153.584 234.078C155.812 240.058 157.647 244.738 159.876 250.458C154.501 250.198 150.044 249.938 144.277 249.808Z" fill="#362745"/>
<path d="M69.9512 149.58C69.9512 150.23 70.0823 150.75 70.0823 151.27L69.9512 149.58ZM69.9512 149.58C69.9512 150.23 70.0823 150.75 70.0823 151.27L69.9512 149.58Z" fill="#E0E3BD"/>
<path d="M69.9512 149.58C69.9512 150.23 70.0823 150.75 70.0823 151.27M69.9512 149.58C69.9512 150.23 70.0823 150.75 70.0823 151.27L69.9512 149.58Z" stroke="#362745" stroke-width="2" stroke-miterlimit="10"/>
<path d="M347.461 397.874C340.775 392.544 335.794 385.654 329.502 379.674C329.895 373.045 330.682 367.065 330.682 361.085C330.551 344.705 331.599 328.326 330.288 311.946C329.502 301.936 332.255 292.317 335.008 282.697C340.382 264.367 337.367 245.518 334.614 227.448C332.648 214.579 332.386 202.099 333.303 189.36C334.221 178.18 334.352 167 335.27 155.82C336.449 139.961 337.891 124.361 333.828 108.372C330.288 94.8521 329.502 80.6824 323.996 67.6828C319.67 57.5431 319.67 57.5431 306.3 39.9935C294.371 27.5139 292.536 27.3839 282.311 21.274C274.446 16.5942 266.712 12.1743 257.142 11.2643C244.951 10.0943 233.678 4.76448 221.618 2.81453C200.644 -0.565381 179.933 1.25457 159.221 4.37449C131.431 8.66437 104.034 13.9942 82.6667 35.0537C72.573 45.0634 62.2172 54.5531 57.8914 68.4628C56.7116 72.3627 54.0899 75.7426 52.1236 79.2525C43.0787 94.4621 45.176 101.352 43.8652 121.111C44.6517 122.541 42.03 131.121 41.1124 133.461C39.9326 146.721 39.8015 138.271 39.9326 143.991C40.3258 161.28 40.4569 178.57 40.588 195.729C40.7191 211.329 41.3745 226.929 38.4906 242.268C35.3446 258.518 35.6067 274.897 35.4757 291.277C35.4757 294.917 35.6067 298.687 34.6891 302.196C31.9363 314.416 32.5918 326.636 33.2472 338.855C34.1648 355.495 33.3783 372.005 35.3446 389.034C25.6442 396.574 16.0749 404.114 6.37453 411.394C2.96629 413.863 1 416.593 1 421.013C1.26217 439.343 1.26217 457.672 1.39326 476.002C1.39326 480.942 3.75281 483.672 8.86517 484.062C32.5918 485.492 56.1873 486.921 79.7828 488.481C110.457 490.431 141 492.251 171.674 494.201C206.412 496.411 241.15 498.751 275.888 500.961C280.607 501.221 284.933 500.181 288.996 497.711C307.217 486.792 325.569 475.872 343.921 465.212C348.378 462.612 350.082 459.232 350.082 454.162C350.213 438.173 350.607 422.183 351 406.324C351 403.074 350.345 400.084 347.461 397.874ZM45.8315 315.716C47.4045 304.796 48.8464 294.007 48.5843 282.957C48.191 268.657 49.8951 254.618 51.9925 240.578C54.8764 221.079 53.8277 201.449 53.4345 181.82C53.3034 174.67 53.1723 167.52 53.3034 160.5C53.3034 158.68 53.4345 156.86 53.5655 155.04C53.6966 154 53.8277 152.96 53.8277 151.791C53.8277 151.271 54.221 150.881 54.6142 150.491C55.1386 149.841 55.794 149.191 56.3184 148.541C56.4494 148.411 56.5805 148.281 56.8427 148.151C56.9738 148.151 57.236 148.151 57.367 148.281C59.7266 149.321 63.7903 153.09 63.9213 153.35C63.9213 153.48 68.6404 156.99 68.6404 157.12C68.7715 157.25 65.7566 163.75 65.7566 164.01C71.3933 164.01 69.9513 162.19 74.5393 154C74.8015 153.48 69.9513 150.231 69.9513 149.581C69.1648 148.801 68.9026 147.761 68.5094 146.851C68.1161 145.681 67.4607 144.641 66.8052 143.731C66.412 143.211 66.0187 142.821 65.6255 142.301C65.2322 141.911 64.839 141.521 64.4457 141.131C64.1835 140.871 64.0524 140.611 64.0524 140.221C63.9213 139.701 63.6592 139.311 63.5281 138.791C63.0037 137.621 62.4794 136.321 62.0861 135.021C61.1685 132.551 60.382 129.951 59.5955 127.351C58.809 124.751 58.0225 122.151 57.1049 119.551C56.5805 118.121 56.0562 116.821 55.5318 115.391C56.4494 103.172 58.809 91.4721 66.9363 81.5924C68.7715 79.2525 69.9513 76.2626 70.8689 73.5326C74.5393 61.5729 82.6667 52.9932 91.9738 45.3234C97.7416 40.5135 102.985 34.7937 109.67 31.5438C109.802 31.4138 110.326 31.8037 110.457 31.8037C110.719 31.9337 110.981 32.0637 111.243 32.1937C111.768 32.5837 112.161 32.9737 112.423 33.4937C112.948 34.1437 113.079 35.0537 113.472 35.7036C113.734 36.3536 113.996 37.1336 114.258 37.7836C114.783 39.2135 115.307 40.5135 115.7 41.9435C115.831 42.2035 115.831 42.3335 115.963 42.4635C115.963 42.5935 116.094 42.7234 116.094 42.7234C116.094 42.7234 116.356 42.8535 116.487 42.8535C117.011 42.9834 117.536 43.2434 118.06 43.3734C118.191 43.3734 117.536 46.8833 117.536 47.1433V47.7933C117.536 48.3133 117.405 48.9633 117.405 49.4833C117.273 50.6532 117.273 51.8232 117.142 52.9932C117.142 53.3832 117.011 53.9032 117.142 54.2931C117.273 54.6831 117.405 54.9431 117.536 55.3331C118.584 57.4131 119.109 65.2129 119.109 65.2129C119.109 65.2129 120.813 60.793 120.682 60.533C120.551 60.143 120.551 59.883 120.419 59.493C120.288 58.843 120.157 58.063 120.026 57.4131C119.895 56.5031 119.764 55.5931 119.633 54.5531C119.633 54.1631 119.502 53.9032 119.502 53.5132C119.502 53.2532 119.371 53.1232 119.502 52.8632C119.633 52.4732 119.764 52.0832 120.026 51.8232C120.157 51.4332 120.419 51.0432 120.551 50.6532C120.551 50.6532 121.337 50.7832 121.468 50.9132C121.73 51.0432 121.993 51.1732 122.255 51.1732C123.041 51.3032 123.697 51.5632 124.352 51.9532C124.614 52.0832 124.876 52.2132 125.139 52.4732C125.27 52.7332 125.401 52.9932 125.532 53.2532C126.187 54.9431 126.843 56.7631 127.629 58.453C127.76 58.713 127.891 59.103 128.154 59.363C128.416 59.623 128.678 59.753 128.94 59.883C130.644 60.923 132.479 61.9629 134.184 63.0029C133.397 61.7029 132.217 60.663 131.169 59.363C129.596 57.4131 128.547 55.0731 128.154 52.6032C128.022 52.0832 128.022 51.5632 128.022 51.0432C126.712 50.1333 125.401 49.3533 124.09 48.4433C123.566 48.0533 122.91 47.7933 122.517 47.4033C122.386 47.2733 122.255 47.0133 122.255 46.7533C122.124 46.3634 121.993 46.1034 121.861 45.7134C121.337 44.2834 120.944 42.8535 120.419 41.5535C120.288 41.1635 120.157 40.6435 119.764 40.5135C119.633 40.3835 119.371 40.3835 119.109 40.2535C118.715 39.9935 118.584 39.4735 118.453 39.0836C118.322 38.5636 118.191 37.9136 118.06 37.3936C117.929 37.0036 117.798 36.4836 117.798 35.9636V35.4436C117.667 34.5337 117.405 33.6237 117.405 32.7137C117.273 30.3738 117.798 28.0339 119.109 25.9539C159.09 20.1041 199.464 15.2942 234.596 45.8434V64.0429C234.596 64.5629 234.596 65.2128 234.333 65.7328C234.202 65.8628 234.202 65.9928 234.071 66.2528C233.94 66.6428 233.809 67.0328 233.547 67.2928C233.154 67.9428 232.76 68.5928 232.236 69.3727C231.712 70.1527 231.187 70.9327 230.925 71.8427C231.056 71.7127 231.187 71.7127 231.318 71.5827L231.712 71.1927C231.974 70.9327 232.367 70.6727 232.629 70.5427C233.285 70.1527 233.809 69.6327 234.333 69.1127C234.596 68.8528 234.727 68.5928 234.989 68.2028C235.251 67.8128 235.513 67.1628 235.775 66.7728C236.169 66.3828 236.431 65.7328 236.562 65.0828C236.693 64.8229 236.824 64.6929 236.824 64.4329C236.955 64.1729 236.955 63.9129 237.086 63.5229C237.217 62.8729 237.348 62.3529 237.479 61.7029C238.004 59.103 238.135 56.5031 238.528 53.9032C238.659 52.8632 238.921 51.9532 239.184 50.9132C250.064 59.363 261.337 66.7728 262.91 81.5924C264.221 94.0721 266.449 106.292 269.989 118.381C271.037 121.891 271.955 125.531 271.955 129.171C271.955 153.48 273.135 177.66 269.202 201.839C267.105 214.709 267.236 228.098 267.105 241.228C267.105 255.268 266.318 269.307 265.007 283.217C263.697 296.867 263.697 310.386 267.105 323.646C268.94 330.666 267.76 337.686 266.974 344.835C265.401 358.745 264.745 372.785 263.828 386.824C263.566 390.204 263.697 393.714 262.255 397.354C190.944 393.454 119.764 389.554 48.191 385.524C48.191 385.524 47.9288 383.314 47.9288 383.184C47.7978 382.274 47.6667 381.364 47.5356 380.454C47.2734 378.634 47.1423 376.944 47.0112 375.124C46.8801 373.305 47.0112 371.615 47.1423 369.925V369.275C47.1423 368.625 47.2734 367.845 47.4045 367.325C47.5356 366.675 47.6667 365.895 47.7978 365.245C48.191 363.685 48.5843 362.125 49.2397 360.565C49.3708 360.305 49.3708 360.175 49.5019 359.915C49.633 359.785 49.8951 359.655 50.1573 359.525C53.5655 358.225 56.8427 356.925 60.2509 355.625C60.6442 355.495 60.7753 354.975 61.0375 354.585C61.2996 354.195 61.5618 353.805 61.9551 353.415C62.2172 353.155 62.6105 352.895 62.8727 352.635C63.397 352.115 63.6592 351.465 63.9213 350.815C64.4457 349.775 64.97 348.605 65.3633 347.565C65.6255 347.045 65.8876 346.525 66.0187 346.135C66.0187 346.005 66.0187 345.875 66.1498 345.745C66.5431 345.095 67.4607 344.575 67.985 344.185C69.1648 343.275 70.2135 342.235 71 341.065C69.9513 341.585 69.1648 342.235 68.1161 342.885C67.7228 343.145 67.1985 343.405 66.6742 343.535C66.5431 343.535 66.412 343.535 66.1498 343.665C66.0187 343.665 66.0187 343.795 66.0187 343.795C65.7566 344.055 65.4944 344.445 65.2322 344.835C64.7079 345.615 64.1835 346.395 63.6592 347.175C63.0037 348.085 62.3483 348.995 61.6929 350.035C61.0375 351.075 60.6442 352.115 59.5955 352.635C59.3333 352.765 58.9401 352.895 58.5468 353.025C55.2697 354.065 51.8614 355.235 48.5843 356.275C47.9288 356.535 47.2734 356.665 46.618 357.185V355.885C46.7491 355.235 46.618 354.585 46.7491 354.065V351.465C46.7491 349.645 46.618 347.955 46.618 346.135C46.4869 342.625 46.2247 339.115 46.0936 335.736C45.0449 329.236 44.9139 322.476 45.8315 315.716ZM42.9476 400.084C44.7828 398.654 47.1423 399.044 49.2397 399.174C91.3184 401.514 133.397 403.724 175.476 406.064C203.004 407.624 230.532 409.184 258.191 410.614C259.502 410.744 260.813 411.004 262.255 411.134C264.876 416.333 266.974 421.663 268.547 428.163C188.191 422.963 108.491 417.893 27.3483 412.694C32.8539 407.234 38.0974 403.854 42.9476 400.084ZM272.742 487.051C266.843 487.961 261.075 487.181 255.7 486.531C255.438 486.531 255.176 486.272 255.045 486.142C254.783 486.012 254.652 485.882 254.39 485.622C253.996 485.362 253.603 484.972 253.21 484.582C252.423 483.802 251.899 482.762 251.112 481.982C250.85 481.722 250.457 481.462 250.326 481.202C250.064 480.682 249.933 480.162 249.802 479.642C249.802 479.512 249.801 479.382 249.67 479.122C249.539 478.992 249.408 478.862 249.408 478.602C248.753 477.822 248.228 477.042 247.835 476.132C247.704 475.872 247.704 475.482 247.704 475.222C247.835 474.442 247.442 473.662 247.18 473.012C247.049 472.362 246.918 471.842 246.787 471.192C246.787 471.062 246.655 470.802 246.524 470.672C246.262 470.282 245.869 470.022 245.476 469.762C244.558 468.722 243.64 467.812 242.723 466.902C242.33 466.512 241.936 466.252 241.543 465.992C241.805 466.122 241.936 466.512 242.199 466.772C242.33 467.032 242.592 467.292 242.854 467.552C243.247 468.072 243.64 468.592 243.903 469.372C243.903 469.632 244.165 470.022 244.296 470.282C244.689 471.062 244.951 471.712 245.082 472.492C245.345 473.532 245.476 474.572 245.476 475.612C245.607 476.522 245.607 477.562 245.738 478.472C245.738 478.472 246.393 478.732 246.524 478.732C246.655 478.862 246.655 479.122 246.655 479.382C246.918 480.032 247.311 480.682 247.704 481.332C247.835 481.592 247.966 481.852 248.097 482.112V484.322C248.097 484.582 248.097 484.972 247.966 485.232C247.704 485.622 247.18 485.882 247.311 486.401C246.787 486.401 246 486.531 245.476 486.401C245.345 486.401 245.213 486.401 245.082 486.271C244.165 486.142 243.378 486.142 242.461 486.142C240.757 486.012 239.052 485.882 237.348 485.882C222.536 484.972 207.723 483.932 192.91 483.022C178.097 482.112 163.285 481.072 148.472 480.162C133.659 479.252 118.846 478.212 104.034 477.302C89.221 476.392 74.4082 475.352 59.5955 474.442C52.1236 473.922 44.7828 473.532 37.3109 473.012C33.6405 472.752 29.839 472.492 26.1685 472.362C24.3333 472.232 22.4981 472.102 20.6629 471.972C20.2697 471.972 15.2884 471.712 15.2884 471.582V459.102L15.4195 458.972C15.5506 458.842 15.5506 458.842 15.6816 458.712C15.8127 458.452 15.9438 458.322 16.0749 458.062C16.4682 457.542 16.7303 457.152 17.1236 456.632C17.5169 456.112 18.0412 455.592 18.4345 455.072C18.5655 454.812 18.6966 454.682 18.8277 454.422C19.0899 454.162 19.4831 453.902 19.7453 453.772C20.1386 453.512 20.5318 453.382 20.9251 453.122C21.7116 452.732 22.4981 452.342 23.4157 452.082C24.0712 451.822 24.7266 451.692 25.382 451.822C25.9064 451.952 26.4307 452.212 26.824 452.602C28.2659 453.642 29.839 454.682 31.5431 455.072C31.9363 455.202 32.0674 454.812 32.3296 454.682C32.985 454.032 33.7715 453.512 34.427 453.122C34.5581 452.992 34.8202 452.862 34.9513 452.862C35.3446 452.602 35.7378 452.472 36.1311 452.212C37.7041 451.562 39.4082 451.432 41.1124 451.302C39.9326 450.912 38.6217 450.652 37.1798 450.522C36.3933 450.522 35.6067 450.522 34.9513 450.912C34.8202 451.042 34.6891 451.172 34.6891 451.172C34.5581 451.302 34.2959 451.432 34.1648 451.562L32.985 452.342C32.8539 452.342 32.8539 452.472 32.7228 452.472C32.4607 452.602 32.1985 452.732 32.0674 452.992C31.9363 453.122 31.5431 453.382 31.2809 453.382C31.1498 453.382 30.8876 453.252 30.6255 453.122C30.4944 452.992 30.2322 452.992 30.1011 452.862C29.7079 452.602 29.3146 452.342 29.0524 452.212C28.0037 451.432 26.9551 450.392 25.9064 449.483C25.7753 449.353 25.6442 449.352 25.5131 449.223H24.9888C24.5955 449.352 24.2022 449.353 23.809 449.483C23.5468 449.483 23.4157 449.612 23.1536 449.612H22.7603C22.367 449.612 21.9738 449.742 21.5805 449.742C21.0562 449.872 20.4007 450.002 19.8764 450.132C18.1723 450.522 16.5993 450.912 14.8951 451.432V425.303C100.888 430.763 186.618 436.353 272.742 441.813V487.051ZM248.228 41.8135L244.427 36.4836H242.723C242.461 36.4836 242.33 36.2236 242.067 36.2236L238.135 33.1037C235.513 31.0238 232.76 29.0738 230.007 27.2539C224.502 23.484 218.734 19.9741 212.573 17.1141C209.82 16.8541 207.592 15.5542 204.446 13.6042C207.854 14.1242 210.213 14.5142 212.573 14.9042C220.7 14.7742 228.303 17.3741 236.037 19.7141C242.067 21.534 248.097 23.484 254.39 24.004C263.959 24.6539 271.431 29.7238 278.903 34.7937C284.802 38.8236 286.768 45.4534 288.603 51.6932C289.914 56.5031 285.326 58.583 282.442 61.313V61.8329C282.442 62.0929 282.573 62.3529 282.573 62.6129C282.704 63.1329 282.966 63.5229 283.097 64.0429C283.622 65.0828 284.146 65.9928 284.539 67.0328C284.802 67.5528 284.933 68.0728 285.064 68.5928C285.195 69.1127 285.326 69.7627 285.195 70.2827C285.195 70.5427 284.802 70.8027 284.67 70.9327C283.884 71.9727 282.966 73.0126 282.18 73.9226L287.685 72.1027C288.079 71.7127 288.341 71.3227 288.734 71.0627C289.127 70.8027 289.521 70.4127 289.914 70.1527C289.521 69.8927 289.521 69.7627 289.521 69.3727C289.39 68.8527 289.258 68.2028 289.127 67.6828C288.996 67.1628 288.865 66.6428 288.734 66.1228C288.734 65.8628 288.603 65.6028 288.603 65.3428C288.603 65.2128 288.341 64.6929 288.472 64.5629C289.914 61.7029 293.06 61.183 294.633 59.363C304.333 60.013 309.708 65.0828 312.461 73.7926C316 84.8423 316.918 96.542 320.195 107.592C325.831 127.351 322.292 146.851 320.85 166.48C320.064 177.79 321.243 189.36 319.015 200.539C318.097 204.829 317.049 208.859 313.64 211.329C312.461 216.139 313.509 220.559 313.247 224.979C312.723 226.279 311.543 227.318 310.494 228.228C309.577 229.138 308.528 229.918 307.479 230.698C307.479 230.698 307.479 230.698 307.348 230.828C306.431 231.478 305.382 232.128 304.596 232.908C304.202 233.298 303.809 233.688 303.416 234.078C303.022 234.468 302.498 234.728 301.974 235.118C301.056 235.638 300.139 236.288 299.221 236.938C298.959 237.198 298.566 237.328 298.434 237.718L297.91 238.238C297.779 238.368 297.517 238.628 297.386 238.758C297.255 238.888 297.124 239.018 297.124 239.148C297.124 239.278 297.255 239.278 297.255 239.408C297.91 240.188 298.172 241.358 298.697 242.268C298.828 242.528 299.09 242.788 299.221 243.178C299.352 243.308 299.352 243.438 299.352 243.698C299.614 244.218 299.745 244.738 299.745 245.258V246.038C299.614 246.558 299.876 247.078 299.483 247.468C298.959 247.988 298.303 248.508 297.779 249.028C297.517 249.288 297.255 249.548 296.993 249.678C296.468 250.198 295.813 250.588 295.288 251.108C295.157 251.238 295.026 251.238 295.026 251.368C294.895 251.498 294.895 251.758 295.026 252.018C295.419 254.878 295.813 257.868 296.206 260.728C296.206 261.118 296.337 261.638 296.337 262.158C296.206 262.548 296.206 262.938 296.206 263.458C296.206 264.627 296.337 265.797 296.468 266.837L298.959 254.748C300.794 251.368 305.382 250.718 306.562 247.338C306.562 244.348 303.809 243.568 302.891 240.968C307.742 237.458 312.723 233.818 318.228 229.788C318.36 227.188 318.622 224.069 318.753 220.819C320.588 221.209 320.85 222.639 320.981 223.809C321.899 241.358 326.225 258.908 322.423 276.587C321.112 282.957 318.884 289.067 318.097 295.437C316 313.376 318.753 331.186 318.36 348.995C318.097 357.965 319.277 367.065 316.262 376.424C303.154 383.184 289.914 389.294 275.625 396.054C276.281 388.124 276.543 381.104 277.33 374.085C278.509 362.775 277.985 351.205 280.476 340.025C281.524 335.216 281.131 330.016 279.951 325.206C275.888 309.606 276.019 294.007 277.985 278.277C280.082 261.118 279.558 243.828 279.82 226.539C280.082 209.249 282.704 192.219 283.622 174.93C284.539 156.86 286.112 138.661 282.966 120.851C280.476 106.682 276.412 92.7721 274.708 78.3425C273.397 67.6828 268.022 58.843 259.633 51.9532C256.487 49.3533 253.603 46.6233 250.457 43.8934C249.67 43.2434 249.015 42.5935 248.228 41.8135C248.097 41.6835 247.966 41.6835 247.966 41.5535C247.704 41.2935 247.704 41.0335 247.573 40.6435L248.228 41.8135ZM317.18 397.094C317.18 397.094 317.311 397.224 317.442 397.224C317.573 397.224 317.573 397.224 317.704 397.354C317.966 397.354 318.097 397.484 318.228 397.614C318.491 397.874 318.622 398.134 318.753 398.394C318.753 398.784 318.884 399.174 318.884 399.694C318.884 400.604 319.015 401.644 318.884 402.554C318.884 403.074 318.884 403.464 318.753 403.984V404.504C318.753 404.764 319.015 404.764 319.277 404.894C319.67 405.024 319.933 405.414 320.064 405.674C320.195 405.934 320.326 406.194 320.195 406.454C320.195 406.714 320.064 406.974 319.933 407.104C319.67 407.624 319.277 407.884 318.753 408.144C317.573 408.664 316.393 409.314 315.345 409.964C304.858 415.423 294.371 421.013 283.36 426.733C280.476 421.403 278.509 416.073 276.543 409.964C291.094 403.204 305.513 396.444 320.064 389.554C324.914 392.544 327.929 397.094 331.468 400.994C329.502 403.204 327.011 403.854 324.521 405.024C324.258 404.894 323.996 404.764 323.734 404.634C323.472 404.504 323.079 404.244 322.816 404.114C322.554 403.984 322.292 403.724 321.899 403.724C321.506 403.594 320.981 403.334 320.719 403.074C320.588 402.944 320.588 402.814 320.588 402.554C320.457 402.034 320.326 401.644 320.326 401.124C320.195 400.474 320.064 399.954 319.802 399.304C319.67 398.784 319.408 398.134 319.277 397.614L317.18 397.094ZM326.094 432.323V430.373C326.094 429.983 326.094 429.463 326.356 429.073C326.487 428.813 326.487 428.683 326.618 428.553C326.618 428.423 326.749 428.423 326.749 428.293C327.142 427.643 327.536 426.993 328.06 426.343C330.288 423.743 331.599 420.753 331.337 417.113C332.779 416.073 334.221 414.903 336.712 415.033C337.629 427.773 336.974 441.033 336.581 454.552C320.064 464.302 303.547 474.052 286.375 484.062V439.993C299.745 432.973 312.985 426.083 326.356 419.193C326.749 419.713 327.011 420.363 327.142 421.013C327.273 421.403 327.142 421.923 327.142 422.313C327.142 422.573 327.011 422.703 326.88 422.963C326.88 423.093 326.749 423.223 326.618 423.483C326.487 423.613 326.225 423.873 326.094 424.003C325.831 424.133 325.7 424.393 325.438 424.653C325.176 424.913 324.914 425.303 324.783 425.563C324.652 425.693 324.521 425.823 324.521 426.083C324.39 426.213 324.258 426.473 324.258 426.733C323.865 427.383 323.472 428.163 322.948 428.813C322.685 429.073 322.423 429.463 322.423 429.853C322.423 429.983 322.423 430.113 322.554 430.243V435.313C322.554 436.223 322.685 437.003 322.685 437.913C322.685 438.563 322.554 439.473 322.161 439.993L321.768 440.383C321.768 440.383 321.637 440.513 321.637 440.643C321.637 440.773 321.506 440.773 321.375 440.903C320.457 441.943 319.277 442.723 318.097 443.503C318.884 443.373 319.67 443.243 320.326 442.853C320.85 442.593 321.375 442.203 322.03 441.943C322.161 441.943 322.292 441.683 322.554 441.683C322.554 441.683 322.554 441.683 322.685 441.683C322.948 441.293 323.079 440.903 323.341 440.383C323.472 440.253 323.472 439.993 323.603 439.733C323.734 439.473 323.734 439.343 323.865 439.083C323.865 438.953 323.996 438.823 323.996 438.693C324.127 438.173 324.258 437.653 324.521 437.133C324.652 436.873 324.652 436.613 324.783 436.353C324.783 436.223 324.914 436.093 324.914 435.833C324.914 435.573 324.914 435.313 325.045 435.183C325.045 434.923 325.176 434.663 325.438 434.533C325.569 434.533 325.569 434.533 325.7 434.533L326.094 432.323Z" fill="#E0E3BD"/>
<path d="M248.228 41.8135L244.427 36.4836H242.723C242.461 36.4836 242.33 36.2236 242.067 36.2236L238.135 33.1037C235.513 31.0238 232.76 29.0738 230.007 27.2539C224.502 23.484 218.734 19.9741 212.573 17.1141C209.82 16.8541 207.592 15.5542 204.446 13.6042C207.854 14.1242 210.213 14.5142 212.573 14.9042C220.7 14.7742 228.303 17.3741 236.037 19.7141C242.067 21.534 248.097 23.484 254.39 24.004C263.959 24.6539 271.431 29.7238 278.903 34.7937C284.802 38.8236 286.768 45.4534 288.603 51.6932C289.914 56.5031 285.326 58.583 282.442 61.313V61.8329C282.442 62.0929 282.573 62.3529 282.573 62.6129C282.704 63.1329 282.966 63.5229 283.097 64.0429C283.622 65.0829 284.146 65.9928 284.539 67.0328C284.802 67.5528 284.933 68.0728 285.064 68.5928C285.195 69.1127 285.326 69.7627 285.195 70.2827C285.195 70.5427 284.801 70.8027 284.67 70.9327C283.884 71.9727 282.966 73.0126 282.18 73.9226L287.685 72.1027C288.079 71.7127 288.341 71.3227 288.734 71.0627C289.127 70.8027 289.521 70.4127 289.914 70.1527C289.521 69.8927 289.521 69.7627 289.521 69.3727C289.39 68.8527 289.258 68.2028 289.127 67.6828C288.996 67.1628 288.865 66.6428 288.734 66.1228C288.734 65.8628 288.603 65.6028 288.603 65.3428C288.603 65.2128 288.341 64.6929 288.472 64.5629C289.914 61.7029 293.06 61.183 294.633 59.363C304.333 60.013 309.708 65.0829 312.461 73.7926C316 84.8423 316.918 96.542 320.195 107.592C325.831 127.351 322.292 146.851 320.85 166.48C320.064 177.79 321.243 189.36 319.015 200.539C318.097 204.829 317.049 208.859 313.64 211.329C312.461 216.139 313.509 220.559 313.247 224.979C312.723 226.279 311.543 227.318 310.494 228.228C309.577 229.138 308.528 229.918 307.479 230.698C307.479 230.698 307.479 230.698 307.348 230.828C306.431 231.478 305.382 232.128 304.596 232.908C304.202 233.298 303.809 233.688 303.416 234.078C303.022 234.468 302.498 234.728 301.974 235.118C301.056 235.638 300.139 236.288 299.221 236.938C298.959 237.198 298.566 237.328 298.434 237.718L297.91 238.238C297.779 238.368 297.517 238.628 297.386 238.758C297.255 238.888 297.124 239.018 297.124 239.148C297.124 239.278 297.255 239.278 297.255 239.408C297.91 240.188 298.172 241.358 298.697 242.268C298.828 242.528 299.09 242.788 299.221 243.178C299.352 243.308 299.352 243.438 299.352 243.698C299.614 244.218 299.745 244.738 299.745 245.258V246.038C299.614 246.558 299.876 247.078 299.483 247.468C298.959 247.988 298.303 248.508 297.779 249.028C297.517 249.288 297.255 249.548 296.993 249.678C296.468 250.198 295.813 250.588 295.288 251.108C295.157 251.238 295.026 251.238 295.026 251.368C294.895 251.498 294.895 251.758 295.026 252.018C295.419 254.878 295.813 257.868 296.206 260.728C296.206 261.118 296.337 261.638 296.337 262.158C296.206 262.548 296.206 262.938 296.206 263.458C296.206 264.627 296.337 265.797 296.468 266.837L298.959 254.748C300.794 251.368 305.382 250.718 306.562 247.338C306.562 244.348 303.809 243.568 302.891 240.968C307.742 237.458 312.723 233.818 318.228 229.788C318.36 227.188 318.622 224.069 318.753 220.819C320.588 221.209 320.85 222.639 320.981 223.809C321.899 241.358 326.225 258.908 322.423 276.587C321.112 282.957 318.884 289.067 318.097 295.437C316 313.376 318.753 331.186 318.36 348.995C318.097 357.965 319.277 367.065 316.262 376.424C303.154 383.184 289.914 389.294 275.625 396.054C276.281 388.124 276.543 381.104 277.33 374.085C278.509 362.775 277.985 351.205 280.476 340.025C281.524 335.216 281.131 330.016 279.951 325.206C275.888 309.606 276.019 294.007 277.985 278.277C280.082 261.118 279.558 243.828 279.82 226.539C280.082 209.249 282.704 192.219 283.622 174.93C284.539 156.86 286.112 138.661 282.966 120.851C280.476 106.682 276.412 92.7721 274.708 78.3425C273.397 67.6828 268.022 58.843 259.633 51.9532C256.487 49.3533 253.603 46.6233 250.457 43.8934C249.67 43.2434 249.015 42.5935 248.228 41.8135ZM248.228 41.8135C248.097 41.6835 247.966 41.6835 247.966 41.5535C247.704 41.2935 247.704 41.0335 247.573 40.6435L248.228 41.8135ZM319.277 397.614C319.408 398.134 319.67 398.784 319.802 399.304C320.064 399.954 320.195 400.474 320.326 401.124C320.326 401.644 320.457 402.034 320.588 402.554C320.588 402.814 320.588 402.944 320.719 403.074C320.981 403.334 321.506 403.594 321.899 403.724C322.292 403.724 322.554 403.984 322.816 404.114C323.079 404.244 323.472 404.504 323.734 404.634C323.996 404.764 324.258 404.894 324.521 405.024C327.011 403.854 329.502 403.204 331.468 400.994C327.929 397.094 324.914 392.544 320.064 389.554C305.513 396.444 291.094 403.204 276.543 409.964C278.509 416.073 280.476 421.403 283.36 426.733C294.371 421.013 304.858 415.423 315.345 409.964C316.393 409.314 317.573 408.664 318.753 408.144C319.277 407.884 319.67 407.624 319.933 407.104C320.064 406.974 320.195 406.714 320.195 406.454C320.326 406.194 320.195 405.934 320.064 405.674C319.933 405.414 319.67 405.024 319.277 404.894C319.015 404.764 318.753 404.764 318.753 404.504V403.984C318.884 403.464 318.884 403.074 318.884 402.554C319.015 401.644 318.884 400.604 318.884 399.694C318.884 399.174 318.753 398.784 318.753 398.394C318.622 398.134 318.491 397.874 318.228 397.614C318.097 397.484 317.966 397.354 317.704 397.354C317.573 397.224 317.573 397.224 317.442 397.224C317.311 397.224 317.18 397.094 317.18 397.094L319.277 397.614ZM319.277 397.614L316.524 396.574M347.461 397.874C340.775 392.544 335.794 385.654 329.502 379.674C329.895 373.045 330.682 367.065 330.682 361.085C330.551 344.705 331.599 328.326 330.288 311.946C329.502 301.936 332.255 292.317 335.008 282.697C340.382 264.367 337.367 245.518 334.614 227.448C332.648 214.579 332.386 202.099 333.303 189.36C334.221 178.18 334.352 167 335.27 155.82C336.449 139.961 337.891 124.361 333.828 108.372C330.288 94.852 329.502 80.6824 323.996 67.6828C319.67 57.5431 319.67 57.5431 306.3 39.9935C294.371 27.5139 292.536 27.3839 282.311 21.274C274.446 16.5942 266.712 12.1743 257.142 11.2643C244.951 10.0943 233.678 4.76448 221.618 2.81453C200.644 -0.565381 179.933 1.25457 159.221 4.37449C131.431 8.66437 104.034 13.9942 82.6667 35.0537C72.573 45.0634 62.2172 54.5531 57.8914 68.4628C56.7116 72.3627 54.0899 75.7426 52.1236 79.2525C43.0787 94.4621 45.176 101.352 43.8652 121.111C44.6517 122.541 42.03 131.121 41.1124 133.461C39.9326 146.721 39.8015 138.271 39.9326 143.991C40.3258 161.28 40.4569 178.57 40.588 195.729C40.7191 211.329 41.3745 226.929 38.4906 242.268C35.3446 258.518 35.6067 274.897 35.4757 291.277C35.4757 294.917 35.6067 298.687 34.6891 302.196C31.9363 314.416 32.5918 326.636 33.2472 338.855C34.1648 355.495 33.3783 372.005 35.3446 389.034C25.6442 396.574 16.0749 404.114 6.37453 411.394C2.96629 413.863 1 416.593 1 421.013C1.26217 439.343 1.26217 457.672 1.39326 476.002C1.39326 480.942 3.75281 483.672 8.86517 484.062C32.5918 485.492 56.1873 486.921 79.7828 488.481C110.457 490.431 141 492.251 171.674 494.201C206.412 496.411 241.15 498.751 275.888 500.961C280.607 501.221 284.933 500.181 288.996 497.711C307.217 486.792 325.569 475.872 343.921 465.212C348.378 462.612 350.082 459.232 350.082 454.162C350.213 438.173 350.607 422.183 351 406.324C351 403.074 350.345 400.084 347.461 397.874ZM45.8315 315.716C47.4045 304.796 48.8464 294.007 48.5843 282.957C48.191 268.657 49.8951 254.618 51.9925 240.578C54.8764 221.079 53.8277 201.449 53.4345 181.82C53.3034 174.67 53.1723 167.52 53.3034 160.5C53.3034 158.68 53.4345 156.86 53.5655 155.04C53.6966 154 53.8277 152.96 53.8277 151.791C53.8277 151.271 54.221 150.881 54.6142 150.491C55.1386 149.841 55.794 149.191 56.3184 148.541C56.4494 148.411 56.5805 148.281 56.8427 148.151C56.9738 148.151 57.236 148.151 57.367 148.281C59.7266 149.321 63.7903 153.09 63.9214 153.35C63.9214 153.48 68.6404 156.99 68.6404 157.12C68.7715 157.25 65.7566 163.75 65.7566 164.01C71.3933 164.01 69.9513 162.19 74.5393 154C74.8015 153.48 69.9513 150.231 69.9513 149.581C69.1648 148.801 68.9026 147.761 68.5094 146.851C68.1161 145.681 67.4607 144.641 66.8052 143.731C66.412 143.211 66.0187 142.821 65.6255 142.301C65.2322 141.911 64.839 141.521 64.4457 141.131C64.1835 140.871 64.0524 140.611 64.0524 140.221C63.9213 139.701 63.6592 139.311 63.5281 138.791C63.0037 137.621 62.4794 136.321 62.0861 135.021C61.1685 132.551 60.382 129.951 59.5955 127.351C58.809 124.751 58.0225 122.151 57.1049 119.551C56.5805 118.121 56.0562 116.821 55.5318 115.391C56.4494 103.172 58.809 91.4721 66.9363 81.5924C68.7715 79.2525 69.9513 76.2625 70.8689 73.5326C74.5393 61.5729 82.6667 52.9932 91.9738 45.3234C97.7416 40.5135 102.985 34.7937 109.67 31.5438C109.802 31.4138 110.326 31.8037 110.457 31.8037C110.719 31.9337 110.981 32.0637 111.243 32.1937C111.768 32.5837 112.161 32.9737 112.423 33.4937C112.948 34.1437 113.079 35.0537 113.472 35.7036C113.734 36.3536 113.996 37.1336 114.258 37.7836C114.783 39.2135 115.307 40.5135 115.7 41.9435C115.831 42.2035 115.831 42.3335 115.963 42.4635C115.963 42.5935 116.094 42.7235 116.094 42.7235C116.094 42.7235 116.356 42.8534 116.487 42.8534C117.011 42.9834 117.536 43.2434 118.06 43.3734C118.191 43.3734 117.536 46.8833 117.536 47.1433V47.7933C117.536 48.3133 117.405 48.9633 117.405 49.4833C117.273 50.6532 117.273 51.8232 117.142 52.9932C117.142 53.3832 117.011 53.9032 117.142 54.2931C117.273 54.6831 117.405 54.9431 117.536 55.3331C118.584 57.4131 119.109 65.2128 119.109 65.2128C119.109 65.2128 120.813 60.793 120.682 60.533C120.551 60.143 120.551 59.883 120.419 59.493C120.288 58.843 120.157 58.063 120.026 57.4131C119.895 56.5031 119.764 55.5931 119.633 54.5531C119.633 54.1631 119.502 53.9032 119.502 53.5132C119.502 53.2532 119.371 53.1232 119.502 52.8632C119.633 52.4732 119.764 52.0832 120.026 51.8232C120.157 51.4332 120.419 51.0432 120.551 50.6532C120.551 50.6532 121.337 50.7832 121.468 50.9132C121.73 51.0432 121.993 51.1732 122.255 51.1732C123.041 51.3032 123.697 51.5632 124.352 51.9532C124.614 52.0832 124.876 52.2132 125.139 52.4732C125.27 52.7332 125.401 52.9932 125.532 53.2532C126.187 54.9431 126.843 56.7631 127.629 58.453C127.76 58.713 127.891 59.103 128.154 59.363C128.416 59.623 128.678 59.753 128.94 59.883C130.644 60.923 132.479 61.9629 134.184 63.0029C133.397 61.7029 132.217 60.663 131.169 59.363C129.596 57.4131 128.547 55.0731 128.154 52.6032C128.022 52.0832 128.022 51.5632 128.022 51.0432C126.712 50.1333 125.401 49.3533 124.09 48.4433C123.566 48.0533 122.91 47.7933 122.517 47.4033C122.386 47.2733 122.255 47.0133 122.255 46.7533C122.124 46.3634 121.993 46.1034 121.861 45.7134C121.337 44.2834 120.944 42.8535 120.419 41.5535C120.288 41.1635 120.157 40.6435 119.764 40.5135C119.633 40.3835 119.371 40.3835 119.109 40.2535C118.715 39.9935 118.584 39.4735 118.453 39.0836C118.322 38.5636 118.191 37.9136 118.06 37.3936C117.929 37.0036 117.798 36.4836 117.798 35.9636V35.4437C117.667 34.5337 117.405 33.6237 117.405 32.7137C117.273 30.3738 117.798 28.0339 119.109 25.9539C159.09 20.1041 199.464 15.2942 234.596 45.8434V64.0429C234.596 64.5629 234.596 65.2128 234.333 65.7328C234.202 65.8628 234.202 65.9928 234.071 66.2528C233.94 66.6428 233.809 67.0328 233.547 67.2928C233.154 67.9428 232.76 68.5928 232.236 69.3727C231.712 70.1527 231.187 70.9327 230.925 71.8427C231.056 71.7127 231.187 71.7127 231.318 71.5827L231.712 71.1927C231.974 70.9327 232.367 70.6727 232.629 70.5427C233.285 70.1527 233.809 69.6327 234.333 69.1127C234.596 68.8528 234.727 68.5928 234.989 68.2028C235.251 67.8128 235.513 67.1628 235.775 66.7728C236.169 66.3828 236.431 65.7328 236.562 65.0828C236.693 64.8229 236.824 64.6929 236.824 64.4329C236.955 64.1729 236.955 63.9129 237.086 63.5229C237.217 62.8729 237.348 62.3529 237.479 61.7029C238.004 59.103 238.135 56.5031 238.528 53.9032C238.659 52.8632 238.921 51.9532 239.184 50.9132C250.064 59.363 261.337 66.7728 262.91 81.5924C264.221 94.0721 266.449 106.292 269.989 118.381C271.037 121.891 271.955 125.531 271.955 129.171C271.955 153.48 273.135 177.66 269.202 201.839C267.105 214.709 267.236 228.098 267.105 241.228C267.105 255.268 266.318 269.307 265.007 283.217C263.697 296.867 263.697 310.386 267.105 323.646C268.94 330.666 267.76 337.686 266.974 344.835C265.401 358.745 264.745 372.785 263.828 386.824C263.566 390.204 263.697 393.714 262.255 397.354C190.944 393.454 119.764 389.554 48.191 385.524C48.191 385.524 47.9288 383.314 47.9288 383.184C47.7978 382.274 47.6667 381.364 47.5356 380.454C47.2734 378.634 47.1423 376.944 47.0112 375.124C46.8801 373.305 47.0112 371.615 47.1423 369.925V369.275C47.1423 368.625 47.2734 367.845 47.4045 367.325C47.5356 366.675 47.6667 365.895 47.7978 365.245C48.191 363.685 48.5843 362.125 49.2397 360.565C49.3708 360.305 49.3708 360.175 49.5019 359.915C49.633 359.785 49.8951 359.655 50.1573 359.525C53.5655 358.225 56.8427 356.925 60.2509 355.625C60.6442 355.495 60.7753 354.975 61.0375 354.585C61.2996 354.195 61.5618 353.805 61.9551 353.415C62.2172 353.155 62.6105 352.895 62.8727 352.635C63.397 352.115 63.6592 351.465 63.9214 350.815C64.4457 349.775 64.97 348.605 65.3633 347.565C65.6255 347.045 65.8876 346.525 66.0187 346.135C66.0187 346.005 66.0187 345.875 66.1498 345.745C66.5431 345.095 67.4607 344.575 67.985 344.185C69.1648 343.275 70.2135 342.235 71 341.065C69.9513 341.585 69.1648 342.235 68.1161 342.885C67.7228 343.145 67.1985 343.405 66.6742 343.535C66.5431 343.535 66.412 343.535 66.1498 343.665C66.0187 343.665 66.0187 343.795 66.0187 343.795C65.7566 344.055 65.4944 344.445 65.2322 344.835C64.7079 345.615 64.1835 346.395 63.6592 347.175C63.0037 348.085 62.3483 348.995 61.6929 350.035C61.0375 351.075 60.6442 352.115 59.5955 352.635C59.3333 352.765 58.9401 352.895 58.5468 353.025C55.2697 354.065 51.8614 355.235 48.5843 356.275C47.9288 356.535 47.2734 356.665 46.618 357.185V355.885C46.7491 355.235 46.618 354.585 46.7491 354.065V351.465C46.7491 349.645 46.618 347.955 46.618 346.135C46.4869 342.625 46.2247 339.115 46.0936 335.736C45.0449 329.236 44.9139 322.476 45.8315 315.716ZM42.9476 400.084C44.7828 398.654 47.1423 399.044 49.2397 399.174C91.3184 401.514 133.397 403.724 175.476 406.064C203.004 407.624 230.532 409.184 258.191 410.614C259.502 410.744 260.813 411.004 262.255 411.134C264.876 416.333 266.974 421.663 268.547 428.163C188.191 422.963 108.491 417.893 27.3483 412.694C32.8539 407.234 38.0974 403.854 42.9476 400.084ZM272.742 487.051C266.843 487.961 261.075 487.181 255.7 486.532C255.438 486.532 255.176 486.272 255.045 486.142C254.783 486.012 254.652 485.882 254.39 485.622C253.996 485.362 253.603 484.972 253.21 484.582C252.423 483.802 251.899 482.762 251.112 481.982C250.85 481.722 250.457 481.462 250.326 481.202C250.064 480.682 249.933 480.162 249.802 479.642C249.802 479.512 249.802 479.382 249.67 479.122C249.539 478.992 249.408 478.862 249.408 478.602C248.753 477.822 248.228 477.042 247.835 476.132C247.704 475.872 247.704 475.482 247.704 475.222C247.835 474.442 247.442 473.662 247.18 473.012C247.049 472.362 246.918 471.842 246.787 471.192C246.787 471.062 246.655 470.802 246.524 470.672C246.262 470.282 245.869 470.022 245.476 469.762C244.558 468.722 243.64 467.812 242.723 466.902C242.33 466.512 241.936 466.252 241.543 465.992C241.805 466.122 241.936 466.512 242.199 466.772C242.33 467.032 242.592 467.292 242.854 467.552C243.247 468.072 243.64 468.592 243.903 469.372C243.903 469.632 244.165 470.022 244.296 470.282C244.689 471.062 244.951 471.712 245.082 472.492C245.345 473.532 245.476 474.572 245.476 475.612C245.607 476.522 245.607 477.562 245.738 478.472C245.738 478.472 246.393 478.732 246.524 478.732C246.655 478.862 246.655 479.122 246.655 479.382C246.918 480.032 247.311 480.682 247.704 481.332C247.835 481.592 247.966 481.852 248.097 482.112V484.322C248.097 484.582 248.097 484.972 247.966 485.232C247.704 485.622 247.18 485.882 247.311 486.401C246.787 486.401 246 486.531 245.476 486.401C245.345 486.401 245.213 486.401 245.082 486.271C244.165 486.141 243.378 486.142 242.461 486.142C240.757 486.012 239.052 485.882 237.348 485.882C222.536 484.972 207.723 483.932 192.91 483.022C178.097 482.112 163.285 481.072 148.472 480.162C133.659 479.252 118.846 478.212 104.034 477.302C89.221 476.392 74.4082 475.352 59.5955 474.442C52.1236 473.922 44.7828 473.532 37.3109 473.012C33.6405 472.752 29.839 472.492 26.1685 472.362C24.3333 472.232 22.4981 472.102 20.6629 471.972C20.2697 471.972 15.2884 471.712 15.2884 471.582V459.102L15.4195 458.972C15.5506 458.842 15.5506 458.842 15.6816 458.712C15.8127 458.452 15.9438 458.322 16.0749 458.062C16.4682 457.542 16.7303 457.152 17.1236 456.632C17.5169 456.112 18.0412 455.592 18.4345 455.072C18.5655 454.812 18.6966 454.682 18.8277 454.422C19.0899 454.162 19.4831 453.902 19.7453 453.772C20.1386 453.512 20.5318 453.382 20.9251 453.122C21.7116 452.732 22.4981 452.342 23.4157 452.082C24.0712 451.822 24.7266 451.692 25.382 451.822C25.9064 451.952 26.4307 452.212 26.824 452.602C28.2659 453.642 29.839 454.682 31.5431 455.072C31.9363 455.202 32.0674 454.812 32.3296 454.682C32.985 454.032 33.7715 453.512 34.427 453.122C34.5581 452.992 34.8202 452.862 34.9513 452.862C35.3446 452.602 35.7378 452.472 36.1311 452.212C37.7041 451.562 39.4082 451.432 41.1124 451.302C39.9326 450.912 38.6217 450.652 37.1798 450.522C36.3933 450.522 35.6067 450.522 34.9513 450.912C34.8202 451.042 34.6891 451.172 34.6891 451.172C34.5581 451.302 34.2959 451.432 34.1648 451.562L32.985 452.342C32.8539 452.342 32.8539 452.472 32.7228 452.472C32.4607 452.602 32.1985 452.732 32.0674 452.992C31.9363 453.122 31.5431 453.382 31.2809 453.382C31.1498 453.382 30.8876 453.252 30.6255 453.122C30.4944 452.992 30.2322 452.992 30.1011 452.862C29.7079 452.602 29.3146 452.342 29.0524 452.212C28.0037 451.432 26.9551 450.392 25.9064 449.482C25.7753 449.353 25.6442 449.352 25.5131 449.222H24.9888C24.5955 449.352 24.2022 449.353 23.809 449.482C23.5468 449.482 23.4157 449.613 23.1536 449.613H22.7603C22.367 449.613 21.9738 449.743 21.5805 449.743C21.0562 449.873 20.4007 450.002 19.8764 450.132C18.1723 450.522 16.5993 450.912 14.8951 451.432V425.303C100.888 430.763 186.618 436.353 272.742 441.813V487.051ZM326.094 432.323V430.373C326.094 429.983 326.094 429.463 326.356 429.073C326.487 428.813 326.487 428.683 326.618 428.553C326.618 428.423 326.749 428.423 326.749 428.293C327.142 427.643 327.536 426.993 328.06 426.343C330.288 423.743 331.599 420.753 331.337 417.113C332.779 416.073 334.221 414.903 336.712 415.033C337.629 427.773 336.974 441.033 336.581 454.552C320.064 464.302 303.547 474.052 286.375 484.062V439.993C299.745 432.973 312.985 426.083 326.356 419.193C326.749 419.713 327.011 420.363 327.142 421.013C327.273 421.403 327.142 421.923 327.142 422.313C327.142 422.573 327.011 422.703 326.88 422.963C326.88 423.093 326.749 423.223 326.618 423.483C326.487 423.613 326.225 423.873 326.094 424.003C325.831 424.133 325.7 424.393 325.438 424.653C325.176 424.913 324.914 425.303 324.783 425.563C324.652 425.693 324.521 425.823 324.521 426.083C324.39 426.213 324.258 426.473 324.258 426.733C323.865 427.383 323.472 428.163 322.948 428.813C322.685 429.073 322.423 429.463 322.423 429.853C322.423 429.983 322.423 430.113 322.554 430.243V435.313C322.554 436.223 322.685 437.003 322.685 437.913C322.685 438.563 322.554 439.473 322.161 439.993L321.768 440.383C321.768 440.383 321.637 440.513 321.637 440.643C321.637 440.773 321.506 440.773 321.375 440.903C320.457 441.943 319.277 442.723 318.097 443.503C318.884 443.373 319.67 443.243 320.326 442.853C320.85 442.593 321.375 442.203 322.03 441.943C322.161 441.943 322.292 441.683 322.554 441.683C322.554 441.683 322.554 441.683 322.685 441.683C322.948 441.293 323.079 440.903 323.341 440.383C323.472 440.253 323.472 439.993 323.603 439.733C323.734 439.473 323.734 439.343 323.865 439.083C323.865 438.953 323.996 438.823 323.996 438.693C324.127 438.173 324.258 437.653 324.521 437.133C324.652 436.873 324.652 436.613 324.783 436.353C324.783 436.223 324.914 436.093 324.914 435.833C324.914 435.573 324.914 435.313 325.045 435.183C325.045 434.923 325.176 434.663 325.438 434.533C325.569 434.533 325.569 434.533 325.7 434.533L326.094 432.323Z" stroke="#362745" stroke-width="0.5" stroke-miterlimit="10"/>
<path d="M176.394 205.219C173.248 209.899 172.985 216.269 175.214 221.469C175.869 223.029 176.787 224.459 178.229 225.369C181.113 227.059 184.783 225.499 187.798 223.939C191.731 221.859 195.794 219.389 197.367 215.229C198.547 212.239 198.023 208.729 196.581 205.869C195.794 204.049 194.615 202.489 193.304 201.059C192.386 200.149 191.6 198.979 190.158 198.849C186.881 198.329 183.341 199.369 180.588 201.059C178.884 202.229 177.442 203.659 176.394 205.219Z" fill="#6B00FA" stroke="#362745" stroke-width="0.5" stroke-miterlimit="10"/>
<path d="M116.749 206.129C115.7 207.949 114.914 209.899 114.783 211.979C114.521 215.489 116.225 218.739 117.798 221.859C118.06 222.509 118.453 223.159 118.977 223.549C119.502 223.939 120.157 224.069 120.813 224.199C127.367 225.109 134.183 222.509 138.378 217.439C139.165 216.399 139.82 215.359 140.213 214.189C140.738 212.369 140.738 210.549 140.607 208.729C140.476 206.129 140.213 203.139 138.247 201.319C137.33 200.409 136.15 199.759 134.97 199.239C133.528 198.459 131.824 197.549 130.251 197.029C129.071 196.77 127.629 197.159 126.58 197.549C123.828 198.459 121.468 200.279 119.502 202.359C118.977 203.009 118.453 203.529 117.929 204.179C117.667 204.569 117.404 204.829 117.273 205.219C117.142 205.349 117.011 205.869 116.749 206.129Z" fill="#6B00FA" stroke="#362745" stroke-width="0.5" stroke-miterlimit="10"/>
<path d="M125.139 227.838C115.176 227.838 107.049 219.778 107.049 209.899C107.049 200.019 115.176 191.959 125.139 191.959C135.101 191.959 143.229 200.019 143.229 209.899C143.229 219.778 135.101 227.838 125.139 227.838ZM125.139 197.159C118.06 197.159 112.292 202.879 112.292 209.899C112.292 216.918 118.06 222.638 125.139 222.638C132.217 222.638 137.985 216.918 137.985 209.899C137.985 202.879 132.217 197.159 125.139 197.159Z" fill="#362745"/>
<path d="M183.34 229.137C173.377 229.137 165.25 221.077 165.25 211.197C165.25 201.318 173.377 193.258 183.34 193.258C193.302 193.258 201.43 201.318 201.43 211.197C201.43 221.077 193.302 229.137 183.34 229.137ZM183.34 198.458C176.261 198.458 170.493 204.178 170.493 211.197C170.493 218.217 176.261 223.937 183.34 223.937C190.419 223.937 196.186 218.217 196.186 211.197C196.186 204.178 190.419 198.458 183.34 198.458Z" fill="#362745"/>
<path d="M116.749 221.469C114.914 218.739 110.455 215.619 110.455 212.499C110.455 203.269 114.912 195.859 124.219 195.859C124.35 195.859 131.168 195.859 131.299 195.859C132.348 196.899 133.397 197.809 134.183 198.849C133.003 198.589 131.955 198.459 130.775 198.459C123.041 198.459 116.618 204.699 116.618 212.499C116.618 216.269 118.06 219.649 120.55 222.249L116.749 221.469Z" fill="#362745"/>
<path d="M179.146 223.809C177.835 223.679 170.755 220.955 169.445 220.695C167.609 217.965 169.444 207.826 169.444 204.446C169.444 195.606 180.194 196.516 188.977 195.996L191.599 199.89C190.812 199.76 189.895 199.63 188.977 199.63C181.243 199.63 174.82 205.87 174.82 213.67C174.951 217.7 176.524 221.21 179.146 223.809Z" fill="#362745"/>
</svg>
