<svg id="velodrome" width="24" height="24" viewBox="0 0 24 24" fill="none" xmlns="http://www.w3.org/2000/svg">
<path fill-rule="evenodd" clip-rule="evenodd" d="M21.9709 18.566C21.9557 18.5779 21.9404 18.5905 21.9245 18.6017C21.9092 18.6136 21.8933 18.6248 21.8773 18.6367C21.8476 18.6582 21.8171 18.6791 21.7859 18.6992C21.7823 18.7014 21.7786 18.7036 21.775 18.7066C21.7496 18.723 21.7242 18.7393 21.6981 18.755C21.6597 18.7788 21.6219 18.8011 21.5828 18.8234C21.3172 18.9752 21.0379 19.0972 20.7528 19.2051C20.4836 19.3062 20.2108 19.3948 19.9359 19.4736C19.5419 19.5867 19.1429 19.6805 18.7403 19.7623C18.3492 19.8426 17.9567 19.9103 17.5628 19.9691C17.1689 20.0279 16.7735 20.077 16.3773 20.1194C16.2475 20.1335 16.1176 20.1462 15.9878 20.1588C15.7273 20.1834 15.4669 20.2042 15.2064 20.2221C15.0758 20.231 14.9452 20.2392 14.8154 20.2466C14.523 20.2637 14.2306 20.2764 13.9382 20.2861C13.8853 20.2875 13.8323 20.2898 13.7786 20.2913C13.73 20.2928 13.6814 20.2942 13.6321 20.2957C13.7518 20.144 13.8715 19.9929 13.981 19.833C13.997 19.8129 14.013 19.7928 14.0282 19.772C14.2756 19.4312 14.5121 19.083 14.7385 18.7282C14.7617 18.7267 14.7849 18.7259 14.8074 18.7244C14.951 18.7163 15.0947 18.7066 15.2383 18.6969C15.3471 18.6895 15.456 18.6813 15.5648 18.6724C16.3258 18.6121 17.084 18.5258 17.8385 18.4045C18.0583 18.3696 18.2767 18.3309 18.4943 18.29C19.0036 18.1932 19.5086 18.0772 20.0063 17.9314C20.1158 17.8994 20.2246 17.8659 20.3335 17.8309C20.3879 17.8131 20.4423 17.7952 20.4967 17.7766C20.5787 17.7915 20.6534 17.8265 20.7303 17.8555C20.7978 17.8808 20.8652 17.9076 20.9327 17.9351C21.1235 18.0125 21.3107 18.098 21.4921 18.197C21.5639 18.2357 21.6343 18.2766 21.7039 18.3197C21.796 18.377 21.886 18.4373 21.9702 18.5065C21.9948 18.5265 22.0021 18.5347 21.9927 18.5466C21.9883 18.5526 21.981 18.5585 21.9694 18.5675L21.9709 18.566Z" fill="#F1ECE2"/>
<path fill-rule="evenodd" clip-rule="evenodd" d="M20.4987 17.7759C20.4443 17.7945 20.3906 17.8123 20.3355 17.8302C20.2267 17.8652 20.1178 17.8986 20.0083 17.9306C19.5099 18.0764 19.0056 18.1925 18.4964 18.2892C18.2787 18.3309 18.0596 18.3688 17.8405 18.4038C17.086 18.5251 16.3279 18.6114 15.5668 18.6716C15.458 18.6806 15.3492 18.6887 15.2403 18.6962C15.0967 18.7058 14.953 18.7155 14.8094 18.7237C14.7862 18.7252 14.7637 18.7259 14.7405 18.7274C14.8965 18.4827 15.0481 18.2349 15.1946 17.9834C15.4065 17.6204 15.6089 17.2521 15.8011 16.8786C16.1682 16.9114 16.5346 16.9493 16.901 16.9954C16.9278 16.9984 16.9547 17.0044 16.9822 17.0088C17.1462 17.0207 17.3087 17.046 17.4705 17.0706C17.6787 17.1018 17.8869 17.1361 18.0944 17.1718C18.3745 17.2201 18.6545 17.2737 18.9324 17.3354C19.0825 17.3689 19.232 17.4031 19.3822 17.4366C19.4061 17.45 19.4315 17.4552 19.4584 17.4582C19.779 17.5423 20.099 17.6308 20.4131 17.7372C20.4421 17.7469 20.4755 17.7498 20.498 17.7751L20.4987 17.7759Z" fill="#FDBF41"/>
<path fill-rule="evenodd" clip-rule="evenodd" d="M5.63899 23.1403L5.63794 23.1392L5.63899 23.1403Z" fill="#404A5A"/>
<path fill-rule="evenodd" clip-rule="evenodd" d="M5.51401 23.0611C5.52126 23.0664 5.52997 23.0702 5.53795 23.074C5.54375 23.077 5.54956 23.0793 5.55536 23.0823C5.56552 23.0876 5.57495 23.0944 5.58148 23.1042C5.58366 23.1073 5.58583 23.1118 5.58801 23.1164C5.55391 23.1133 5.52416 23.0989 5.49805 23.0762L5.51401 23.0611Z" fill="#404A5A"/>
<path fill-rule="evenodd" clip-rule="evenodd" d="M7.84051 21.9407C7.81221 21.9451 7.78392 21.9496 7.75635 21.9541C7.64753 21.9689 7.5387 21.9779 7.42915 21.9808C7.39288 21.9816 7.35588 21.9823 7.3196 21.9816C7.2826 21.9816 7.24633 21.9801 7.20933 21.9786C7.19337 21.9779 7.17813 21.9756 7.16217 21.9741C7.14694 21.9727 7.13098 21.9704 7.11502 21.9689C7.0947 21.9675 7.07947 21.9585 7.06423 21.9451C7.0207 21.905 6.97935 21.8633 6.93872 21.8201C7.23907 21.8648 7.53943 21.905 7.84051 21.9414V21.9407Z" fill="#F1ECE2"/>
<path fill-rule="evenodd" clip-rule="evenodd" d="M12.5661 16.7395C12.3499 16.7395 12.1337 16.7425 11.9175 16.7462C11.5577 17.3183 11.1696 17.8704 10.7459 18.3949C10.6566 18.505 10.5667 18.6136 10.4745 18.7207C10.2424 18.9923 10.0001 19.2542 9.74615 19.5041C9.52342 19.7229 9.29344 19.9319 9.0533 20.1283C8.86612 20.2823 8.67242 20.4289 8.47146 20.5651C8.10146 20.8165 7.71332 21.033 7.29543 21.1907C7.08359 21.2703 6.86739 21.3351 6.64394 21.373C6.63161 21.3752 6.62 21.3805 6.60767 21.3842C6.60839 21.3879 6.60984 21.3924 6.61057 21.3961C6.61129 21.3983 6.61202 21.4005 6.61347 21.4028C6.62943 21.4281 6.64539 21.4526 6.66208 21.4764C6.69545 21.5255 6.73027 21.5731 6.76582 21.6193C6.81951 21.6885 6.87682 21.7554 6.93704 21.8194C7.23739 21.864 7.53775 21.9042 7.83883 21.9407C7.91936 21.928 7.99916 21.9117 8.07824 21.8923C8.26179 21.8477 8.44026 21.7889 8.6151 21.7197C8.70216 21.6847 8.7885 21.6475 8.87338 21.6074C8.95826 21.5672 9.04242 21.5248 9.12585 21.4794C9.16213 21.4601 9.19767 21.44 9.23395 21.4199C9.48352 21.2793 9.72293 21.1216 9.95219 20.9519C10.1822 20.7816 10.4027 20.5985 10.6167 20.4066C10.6472 20.3791 10.6777 20.3515 10.7081 20.3233C10.7306 20.3024 10.7524 20.2816 10.7756 20.26C10.9127 20.1313 11.0477 19.9989 11.179 19.8635C11.2298 19.8107 11.2798 19.7578 11.3299 19.7035C11.4946 19.5265 11.6549 19.3457 11.8109 19.1604C11.9045 19.0496 11.9959 18.9365 12.0859 18.8227C12.0967 18.8093 12.1076 18.7951 12.1185 18.781C12.1802 18.7021 12.2411 18.6225 12.3021 18.5422C12.4929 18.2892 12.6764 18.0311 12.8534 17.7677C12.9492 17.6249 13.0428 17.4813 13.1349 17.3362C13.1864 17.2544 13.2372 17.1725 13.2873 17.0907C13.3562 16.9783 13.4237 16.8645 13.4904 16.7507C13.1821 16.7432 12.8745 16.7395 12.5661 16.7395Z" fill="#F1ECE2"/>
<path fill-rule="evenodd" clip-rule="evenodd" d="M10.7337 16.7849C10.5792 16.7923 10.4246 16.8013 10.2708 16.8109C10.1018 17.0565 9.92695 17.2982 9.74413 17.5341C9.56493 17.7662 9.38138 17.9939 9.1884 18.2148C9.07885 18.3398 8.96858 18.4641 8.8554 18.5861C8.77559 18.6724 8.69434 18.7579 8.61091 18.8413C8.27936 19.1738 7.93185 19.4878 7.55822 19.7712C7.49583 19.8181 7.43343 19.8642 7.36959 19.9096C7.15992 20.0592 6.943 20.1975 6.71737 20.3218C6.55414 20.4125 6.38582 20.4929 6.21533 20.5665C6.21678 20.5747 6.21533 20.5837 6.21896 20.5918C6.2429 20.6595 6.26829 20.7258 6.29586 20.792C6.3227 20.8582 6.35172 20.9229 6.38219 20.9869C6.44314 21.1149 6.51133 21.2398 6.58533 21.3619L6.58678 21.3633C6.59186 21.3708 6.60057 21.3775 6.6071 21.3842C6.61943 21.3805 6.63104 21.3752 6.64337 21.373C6.8661 21.3351 7.0823 21.2703 7.29486 21.1907C7.71275 21.0338 8.10089 20.8165 8.47089 20.5651C8.67185 20.4289 8.86556 20.2823 9.05273 20.1283C9.29287 19.9312 9.52285 19.7221 9.74558 19.5041C10.0002 19.2542 10.2418 18.9923 10.474 18.7207C10.5661 18.6136 10.6561 18.505 10.7453 18.3949C11.169 17.8704 11.5571 17.3183 11.917 16.7462C11.5223 16.7537 11.1269 16.7656 10.733 16.7856L10.7337 16.7849Z" fill="#FDBF41"/>
<path fill-rule="evenodd" clip-rule="evenodd" d="M7.23761 18.3636C7.25357 18.3666 7.26881 18.3688 7.28404 18.3718C6.98151 18.6716 6.66375 18.9529 6.32494 19.2103C6.20161 19.304 6.07827 19.3978 5.94478 19.4774C5.92012 19.368 5.90923 19.2564 5.8969 19.1448C5.85482 18.7892 5.83886 18.4321 5.83813 18.075C5.92229 18.0958 6.00645 18.1159 6.09133 18.136C6.33872 18.194 6.58684 18.2453 6.83569 18.2922C6.9699 18.3175 7.10412 18.3413 7.23834 18.3644L7.23761 18.3636Z" fill="#F1ECE2"/>
<path fill-rule="evenodd" clip-rule="evenodd" d="M8.62335 16.956C8.5878 16.9605 8.55153 16.9634 8.51525 16.9672C8.15831 17.4329 7.77743 17.8771 7.36389 18.2929C7.33778 18.3197 7.31093 18.3458 7.28482 18.3718C7.29715 18.374 7.30948 18.3763 7.32109 18.3785C7.30876 18.3763 7.29715 18.374 7.28482 18.3725C6.98229 18.6724 6.66452 18.9536 6.32571 19.211C6.20238 19.3047 6.07905 19.3985 5.94556 19.4781C5.94701 19.493 5.94773 19.5086 5.94918 19.5235C5.94918 19.5279 5.94918 19.5317 5.95064 19.5361C5.95354 19.5532 5.95716 19.5703 5.96007 19.5875C5.96224 19.6016 5.96442 19.615 5.96732 19.6291C5.97385 19.6633 5.98038 19.6983 5.98691 19.7333C6.02536 19.9297 6.07107 20.1239 6.12838 20.3151C6.1545 20.4006 6.17554 20.4884 6.21762 20.5688C6.38811 20.4951 6.55642 20.4148 6.71966 20.324C6.94529 20.199 7.16221 20.0606 7.37187 19.9118C7.43572 19.8672 7.49811 19.8211 7.5605 19.7735C7.93413 19.4907 8.28164 19.176 8.61319 18.8435C8.69662 18.7602 8.77715 18.6746 8.85768 18.5883C8.97086 18.4663 9.08114 18.342 9.19068 18.2171C9.38294 17.9961 9.56722 17.7684 9.74641 17.5363C9.92851 17.2997 10.1041 17.0587 10.2731 16.8132C9.7232 16.8474 9.174 16.895 8.62553 16.9575L8.62335 16.956Z" fill="#FF1100"/>
<path fill-rule="evenodd" clip-rule="evenodd" d="M6.83496 18.2915C6.96918 18.3168 7.10339 18.3406 7.23761 18.3636C7.10339 18.3406 6.96845 18.3168 6.83496 18.2915Z" fill="#FF1100"/>
<path fill-rule="evenodd" clip-rule="evenodd" d="M8.27942 17.0014C8.35704 16.9843 8.43612 16.9754 8.5152 16.9672C8.15826 17.4329 7.77738 17.8771 7.36385 18.2929C7.33773 18.3197 7.31088 18.3458 7.28477 18.3718L7.23834 18.3644C7.10412 18.3413 6.9699 18.3175 6.83569 18.2922C6.58684 18.2453 6.338 18.194 6.09133 18.136C6.00717 18.1159 5.92229 18.0958 5.83813 18.075C5.83813 17.9403 5.83959 17.8049 5.84321 17.6695C5.84539 17.5891 5.84902 17.5095 5.85337 17.4299C6.13994 17.36 6.42869 17.2982 6.71816 17.2417C7.21294 17.1457 7.71063 17.0676 8.20977 17.0044C8.21775 17.0036 8.22573 17.0021 8.23371 17.0014C8.24314 16.9999 8.25257 16.9992 8.26201 16.9999C8.26781 16.9999 8.27361 17.0014 8.27942 17.0029V17.0014Z" fill="#FDBF41"/>
<path fill-rule="evenodd" clip-rule="evenodd" d="M17.105 10.499C17.3937 10.5355 17.6832 10.5712 17.9719 10.6077C17.9705 10.6106 17.9683 10.6136 17.9654 10.6166C17.7862 10.5943 17.6063 10.5727 17.4271 10.5489C17.3749 10.5422 17.3226 10.5377 17.2704 10.5318C17.2182 10.5258 17.1659 10.5199 17.1144 10.5094C17.1115 10.5057 17.1086 10.5028 17.105 10.4998V10.499Z" fill="#007FFF"/>
<path fill-rule="evenodd" clip-rule="evenodd" d="M23.99 17.3704V16.1481C23.9646 16.0342 23.9297 15.9234 23.8681 15.8237C23.7687 15.663 23.6504 15.5194 23.5024 15.4018C23.3479 15.2791 23.1897 15.1638 23.0192 15.0656C22.7849 14.9309 22.5411 14.8171 22.2967 14.7047C22.2531 14.6846 22.2081 14.675 22.1646 14.6571C21.6118 14.4354 21.043 14.2688 20.467 14.1252C20.0984 14.0329 19.727 13.9541 19.3541 13.8826C18.9354 13.8023 18.5147 13.7331 18.0932 13.6736C17.8022 13.6327 17.5113 13.5955 17.2197 13.562C17.0898 13.5471 16.9599 13.533 16.8301 13.5196C16.463 13.4831 16.0951 13.4489 15.7273 13.4221C15.5104 13.4057 15.2927 13.3916 15.0758 13.379C14.8916 13.3685 14.7066 13.3589 14.5216 13.3499C14.2306 13.3366 13.9404 13.3261 13.6495 13.3194C13.6285 13.3194 13.6074 13.318 13.5864 13.318C13.1272 13.3075 12.6672 13.3046 12.208 13.309H12.1855C11.7124 13.3135 11.2394 13.3247 10.7671 13.3447C10.7388 13.3455 10.7105 13.3477 10.6822 13.3485C10.1229 13.373 9.56499 13.4087 9.00708 13.4571C8.188 13.5278 7.37182 13.6237 6.56 13.7547C6.54041 13.7577 6.52154 13.7614 6.50196 13.7643C6.47076 13.8774 6.44247 13.992 6.40329 14.1029C6.37572 14.2159 6.34815 14.329 6.31986 14.4414C6.24513 14.7412 6.17766 15.0425 6.1189 15.346C6.16025 15.3386 6.2016 15.3319 6.24296 15.3245C6.29737 15.3148 6.35178 15.3059 6.40547 15.2962L6.64705 15.256C6.93798 15.2099 7.23035 15.1682 7.522 15.1303C7.81437 15.0923 8.10675 15.0589 8.39985 15.0291C8.595 15.009 8.79089 14.9904 8.98677 14.9733C9.28277 14.948 9.5795 14.9264 9.87622 14.9071C10.1555 14.8892 10.4349 14.8751 10.7142 14.8632C10.786 14.8602 10.8578 14.8565 10.9296 14.8535C11.0363 14.8491 11.1437 14.8461 11.2503 14.8424C11.3192 14.8401 11.3881 14.8387 11.4578 14.8372C11.7095 14.8305 11.9613 14.8267 12.213 14.8245C12.3081 14.8245 12.4024 14.823 12.4974 14.823C12.6599 14.823 12.8224 14.823 12.9842 14.8245C13.043 14.8245 13.1018 14.8253 13.1605 14.8267L13.3499 14.829C13.5218 14.832 13.693 14.8364 13.865 14.8416C14.0369 14.8468 14.2081 14.8535 14.3801 14.8602C14.4084 14.861 14.4367 14.8632 14.465 14.8639C14.6492 14.8721 14.8335 14.8818 15.0171 14.8915C15.1585 14.8997 15.3 14.9086 15.4415 14.9175C15.6533 14.9316 15.8659 14.9473 16.0777 14.9651C16.2729 14.9815 16.468 15.0001 16.6639 15.0202C16.6705 15.0202 16.6777 15.0217 16.6842 15.0224C16.8243 15.0365 16.9643 15.0507 17.1043 15.0656C17.3285 15.0886 17.5527 15.1162 17.7768 15.1467C18.0003 15.1772 18.2237 15.2099 18.4472 15.2441C18.5401 15.2583 18.6329 15.2731 18.7251 15.288C19.0029 15.3341 19.2801 15.3847 19.5557 15.4405C19.7183 15.4733 19.88 15.5075 20.0418 15.5432C20.2036 15.5789 20.3647 15.6176 20.5257 15.6578C20.7702 15.7195 21.0133 15.7857 21.2534 15.8579C21.5741 15.9546 21.8918 16.0632 22.2031 16.1905C22.2814 16.2217 22.3583 16.2552 22.4359 16.2887C22.5535 16.3407 22.6688 16.398 22.7835 16.4561C22.8118 16.4702 22.84 16.4843 22.8683 16.4992C22.8901 16.5104 22.9126 16.5215 22.9344 16.5327C22.9634 16.5476 22.9924 16.5624 23.0207 16.5788C23.057 16.5989 23.0925 16.6205 23.1259 16.6443C23.255 16.7358 23.3878 16.8221 23.5075 16.9263C23.5351 16.9508 23.5619 16.9754 23.588 17.0014C23.6192 17.0282 23.649 17.0572 23.6773 17.0862C23.7244 17.1346 23.768 17.1866 23.8064 17.241C23.8253 17.2677 23.8427 17.2953 23.8594 17.3235C23.8739 17.3481 23.8869 17.3726 23.8993 17.3979C23.9116 17.4232 23.9232 17.4493 23.9334 17.4768C23.9443 17.5036 23.9537 17.5311 23.9624 17.5586C23.9682 17.578 23.9747 17.5981 23.9805 17.6174C23.9863 17.6368 23.9805 17.6189 23.9813 17.6196V17.6174C23.9965 17.5348 23.9871 17.4515 23.9878 17.3682L23.99 17.3704Z" fill="#F1ECE2"/>
<path fill-rule="evenodd" clip-rule="evenodd" d="M23.9943 15.9874C23.995 15.6786 23.995 15.3706 23.9943 15.0619C23.9943 14.9198 23.9928 14.7769 23.9921 14.6348C23.9682 14.5545 23.9515 14.4719 23.9159 14.3952C23.8252 14.2026 23.6896 14.0478 23.5329 13.9094C23.3617 13.7577 23.1723 13.6319 22.9735 13.5211C22.6855 13.3589 22.3866 13.2205 22.0783 13.1037C21.7213 12.9683 21.3593 12.8485 20.9922 12.7458C20.7114 12.6677 20.4292 12.5956 20.1463 12.5293C19.8234 12.4542 19.4991 12.388 19.1734 12.3292C18.8353 12.269 18.4958 12.2109 18.1555 12.1626C17.9945 12.1395 17.8327 12.1179 17.6709 12.0971C17.3096 12.0495 16.9476 12.0078 16.5848 11.9751C16.5174 11.9684 16.4506 11.9587 16.3831 11.9535C16.1089 11.9319 15.8347 11.9111 15.5612 11.891C15.522 11.888 15.4828 11.8851 15.4436 11.8821C15.2608 11.8687 15.078 11.8553 14.8952 11.8456C14.6572 11.8337 14.4192 11.8248 14.1813 11.8159H14.1747C13.9259 11.8069 13.6778 11.7973 13.4289 11.7928C13.2098 11.7891 12.9907 11.7869 12.7709 11.7861C12.6744 11.7861 12.5779 11.7854 12.4807 11.7854C12.0962 11.7854 11.7124 11.7913 11.3286 11.8025H11.3119C10.8614 11.8159 10.4102 11.8345 9.96036 11.8642C9.6143 11.8866 9.26824 11.9066 8.9229 11.9364C8.78288 11.9483 8.64359 11.9662 8.50429 11.9803C8.01749 12.0301 7.53213 12.0882 7.04823 12.1581C7.04242 12.1588 7.03735 12.1596 7.03154 12.1603C6.83784 12.6744 6.66372 13.1952 6.51064 13.7242C6.50701 13.7376 6.50338 13.7502 6.49976 13.7636C6.51862 13.7606 6.53821 13.7569 6.5578 13.7539C7.36962 13.623 8.1858 13.5263 9.00488 13.4563C9.56278 13.4087 10.1207 13.3723 10.68 13.3477C10.7083 13.3462 10.7366 13.3447 10.7649 13.344C11.2372 13.3239 11.7102 13.3128 12.1833 13.3083H12.2058C12.6657 13.3046 13.125 13.3075 13.5842 13.3172C13.6052 13.3172 13.6263 13.3187 13.6473 13.3187C13.9382 13.3254 14.2284 13.3358 14.5194 13.3492C14.7044 13.3581 14.8886 13.3678 15.0736 13.3782C15.2905 13.3909 15.5082 13.405 15.7251 13.4214C16.0929 13.4489 16.4608 13.4824 16.8279 13.5188C16.9577 13.5322 17.0876 13.5464 17.2175 13.5612C17.5091 13.5947 17.8 13.6319 18.0909 13.6728C18.5125 13.7324 18.9332 13.8016 19.3519 13.8819C19.7248 13.9533 20.0962 14.0322 20.4648 14.1244C21.0408 14.268 21.6096 14.4347 22.1624 14.6564C22.2059 14.6742 22.2509 14.6839 22.2945 14.704C22.5389 14.8171 22.7827 14.9302 23.017 15.0648C23.1875 15.163 23.3457 15.2783 23.5002 15.4011C23.6482 15.5187 23.7665 15.6622 23.8659 15.8229C23.9275 15.9226 23.9616 16.0335 23.9878 16.1473C23.9979 16.0937 23.9921 16.0394 23.9921 15.9859L23.9943 15.9874Z" fill="#FDBF41"/>
<path fill-rule="evenodd" clip-rule="evenodd" d="M15.4655 4.32326C15.6657 4.64391 15.8108 4.99061 15.9203 5.35367C15.9544 5.46601 15.9849 5.57909 16.0125 5.69292C16.0582 5.88264 16.0937 6.07533 16.122 6.26876C16.13 6.3253 16.138 6.38184 16.1453 6.43913C16.159 6.55296 16.1714 6.66679 16.1815 6.78062C16.1859 6.8379 16.1902 6.89445 16.1946 6.95173C16.2149 7.26272 16.2236 7.5737 16.2156 7.88543C16.2069 8.21129 16.1881 8.53715 16.1561 8.86227C16.1242 9.18516 16.0807 9.50656 16.0284 9.82572C15.9973 10.0177 15.9624 10.2089 15.9247 10.3986C15.6243 10.374 15.324 10.3532 15.0229 10.3383C14.8785 10.3316 14.7334 10.3234 14.5883 10.316C14.6863 9.8845 14.769 9.45001 14.8336 9.01107C14.9047 8.52525 14.9554 8.03794 14.9743 7.54766C14.9895 7.13103 14.9874 6.71366 14.9547 6.29703C14.9272 5.94959 14.8814 5.60588 14.8089 5.26513C14.7269 4.88198 14.6116 4.51 14.4461 4.15512C14.3809 4.01451 14.304 3.87985 14.2271 3.74593C14.2902 3.7251 14.3562 3.72287 14.4208 3.71617C14.4549 3.71245 14.489 3.70947 14.5223 3.70724C14.5513 3.70575 14.5804 3.70427 14.6094 3.70352C14.6565 3.70278 14.7037 3.70278 14.7509 3.70352C14.7835 3.70427 14.8169 3.70575 14.8495 3.70724C14.8749 3.70873 14.9003 3.71022 14.9257 3.71245C14.9301 3.71245 14.9344 3.71319 14.938 3.71394C14.946 3.71543 14.9533 3.71766 14.9605 3.72063C14.9678 3.72361 14.9743 3.72733 14.9808 3.73179C14.9903 3.73775 14.9997 3.74593 15.0084 3.75411C15.0309 3.77494 15.0527 3.79652 15.0737 3.8181C15.1165 3.86125 15.1579 3.90663 15.197 3.95276C15.2964 4.06807 15.3857 4.19083 15.4676 4.32177L15.4655 4.32326Z" fill="#F1ECE2"/>
<path fill-rule="evenodd" clip-rule="evenodd" d="M14.8067 5.26513C14.8792 5.60513 14.9249 5.94959 14.9525 6.29703C14.9859 6.71366 14.988 7.13103 14.9721 7.54766C14.9539 8.03794 14.9032 8.52524 14.8313 9.01106C14.7668 9.45001 14.6841 9.88524 14.5861 10.316C14.4766 10.3108 14.3663 10.3048 14.2567 10.3004C14.0057 10.2907 13.7554 10.2848 13.5044 10.2795C13.4108 10.2773 13.3172 10.2758 13.2244 10.2743C13.3158 9.92095 13.3963 9.56458 13.4652 9.20598C13.5175 8.93741 13.5624 8.66734 13.6023 8.39654C13.6285 8.215 13.6517 8.03347 13.672 7.8512C13.693 7.66074 13.7097 7.46954 13.7213 7.27759C13.7337 7.073 13.7416 6.86766 13.746 6.66307C13.7511 6.38854 13.7424 6.11475 13.7228 5.84097C13.7097 5.66018 13.693 5.48014 13.6705 5.3001C13.6401 5.05384 13.5965 4.81056 13.5392 4.56951C13.4935 4.37682 13.4413 4.18487 13.3716 3.99888C13.4195 3.96763 13.4747 3.95201 13.5276 3.93192C13.635 3.891 13.7431 3.85529 13.8534 3.82404C13.9636 3.79354 14.0746 3.7675 14.1878 3.74816C14.1958 3.74667 14.2031 3.74444 14.211 3.74444C14.2161 3.74444 14.2205 3.74444 14.2248 3.74593C14.3017 3.87984 14.3786 4.01376 14.4439 4.15511C14.6093 4.50999 14.7247 4.88198 14.8067 5.26513Z" fill="#FDBF41"/>
<path fill-rule="evenodd" clip-rule="evenodd" d="M23.9885 19.0868C23.9892 19.0674 23.9906 19.0481 23.9906 19.0287C23.9906 18.7103 23.9914 18.3911 23.9914 18.0727C23.9914 17.9351 23.9892 17.7975 23.9885 17.6598C23.9885 17.6516 23.9921 17.6427 23.9914 17.6345C23.9892 17.6293 23.9863 17.6256 23.9841 17.6211V17.6226C23.9841 17.6219 23.9841 17.6211 23.9834 17.6204C23.9776 17.6003 23.971 17.581 23.9652 17.5609C23.9565 17.5326 23.9464 17.5051 23.9362 17.479C23.9261 17.4522 23.9145 17.4262 23.9021 17.4002C23.8898 17.3749 23.876 17.3496 23.8622 17.3258C23.8455 17.2975 23.8281 17.27 23.8093 17.2432C23.7708 17.1881 23.728 17.1368 23.6801 17.0884C23.6518 17.0594 23.6221 17.0312 23.5909 17.0036C23.5648 16.9768 23.5379 16.9523 23.5104 16.9285C23.3906 16.8243 23.2579 16.738 23.1287 16.6465C23.0946 16.6227 23.0591 16.6011 23.0235 16.581C22.9953 16.5654 22.9662 16.5498 22.9372 16.5349C22.9154 16.5238 22.893 16.5126 22.8712 16.5014C22.8429 16.4866 22.8146 16.4724 22.7863 16.4583C22.6717 16.4003 22.5563 16.343 22.4388 16.2909C22.3612 16.2574 22.2843 16.2239 22.2059 16.1927C21.894 16.0662 21.5769 15.9569 21.2562 15.8601C21.0154 15.7872 20.7723 15.721 20.5286 15.66C20.3675 15.6198 20.2065 15.5811 20.0447 15.5454C19.8829 15.5097 19.7211 15.4755 19.5586 15.4428C19.2822 15.387 19.005 15.3356 18.7279 15.2902C18.635 15.2754 18.5429 15.2605 18.45 15.2464C18.2266 15.2121 18.0039 15.1794 17.7797 15.1489C17.5562 15.1184 17.3321 15.0909 17.1072 15.0678C16.9671 15.0537 16.8271 15.0388 16.6871 15.0246C16.6806 15.0246 16.6733 15.0232 16.6668 15.0224C16.4716 15.0023 16.2765 14.9837 16.0806 14.9674C15.8687 14.9495 15.6562 14.9346 15.4443 14.9197C15.3029 14.9101 15.1614 14.9011 15.0199 14.8937C14.8356 14.8833 14.6514 14.8736 14.4678 14.8662C14.4395 14.8647 14.4112 14.8632 14.3829 14.8625C14.211 14.855 14.0398 14.8491 13.8678 14.8439C13.6959 14.8386 13.5247 14.8342 13.3527 14.8312L13.1634 14.829L12.9871 14.8267C12.8246 14.8253 12.6621 14.8245 12.5003 14.8253C12.4052 14.8253 12.3102 14.826 12.2159 14.8267C11.9641 14.829 11.7124 14.8327 11.4606 14.8394C11.3917 14.8409 11.3228 14.8431 11.2532 14.8446C11.1465 14.8476 11.0391 14.8513 10.9325 14.8558C10.8607 14.8587 10.7888 14.8625 10.717 14.8654C10.4377 14.8773 10.1584 14.8922 9.87908 14.9093C9.58235 14.9287 9.28562 14.9495 8.98962 14.9755C8.79374 14.9927 8.59786 15.0113 8.4027 15.0313C8.1096 15.0611 7.81723 15.0946 7.52485 15.1325C7.23248 15.1705 6.94083 15.2121 6.64991 15.2583C6.56938 15.2709 6.48885 15.2843 6.40832 15.2984C6.35391 15.3074 6.30022 15.317 6.24581 15.3267C6.20446 15.3341 6.1631 15.3408 6.12175 15.3483C6.18052 15.0447 6.24799 14.7434 6.32271 14.4436C6.35101 14.3305 6.37857 14.2182 6.40614 14.1051C6.44532 13.9942 6.47361 13.8797 6.50481 13.7666C6.50844 13.7532 6.51207 13.7405 6.51569 13.7271C6.66877 13.1982 6.84289 12.6766 7.0366 12.1633C7.1592 11.8374 7.28979 11.5146 7.42836 11.1946C7.52123 10.9804 7.61772 10.7669 7.71711 10.5563C8.04576 9.8592 8.41068 9.18144 8.8155 8.52599C9.19349 7.91147 9.60484 7.32223 10.0554 6.76127C10.0648 6.75012 10.0721 6.73672 10.0808 6.72482C10.2164 6.56561 10.3499 6.40491 10.4885 6.24793C10.9397 5.73533 11.4258 5.26067 11.9641 4.84479C12.0969 4.74212 12.234 4.6454 12.3697 4.54645C12.382 4.53752 12.3973 4.53604 12.4118 4.53529C12.4183 4.5152 12.4364 4.50628 12.4517 4.4966C12.7295 4.31433 13.0183 4.15214 13.3223 4.0212C13.3331 4.01674 13.3433 4.01079 13.3549 4.00707C13.3578 4.00632 13.3614 4.00558 13.3651 4.00483C13.3687 4.00483 13.3723 4.00335 13.3759 4.00335C13.4238 3.9721 13.479 3.95648 13.5319 3.93639C13.6393 3.89547 13.7474 3.85976 13.8577 3.82851C13.968 3.79801 14.079 3.77197 14.1921 3.75263C14.2001 3.75114 14.2074 3.74891 14.2153 3.74891C14.2204 3.74891 14.2248 3.74891 14.2291 3.75039C14.2922 3.72956 14.3583 3.72733 14.4228 3.72064C14.4569 3.71692 14.491 3.71394 14.5244 3.71171C14.5534 3.71022 14.5824 3.70873 14.6115 3.70799C14.6586 3.70724 14.7058 3.70724 14.7529 3.70799C14.7856 3.70873 14.819 3.71022 14.8516 3.71171C14.877 3.7132 14.9024 3.71468 14.9278 3.71692C14.9321 3.71692 14.9365 3.71766 14.9401 3.7184C14.9481 3.71989 14.9553 3.72212 14.9626 3.7251C14.9699 3.72807 14.9764 3.73179 14.9829 3.73626C14.9923 3.74221 15.0018 3.75039 15.0105 3.75858C15.033 3.77941 15.0547 3.80098 15.0758 3.82256C15.1186 3.86571 15.1599 3.91109 15.1991 3.95722C15.2985 4.07254 15.3877 4.19529 15.4697 4.32623C15.67 4.64689 15.8151 4.99358 15.9246 5.35664C15.9587 5.46898 15.9892 5.58207 16.0167 5.6959C16.0624 5.88561 16.098 6.0783 16.1263 6.27174C16.1343 6.32828 16.1423 6.38482 16.1495 6.44211C16.1633 6.55594 16.1756 6.66977 16.1858 6.78359C16.1901 6.84088 16.1945 6.89742 16.1988 6.95471C16.2192 7.26569 16.2279 7.57668 16.2199 7.8884C16.2112 8.21427 16.1923 8.54013 16.1604 8.86525C16.1285 9.18813 16.0849 9.50953 16.0327 9.8287C16.0015 10.0206 15.9667 10.2118 15.929 10.4016C15.9776 10.4053 16.0262 10.409 16.0748 10.4135C16.4237 10.4432 16.772 10.4789 17.1202 10.5117C17.1173 10.508 17.1144 10.505 17.1108 10.502C17.3995 10.5385 17.689 10.5742 17.9777 10.6106C17.9763 10.6136 17.9741 10.6166 17.9712 10.6195C17.9886 10.6218 18.006 10.6248 18.0235 10.627C18.0815 10.3339 18.1337 10.0407 18.178 9.74537C18.2172 9.48052 18.252 9.21492 18.2788 8.94857C18.3042 8.69934 18.3267 8.45011 18.3383 8.19939C18.3441 8.07886 18.3507 7.95759 18.3579 7.83707C18.3586 7.82144 18.3507 7.80061 18.3746 7.79392C18.3746 7.56924 18.3731 7.34381 18.3724 7.11913C18.3608 7.11392 18.3601 7.10351 18.3586 7.09235C18.3557 7.04696 18.3507 7.00232 18.3492 6.95694C18.3405 6.63033 18.3115 6.30596 18.2687 5.98307C18.2215 5.62522 18.1519 5.27257 18.0554 4.92514C18.0314 4.83809 18.0111 4.7503 17.9734 4.66772L17.9654 4.63796C17.9654 4.63796 17.9625 4.63573 17.9625 4.63424V4.63126C17.9603 4.62085 17.9589 4.61043 17.9553 4.60002C17.8152 4.18562 17.6324 3.7928 17.3807 3.43569C17.1384 3.09123 16.846 2.80331 16.4854 2.58904C16.3505 2.50869 16.2039 2.45215 16.0653 2.37999C16.053 2.37329 16.0371 2.37478 16.0225 2.3718C16.0102 2.35543 15.9906 2.35097 15.9739 2.34279C15.6467 2.19399 15.3203 2.0452 14.9923 1.89789C14.9503 1.87854 14.9118 1.85027 14.8647 1.84432C14.8567 1.84135 14.8487 1.83911 14.8407 1.83614C14.7849 1.81754 14.7275 1.80415 14.6739 1.77811C14.6688 1.77662 14.6644 1.77513 14.6593 1.7729C14.6572 1.77216 14.6543 1.77141 14.6521 1.77067H14.6506C14.6448 1.77439 14.6412 1.77141 14.6376 1.7662C14.5324 1.73868 14.4272 1.71785 14.3205 1.70297C14.2436 1.69181 14.1667 1.68362 14.0891 1.67916C14.063 1.67767 14.0376 1.67693 14.0115 1.67618C13.9339 1.67395 13.857 1.67469 13.78 1.67841C13.6778 1.68288 13.5762 1.69255 13.4746 1.70669C13.2976 1.73198 13.122 1.76992 12.9479 1.81903C12.9232 1.82647 12.8979 1.83316 12.8732 1.84135C12.546 1.94104 12.234 2.0757 11.9329 2.23491C11.8328 2.28773 11.7334 2.34353 11.6348 2.40231C11.5448 2.45513 11.4563 2.50944 11.3685 2.56672C11.3395 2.58532 11.3105 2.60467 11.2815 2.62401C11.2524 2.64335 11.2234 2.6627 11.1951 2.68279C11.1378 2.72222 11.0812 2.76239 11.0254 2.80405C10.9978 2.82489 10.9695 2.84572 10.9419 2.86655V2.8725C10.9419 2.87399 10.9405 2.87548 10.9397 2.87696C10.9376 2.8792 10.9347 2.87994 10.9303 2.87994H10.9296V2.88366C10.9296 2.88664 10.9281 2.88812 10.9267 2.88887C10.9252 2.88961 10.9238 2.88961 10.9209 2.88887C10.9202 2.88887 10.9187 2.88887 10.918 2.88738C10.7946 2.97591 10.6749 3.06817 10.5581 3.16414C10.5059 3.20655 10.4544 3.25044 10.4036 3.29434C10.3956 3.30103 10.3876 3.30847 10.3797 3.31517C10.3274 3.36055 10.2752 3.40668 10.2237 3.45355V3.45727C10.2237 3.46099 10.2222 3.46322 10.2201 3.46545C10.2201 3.46545 10.2186 3.46619 10.2179 3.46694C10.2164 3.46768 10.2143 3.46843 10.2121 3.46843C10.2106 3.4714 10.2085 3.47438 10.2063 3.47661C10.2034 3.47959 10.2012 3.48256 10.1976 3.48479C10.1932 3.48777 10.1881 3.49075 10.1823 3.49149C10.1823 3.49819 10.1809 3.50191 10.178 3.50339C10.1736 3.50637 10.1656 3.50414 10.1598 3.50488C10.1403 3.52571 10.1199 3.54654 10.1004 3.56663C10.0989 3.56812 10.0982 3.56961 10.0967 3.57035V3.57333C10.0967 3.5763 10.0953 3.57779 10.0938 3.58002H10.0931C10.0931 3.58002 10.0887 3.58226 10.0844 3.58226C10.067 3.59713 10.0481 3.61053 10.0314 3.62615C10.03 3.62764 10.0285 3.62838 10.0271 3.62987C9.96323 3.69162 9.89866 3.75337 9.83555 3.81661C9.83119 3.82107 9.82684 3.82479 9.82321 3.82851C9.80363 3.8486 9.78331 3.8672 9.763 3.88654C9.71221 3.9349 9.65998 3.98177 9.61137 4.03236C9.58525 4.05989 9.55841 4.08742 9.53229 4.1142C9.38139 4.27118 9.23194 4.42965 9.08756 4.59332C8.90329 4.80238 8.72409 5.01516 8.54997 5.2324C8.52531 5.26365 8.49992 5.29415 8.47525 5.3254C8.47162 5.32986 8.46727 5.33507 8.46437 5.34028C8.45929 5.34772 8.45421 5.35516 8.44913 5.36334C8.4426 5.37376 8.43607 5.38417 8.42954 5.39384C8.42446 5.40128 8.41939 5.40798 8.41358 5.41542C8.41141 5.41765 8.40995 5.41988 8.4085 5.42137C8.40052 5.4303 8.39254 5.43848 8.38311 5.44518C8.38311 5.44741 8.38239 5.44815 8.38166 5.44964C8.38166 5.45113 8.38166 5.45262 8.38021 5.4541C8.38021 5.45485 8.37876 5.45559 8.37803 5.45634C8.37658 5.45708 8.3744 5.45782 8.37295 5.45857C8.3686 5.4794 8.35191 5.48982 8.33813 5.50321C8.3374 5.50321 8.33668 5.5047 8.33595 5.50544C8.3316 5.50916 8.3287 5.51362 8.3258 5.51809C8.32435 5.52032 8.3229 5.52255 8.32217 5.52553C8.32144 5.5285 8.31999 5.53073 8.31927 5.53371V5.53743C8.31927 5.54115 8.31782 5.54338 8.31491 5.54561C8.31491 5.54561 8.31346 5.54561 8.31346 5.54636H8.31056H8.30766C8.27574 5.58728 8.24309 5.6282 8.21117 5.66911C8.20972 5.67135 8.20754 5.67358 8.20609 5.67581C8.20682 5.68102 8.20682 5.68548 8.20609 5.68995C8.20609 5.69367 8.20391 5.6959 8.20246 5.69887C8.20246 5.69962 8.20101 5.70111 8.20101 5.70185C8.19884 5.70408 8.19593 5.70706 8.19303 5.70855C8.1894 5.71078 8.18505 5.71227 8.1807 5.71375C8.17562 5.71971 8.17054 5.72491 8.16546 5.73087C8.16329 5.7331 8.16184 5.73533 8.16038 5.73682C8.15603 5.74128 8.1524 5.74649 8.14878 5.75095C8.0668 5.86404 7.98482 5.97787 7.90283 6.09095C7.90283 6.09467 7.90138 6.0969 7.89921 6.09913C7.89921 6.09913 7.89848 6.09988 7.89776 6.10062C7.89631 6.10211 7.89413 6.10285 7.89195 6.10285C7.83536 6.18469 7.77732 6.26579 7.72146 6.34837C7.71058 6.36473 7.6997 6.3811 7.68881 6.39747C7.60538 6.5232 7.52703 6.65265 7.44287 6.77764C7.40079 6.84014 7.36089 6.90412 7.32099 6.96736C7.28036 7.03059 7.23973 7.09383 7.19548 7.15558C7.12511 7.25453 7.06489 7.36241 7.00322 7.46731C6.97638 7.51269 6.94954 7.55808 6.92342 7.60346C6.62524 8.11085 6.33577 8.62345 6.0891 9.15986C6.07459 9.19111 6.05791 9.22012 6.04122 9.24988C6.02453 9.2789 6.00712 9.30866 5.99261 9.33842C5.90846 9.51176 5.82648 9.68585 5.74667 9.86143C5.71693 9.9269 5.68791 9.99237 5.65816 10.0586C5.61971 10.1441 5.58198 10.2304 5.54498 10.3167C5.49783 10.4261 5.45067 10.5362 5.40424 10.6471C5.38465 10.6932 5.36579 10.7401 5.34692 10.7869C5.32298 10.845 5.29904 10.903 5.27583 10.9618C5.19312 11.1679 5.11332 11.3762 5.03569 11.5845C5.0132 11.6455 4.99071 11.7065 4.96894 11.7683C4.91598 11.917 4.86447 12.0658 4.81296 12.2154C4.80063 12.2511 4.7883 12.2868 4.77596 12.3225C4.76653 12.35 4.7571 12.3783 4.74839 12.4066C4.72445 12.4773 4.70196 12.5487 4.6802 12.6201C4.65335 12.7072 4.62724 12.7942 4.60112 12.8812C4.58226 12.9437 4.56339 13.0055 4.5438 13.068C4.49955 13.2071 4.44804 13.3447 4.43063 13.4913C4.4299 13.4987 4.4212 13.5054 4.41684 13.5121C4.39508 13.5731 4.38202 13.6356 4.36751 13.6981C4.36026 13.7279 4.35155 13.7576 4.34284 13.7874C4.33414 13.8172 4.32543 13.8469 4.31745 13.8767C4.28408 14.0047 4.25143 14.1334 4.22096 14.2621C4.19267 14.3781 4.16582 14.4957 4.13971 14.6125C4.11069 14.7442 4.08312 14.8758 4.05627 15.0075C4.03306 15.1228 4.01057 15.2389 3.98953 15.355C3.97284 15.4472 3.95616 15.5387 3.94092 15.631C3.92714 15.7121 3.9148 15.7932 3.90174 15.8743C3.88578 15.9777 3.87055 16.0803 3.85676 16.1838C3.84443 16.2768 3.83282 16.369 3.82121 16.462C3.79074 16.7172 3.76608 16.9724 3.74649 17.2291C3.74141 17.3027 3.73633 17.3756 3.7327 17.4493C3.72835 17.5229 3.72472 17.5958 3.72182 17.6695C3.71602 17.8161 3.71166 17.9634 3.70731 18.1099C3.70659 18.1434 3.70659 18.1769 3.70586 18.2104V18.2409C3.70514 18.4291 3.71239 18.6166 3.71819 18.8033C3.71819 18.8115 3.71965 18.8204 3.71965 18.8286C3.7211 18.8621 3.72255 18.8956 3.72472 18.929C3.73125 19.0644 3.74214 19.1999 3.75592 19.3353C3.76535 19.4268 3.77551 19.519 3.78712 19.6105C3.78857 19.6239 3.79074 19.6366 3.79219 19.65C3.81686 19.836 3.84516 20.0212 3.8807 20.205C3.94672 20.5487 4.03451 20.8864 4.15494 21.2145C4.15712 21.2198 4.15929 21.2257 4.16147 21.2317C4.25143 21.4742 4.3559 21.71 4.48431 21.9347C4.69543 22.3045 4.95298 22.6318 5.28163 22.893C5.32081 22.9242 5.36071 22.954 5.40134 22.9837C5.44051 23.0113 5.48259 23.0365 5.52322 23.0618C5.53047 23.0671 5.53918 23.0708 5.54716 23.0745C5.55296 23.0775 5.55877 23.0797 5.56457 23.0827C5.57473 23.0879 5.58416 23.0946 5.59069 23.1043C5.59287 23.1072 5.59504 23.1117 5.59722 23.1162V23.1147C5.6081 23.1132 5.61753 23.1154 5.62261 23.1273H5.62334C5.63349 23.1273 5.64293 23.1303 5.648 23.14C5.65091 23.14 5.65308 23.14 5.65526 23.1407H5.65598C5.66251 23.1422 5.66832 23.1452 5.67267 23.1519V23.1526H5.67485H5.6792C5.68065 23.1526 5.68138 23.1534 5.68355 23.1534C5.68428 23.1534 5.68573 23.1534 5.68646 23.1541C5.68791 23.1541 5.68936 23.1556 5.69081 23.1563C5.69081 23.1563 5.69226 23.1563 5.69298 23.1571C5.69444 23.1586 5.69589 23.16 5.69734 23.1615H5.69806C5.71185 23.1764 5.73071 23.1801 5.74812 23.1883C6.11014 23.3527 6.47289 23.5172 6.83491 23.6816C7.01411 23.7627 7.19185 23.8482 7.38121 23.9018C7.57056 23.9554 7.76281 23.9918 7.95942 24H8.05736H8.35119C8.44623 23.997 8.54054 23.9844 8.63413 23.9695C9.01501 23.9107 9.38066 23.7954 9.73398 23.6399C10.3811 23.355 10.9651 22.9659 11.5129 22.5158C11.6333 22.4168 11.7508 22.3149 11.8677 22.2115C12.2747 22.2189 12.6809 22.2211 13.0879 22.2167C13.4753 22.2122 13.8635 22.2055 14.2509 22.1899C14.2698 22.1787 14.2901 22.1787 14.3104 22.1869H14.3278C14.351 22.1758 14.375 22.1765 14.3989 22.1839H14.4163C14.4301 22.175 14.4446 22.1735 14.4591 22.1765H14.4606H14.4613C14.4664 22.178 14.4707 22.1795 14.4751 22.181H14.4925C14.5019 22.175 14.5113 22.1728 14.5208 22.172C14.5309 22.172 14.5411 22.1743 14.552 22.1773H14.5694C14.5759 22.1735 14.5824 22.1713 14.589 22.1698C14.602 22.1668 14.6158 22.1683 14.6296 22.1735H14.6463C14.6463 22.1735 14.6477 22.1735 14.6485 22.1728C14.6673 22.1631 14.6869 22.1631 14.7058 22.1706H14.7225C14.7421 22.1579 14.7616 22.1594 14.7827 22.1668H14.7994C14.819 22.1549 14.8393 22.1564 14.8596 22.1631H14.8763C14.8806 22.1601 14.8842 22.1587 14.8879 22.1572C14.8944 22.1549 14.9002 22.1549 14.9067 22.1549C14.9125 22.1549 14.9191 22.1564 14.9249 22.1594C15.0134 22.1549 15.1012 22.152 15.1897 22.1467C15.8673 22.1058 16.5427 22.0508 17.2174 21.9741C18.2418 21.8573 19.2597 21.7004 20.2652 21.4653C20.9501 21.3053 21.6255 21.1134 22.2785 20.8433C22.6289 20.6982 22.9691 20.5323 23.284 20.3151C23.4734 20.1841 23.6489 20.0368 23.7897 19.8486C23.8782 19.7288 23.95 19.6001 23.9776 19.4498C23.9885 19.4379 23.9928 19.4238 23.9935 19.4089C24.0001 19.301 24.0037 19.1939 23.9943 19.086L23.9885 19.0868ZM14.8944 16.8109C14.7058 16.799 14.5179 16.7886 14.3292 16.7804C14.5179 16.7894 14.7058 16.7998 14.8944 16.8109ZM10.7105 20.3233C10.68 20.3508 10.6495 20.3791 10.6191 20.4066C10.4051 20.5993 10.1845 20.7815 9.95453 20.9519C9.72455 21.1215 9.48586 21.2793 9.23629 21.4199C9.20074 21.44 9.16447 21.4601 9.12819 21.4794C9.04476 21.524 8.9606 21.5664 8.87572 21.6074C8.79084 21.6475 8.7045 21.6847 8.61744 21.7197C8.44333 21.7896 8.26486 21.8477 8.08058 21.8923C8.00078 21.9117 7.92097 21.928 7.84117 21.9407C7.81287 21.9451 7.78458 21.9496 7.75701 21.9541C7.64819 21.9689 7.53936 21.9779 7.42981 21.9808C7.39354 21.9816 7.35654 21.9823 7.32026 21.9816C7.28326 21.9816 7.24699 21.9801 7.20999 21.9786C7.19403 21.9779 7.17879 21.9756 7.16283 21.9741C7.1476 21.9727 7.13164 21.9704 7.11568 21.9689C7.09536 21.9675 7.08013 21.9585 7.06489 21.9451C7.02136 21.905 6.98001 21.8633 6.93938 21.8201C6.87916 21.7562 6.82185 21.6892 6.76816 21.62C6.73262 21.5739 6.69779 21.5263 6.66442 21.4772C6.64773 21.4526 6.63177 21.4281 6.61581 21.4035C6.61436 21.4013 6.61363 21.3991 6.61291 21.3968C6.61218 21.3931 6.61073 21.3886 6.61001 21.3849C6.60348 21.3782 6.59477 21.3715 6.58969 21.3641L6.58824 21.3626C6.51352 21.2413 6.44605 21.1163 6.3851 20.9876C6.35463 20.9229 6.32561 20.8589 6.29877 20.7927C6.2712 20.7272 6.24581 20.6603 6.22187 20.5926C6.21897 20.5844 6.21969 20.5762 6.21824 20.5673C6.17616 20.4869 6.15512 20.3991 6.12901 20.3136C6.07097 20.1224 6.02526 19.9282 5.98753 19.7318C5.98101 19.6968 5.97448 19.6626 5.96795 19.6276C5.96504 19.6135 5.96359 19.6001 5.96069 19.586C5.95779 19.5689 5.95416 19.5518 5.95126 19.5346C5.95126 19.5302 5.95126 19.5265 5.94981 19.522C5.94836 19.5071 5.94763 19.4915 5.94618 19.4766C5.92151 19.3672 5.91063 19.2556 5.8983 19.1441C5.85622 18.7884 5.84026 18.4313 5.83953 18.0742C5.83953 17.9396 5.84099 17.8041 5.84461 17.6687C5.84679 17.5884 5.85042 17.5088 5.85477 17.4292C6.14134 17.3592 6.43008 17.2975 6.71956 17.241C7.21434 17.145 7.71203 17.0669 8.21117 17.0036C8.21915 17.0029 8.22713 17.0014 8.23511 17.0007C8.24454 16.9992 8.25397 16.9984 8.2634 16.9992C8.26921 16.9992 8.27501 17.0007 8.28082 17.0021C8.35844 16.985 8.43752 16.9761 8.5166 16.9679C8.55288 16.9642 8.58915 16.9605 8.6247 16.9568C9.17317 16.8943 9.72237 16.8466 10.2723 16.8124C10.4268 16.8028 10.5814 16.7938 10.7352 16.7864C11.1298 16.767 11.5245 16.7544 11.9192 16.747C12.1354 16.7425 12.3516 16.7403 12.5678 16.7403C12.8761 16.7403 13.1844 16.744 13.492 16.7514C13.4253 16.8652 13.3578 16.9791 13.2889 17.0914C13.2388 17.174 13.188 17.2558 13.1365 17.3369C13.0444 17.482 12.9508 17.6256 12.855 17.7684C12.678 18.0318 12.4945 18.29 12.3037 18.5429C12.2435 18.6233 12.1825 18.7029 12.1201 18.7817C12.1092 18.7959 12.0984 18.81 12.0875 18.8234C11.9975 18.938 11.9061 19.0503 11.8125 19.1612C11.6565 19.3464 11.4962 19.5272 11.3315 19.7043C11.2815 19.7578 11.2314 19.8114 11.1806 19.8642C11.05 19.9996 10.9151 20.1321 10.7772 20.2608C10.8193 20.263 10.8614 20.2645 10.9035 20.2667C10.8614 20.2645 10.8193 20.263 10.7772 20.2608C10.7547 20.2816 10.7323 20.3032 10.7098 20.324L10.7105 20.3233ZM11.4447 20.2875C11.6043 20.2928 11.7646 20.2972 11.9242 20.3002C11.7639 20.2972 11.6043 20.2928 11.4447 20.2875ZM21.9948 18.5452C21.9904 18.5511 21.9832 18.5571 21.9716 18.566C21.9563 18.5779 21.9411 18.5905 21.9252 18.6017C21.9099 18.6136 21.894 18.6248 21.878 18.6367C21.8482 18.6582 21.8178 18.6791 21.7866 18.6992C21.783 18.7014 21.7793 18.7036 21.7757 18.7066C21.7503 18.723 21.7249 18.7393 21.6988 18.755C21.6603 18.7788 21.6226 18.8011 21.5834 18.8234C21.3179 18.9752 21.0386 19.0972 20.7535 19.2051C20.4843 19.3062 20.2115 19.3948 19.9366 19.4736C19.5426 19.5867 19.1436 19.6805 18.741 19.7623C18.3499 19.8426 17.9574 19.9104 17.5635 19.9691C17.1695 20.0279 16.7742 20.077 16.378 20.1194C16.2482 20.1335 16.1183 20.1462 15.9884 20.1588C15.728 20.1834 15.4675 20.2042 15.2071 20.2221C15.0765 20.231 14.9459 20.2392 14.8161 20.2466C14.5237 20.2637 14.2313 20.2764 13.9389 20.2861C13.886 20.2875 13.833 20.2898 13.7793 20.2913C13.7307 20.2928 13.6821 20.2942 13.6328 20.2957C13.7525 20.144 13.8722 19.9929 13.9817 19.833C13.9977 19.8129 14.0137 19.7928 14.0289 19.772C14.2632 19.4483 14.4881 19.1188 14.7043 18.7832C14.7159 18.7646 14.7761 18.6709 14.7943 18.6419C14.9314 18.4254 15.0642 18.2066 15.194 17.9849C15.4059 17.6219 15.6083 17.2536 15.8005 16.8801C16.1676 16.9129 16.534 16.9508 16.9004 16.9969C16.9272 16.9999 16.9541 17.0059 16.9816 17.0103C17.1456 17.0222 17.3081 17.0475 17.4699 17.0721C17.6781 17.1033 17.8863 17.1375 18.0938 17.1733C18.3739 17.2216 18.6539 17.2752 18.9318 17.3369C19.0819 17.3704 19.2314 17.4046 19.3816 17.4381C19.383 17.4381 19.3852 17.4381 19.3867 17.4389C19.3881 17.4389 19.3896 17.4389 19.3917 17.4396C19.4012 17.4411 19.412 17.4411 19.4222 17.4426C19.4353 17.4441 19.4483 17.4478 19.4585 17.4589C19.7791 17.543 20.0991 17.6315 20.4132 17.7379C20.4422 17.7476 20.4756 17.7506 20.4981 17.7759C20.5801 17.7908 20.6548 17.8257 20.7317 17.8547C20.7992 17.88 20.8667 17.9068 20.9334 17.9343C21.1242 18.0117 21.3114 18.0973 21.4928 18.1962C21.5646 18.2349 21.635 18.2758 21.7046 18.319C21.7967 18.3763 21.8867 18.4365 21.9709 18.5057C21.9955 18.5258 22.0028 18.534 21.9933 18.5459L21.9948 18.5452Z" fill="#007FFF"/>
<path fill-rule="evenodd" clip-rule="evenodd" d="M23.995 13.1825C23.9863 13.0047 23.9203 12.8478 23.8194 12.7049C23.6772 12.5018 23.4937 12.3433 23.2949 12.2035C22.9561 11.9654 22.5854 11.7906 22.2059 11.6343C21.9948 11.5473 21.7808 11.4699 21.5646 11.3985C21.2352 11.2899 20.9008 11.1969 20.5649 11.1121C20.1448 11.0064 19.7226 10.9149 19.2974 10.8353C19.0384 10.7869 18.7787 10.7401 18.5183 10.7014C18.5103 10.7014 18.5023 10.7006 18.4943 10.6999C18.49 10.6999 18.4849 10.6991 18.4805 10.6984C18.4711 10.6977 18.4609 10.6962 18.4515 10.6954C18.4297 10.6925 18.4073 10.688 18.3862 10.6828C18.3086 10.6701 18.2317 10.6575 18.1541 10.6441C18.1091 10.6374 18.0641 10.6307 18.0191 10.6248C18.0017 10.6218 17.9843 10.6195 17.9669 10.6173C17.7877 10.595 17.6078 10.5734 17.4286 10.5496C17.3763 10.5429 17.3241 10.5384 17.2719 10.5325C17.2196 10.5273 17.1674 10.5206 17.1159 10.5102C16.7676 10.4767 16.4194 10.441 16.0704 10.412C16.0218 10.4083 15.9732 10.4038 15.9246 10.4001C15.6243 10.3755 15.3239 10.3547 15.0228 10.3398C14.8785 10.3331 14.7334 10.3249 14.5883 10.3175C14.4787 10.3123 14.3684 10.3063 14.2589 10.3019C14.0079 10.2922 13.7576 10.2862 13.5065 10.281C13.413 10.2788 13.3194 10.2773 13.2265 10.2758C13.0691 10.2728 13.2265 10.2758 13.2265 10.2758C13.2265 10.2758 13.3985 9.56607 13.4674 9.20747C13.5196 8.9389 13.5646 8.66883 13.6045 8.39802C13.6306 8.21649 13.6538 8.03496 13.6741 7.85269C13.6952 7.66223 13.7119 7.47103 13.7235 7.27908C13.7358 7.07449 13.7438 6.86915 13.7481 6.66455C13.7532 6.39002 13.7445 6.11624 13.7249 5.84246C13.7119 5.66167 13.6952 5.48163 13.6727 5.30158C13.6422 5.05533 13.5987 4.81205 13.5414 4.571C13.4957 4.37831 13.4434 4.18636 13.3738 4.00037C13.3702 4.00037 13.3665 4.00037 13.3629 4.00185C13.3593 4.00185 13.3556 4.00334 13.3527 4.00409C13.3411 4.00781 13.331 4.01376 13.3201 4.01822C13.0154 4.14916 12.7274 4.31209 12.4495 4.49362C12.4335 4.50404 12.4161 4.51222 12.4096 4.53231C12.4763 4.96456 12.5075 5.39905 12.5112 5.83651C12.517 6.46219 12.472 7.08416 12.3886 7.70389C12.3254 8.17037 12.242 8.63312 12.1404 9.0929C12.0527 9.49167 11.9511 9.88672 11.8379 10.2781C11.5644 10.281 11.2902 10.29 11.0167 10.2989C10.6525 10.3115 10.2883 10.3286 9.92479 10.3525C9.60413 10.3733 9.28273 10.3949 8.96206 10.4231C8.54563 10.4603 8.12992 10.502 7.71567 10.5541C7.61628 10.7654 7.51979 10.9781 7.42692 11.1924C7.28835 11.5123 7.15776 11.8352 7.03516 12.1611C7.04096 12.1603 7.04604 12.1596 7.05184 12.1588C7.53575 12.0889 8.02183 12.0309 8.50791 11.981C8.6472 11.9669 8.7865 11.9498 8.92652 11.9371C9.27185 11.9074 9.61791 11.8873 9.96397 11.865C10.4138 11.8352 10.8643 11.8166 11.3156 11.8032H11.3322C11.716 11.7921 12.0998 11.7868 12.4843 11.7861C12.5808 11.7861 12.6773 11.7861 12.7745 11.7868C12.9936 11.7876 13.2135 11.7898 13.4325 11.7935C13.6814 11.798 13.9295 11.8077 14.1784 11.8166H14.1849C14.4228 11.8255 14.6608 11.8345 14.8988 11.8464C15.0816 11.8553 15.2644 11.8687 15.4472 11.8828C15.4864 11.8858 15.5256 11.8888 15.5648 11.8917C15.839 11.9118 16.1125 11.9327 16.3868 11.9542C16.4542 11.9594 16.521 11.9691 16.5884 11.9758C16.9512 12.0086 17.3132 12.0502 17.6745 12.0978C17.8363 12.1187 17.9973 12.141 18.1591 12.1633C18.4994 12.2117 18.8389 12.2697 19.177 12.3299C19.5027 12.3887 19.8278 12.4549 20.1499 12.5301C20.4335 12.5963 20.7158 12.6685 20.9958 12.7466C21.3636 12.8492 21.7249 12.969 22.0819 13.1044C22.3902 13.222 22.6884 13.3604 22.9771 13.5218C23.1759 13.6334 23.3645 13.7584 23.5365 13.9102C23.6925 14.0478 23.8289 14.2025 23.9195 14.396C23.9558 14.4726 23.9725 14.5552 23.9957 14.6355C23.9964 14.4756 23.9979 14.3156 23.9986 14.1557V13.4429C23.9986 13.3566 24.0015 13.2696 23.9972 13.184L23.995 13.1825Z" fill="#FF1100"/>
<path fill-rule="evenodd" clip-rule="evenodd" d="M14.8365 1.83391C14.7807 1.81531 14.7234 1.80192 14.6697 1.77588C14.6697 1.76844 14.6704 1.761 14.6711 1.75356C14.7379 1.77439 14.801 1.80341 14.8598 1.8421C14.8518 1.83912 14.8438 1.83689 14.8358 1.83391H14.8365Z" fill="#404A5A"/>
<path fill-rule="evenodd" clip-rule="evenodd" d="M14.6668 1.74909C14.3084 1.58542 13.9493 1.42248 13.5909 1.25807C13.5764 1.25137 13.5619 1.25658 13.5489 1.24839C13.5365 1.25137 13.5235 1.25435 13.5184 1.23798C13.5039 1.24467 13.4901 1.23798 13.4763 1.23277C13.1622 1.13605 12.8408 1.10629 12.5136 1.12341C12.0805 1.14647 11.6655 1.25509 11.2621 1.41504C11.1351 1.46489 11.0104 1.51995 10.8885 1.57872C10.858 1.5936 10.8275 1.60848 10.7971 1.6241C10.7615 1.64196 10.726 1.65981 10.6911 1.67916C10.644 1.70371 10.5975 1.729 10.5504 1.75504C10.3059 1.89193 10.0687 2.04445 9.83868 2.20813C9.7908 2.24235 9.74292 2.27657 9.69576 2.31154L9.66747 2.33237C9.55429 2.41718 9.44329 2.50349 9.33447 2.59276C9.06168 2.81521 8.79978 3.0518 8.54658 3.29954C7.84358 3.98772 7.21893 4.74732 6.64724 5.55231C6.63273 5.57314 6.61822 5.59472 6.60371 5.61555C6.5892 5.63638 6.60226 5.62076 6.60081 5.62224C6.59936 5.62373 6.59718 5.62448 6.59428 5.62522C6.54277 5.70036 6.49199 5.77476 6.44048 5.8499C6.35487 5.97489 6.27071 6.09988 6.18801 6.2271C6.10965 6.34762 6.03203 6.46963 5.95585 6.59165C5.89491 6.68836 5.83542 6.78583 5.77665 6.88403C5.72442 6.97182 5.67218 7.05887 5.62067 7.14666C5.54812 7.2709 5.4763 7.39589 5.4052 7.52236C5.36965 7.5856 5.33483 7.6481 5.3 7.71208C5.29638 7.71952 5.2913 7.72621 5.28694 7.73365C5.28694 7.74184 5.28404 7.74853 5.28114 7.75523C5.27824 7.75969 5.27534 7.7649 5.27316 7.76937C5.24051 7.82888 5.20859 7.88915 5.17667 7.94941C5.05624 8.17483 4.93871 8.40249 4.82553 8.63164C4.77765 8.72835 4.73049 8.82581 4.68406 8.92328C4.43304 9.45001 4.20016 9.98493 3.98614 10.5273C3.87223 10.8152 3.76414 11.1054 3.66112 11.397C3.6067 11.5518 3.55302 11.7072 3.50151 11.8635C3.40647 12.1521 3.31941 12.443 3.23453 12.7347C3.1997 12.8545 3.1656 12.975 3.13296 13.0955C3.13223 13.0985 3.13151 13.1015 3.13078 13.1044C3.07927 13.2934 3.03139 13.4831 2.98641 13.6736C2.94506 13.8447 2.90515 14.0166 2.86815 14.1892C2.83623 14.3365 2.80721 14.4845 2.77819 14.6326C2.77166 14.6675 2.76513 14.7025 2.7586 14.7382C2.7557 14.7523 2.75353 14.7665 2.75062 14.7806C2.7499 14.7858 2.74845 14.791 2.74772 14.797C2.74264 14.8253 2.73684 14.8528 2.73176 14.8811C2.69041 15.1124 2.65341 15.3446 2.62149 15.5782C2.59029 15.8036 2.56272 16.0283 2.5395 16.2544C2.53443 16.305 2.53007 16.3556 2.52499 16.4062C2.52499 16.4099 2.52427 16.4137 2.52427 16.4174C2.52064 16.4561 2.51847 16.4836 2.51556 16.5111C2.50541 16.6368 2.4967 16.7633 2.48945 16.8891C2.48219 17.0155 2.47639 17.142 2.47276 17.2685C2.47276 17.2848 2.47276 17.3012 2.47131 17.3176C2.46405 17.5609 2.4626 17.8034 2.46986 18.0459C2.47711 18.2751 2.48945 18.5035 2.51049 18.7319C2.5308 18.9595 2.55909 19.1865 2.59754 19.4134C2.61641 19.5242 2.63672 19.6343 2.65994 19.7437C2.73684 20.1127 2.84058 20.4743 2.98278 20.824C2.99294 20.8485 3.00237 20.8723 3.01325 20.8969C3.02341 20.9207 3.03429 20.9452 3.04445 20.969C3.06911 21.0256 3.09523 21.0814 3.12208 21.1364C3.16706 21.2287 3.21494 21.3187 3.26572 21.4065C3.40502 21.6475 3.56898 21.8715 3.76341 22.0738C3.8142 22.1274 3.86716 22.178 3.92157 22.2264C4.02386 22.3179 4.13269 22.4019 4.24876 22.4771C4.27053 22.4912 4.29592 22.4994 4.31188 22.521C4.31406 22.5239 4.31624 22.5277 4.31769 22.5314C4.32857 22.5292 4.33655 22.5314 4.33945 22.5433C4.38443 22.5544 4.42071 22.5857 4.46206 22.6043C4.68261 22.7047 4.90243 22.8052 5.12298 22.9056C5.24849 22.9629 5.37473 23.0187 5.50097 23.0752L5.51693 23.0604C5.4763 23.0343 5.43422 23.0098 5.39504 22.9822C5.35369 22.9532 5.31451 22.9227 5.27534 22.8915C4.94669 22.6296 4.68914 22.303 4.47802 21.9332C4.34961 21.7085 4.24514 21.4727 4.15518 21.2302C4.153 21.2242 4.15082 21.219 4.14865 21.2131C4.02822 20.885 3.94043 20.5472 3.87441 20.2035C3.83886 20.0197 3.81057 19.8345 3.7859 19.6485C3.78445 19.6351 3.78227 19.6224 3.78082 19.609C3.76921 19.5175 3.75906 19.4253 3.74963 19.3338C3.73584 19.1984 3.72568 19.0637 3.71843 18.9276C3.71698 18.8941 3.7148 18.8606 3.71335 18.8271C3.71335 18.8189 3.71263 18.81 3.7119 18.8018C3.70537 18.6143 3.69884 18.4269 3.69957 18.2394V18.2089C3.69957 18.1754 3.69957 18.1419 3.70102 18.1084C3.70537 17.9611 3.70972 17.8146 3.71553 17.668C3.71843 17.5943 3.72206 17.5214 3.72641 17.4478C3.73076 17.3741 3.73512 17.3012 3.74019 17.2276C3.75906 16.9709 3.78445 16.7157 3.81492 16.4605C3.8258 16.3675 3.83741 16.2753 3.85047 16.1823C3.86425 16.0789 3.87949 15.9754 3.89545 15.8728C3.90778 15.7917 3.92084 15.7106 3.93463 15.6295C3.94986 15.5372 3.96655 15.4457 3.98323 15.3535C4.00427 15.2374 4.02676 15.1221 4.04998 15.006C4.07682 14.8744 4.10439 14.7419 4.13341 14.611C4.15953 14.4942 4.18637 14.3774 4.21467 14.2606C4.24586 14.1319 4.27778 14.0032 4.31116 13.8752C4.31914 13.8454 4.32784 13.8157 4.33655 13.7859C4.34526 13.7562 4.35396 13.7264 4.36122 13.6966C4.37645 13.6341 4.38879 13.5717 4.41055 13.5106C4.41563 13.504 4.42361 13.4973 4.42433 13.4898C4.44175 13.3425 4.49326 13.2049 4.53751 13.0665C4.5571 13.0047 4.57596 12.9422 4.59482 12.8798C4.62094 12.7927 4.64706 12.7057 4.6739 12.6186C4.69567 12.5472 4.71816 12.4758 4.7421 12.4051C4.75153 12.3776 4.76024 12.3493 4.76967 12.321C4.782 12.2853 4.79434 12.2496 4.80667 12.2139C4.8589 12.0651 4.90969 11.9156 4.96265 11.7668C4.98441 11.7058 5.0069 11.644 5.0294 11.583C5.10702 11.3739 5.18683 11.1664 5.26953 10.9603C5.29275 10.9015 5.31669 10.8435 5.34063 10.7855C5.36022 10.7386 5.37908 10.6925 5.39794 10.6456C5.44438 10.5355 5.49153 10.4254 5.53869 10.3153C5.57569 10.229 5.61342 10.1434 5.65187 10.0571C5.68089 9.99088 5.71063 9.92616 5.74038 9.85994C5.82018 9.68437 5.90144 9.51027 5.98632 9.33693C6.00083 9.30642 6.01824 9.27741 6.03493 9.24839C6.05161 9.21938 6.0683 9.18962 6.08281 9.15837C6.32948 8.62196 6.61895 8.10936 6.91713 7.60197C6.94397 7.55659 6.97009 7.5112 6.99693 7.46582C7.05932 7.36018 7.11881 7.25304 7.18919 7.15409C7.23344 7.09234 7.27407 7.02985 7.3147 6.96587C7.35532 6.90263 7.39523 6.83865 7.43658 6.77615C7.52074 6.65117 7.59909 6.52171 7.68252 6.39598C7.6934 6.37961 7.70429 6.36325 7.71517 6.34688C7.77103 6.2643 7.82907 6.1832 7.88566 6.10137V6.09913V6.0969C7.88566 6.0969 7.89001 6.09244 7.89219 6.09095C7.89364 6.09095 7.89509 6.08946 7.89654 6.08946C7.97852 5.97638 8.0605 5.86255 8.14248 5.74946C8.14611 5.74426 8.15046 5.73979 8.15409 5.73533C8.15627 5.7331 8.15772 5.73086 8.15917 5.72938C8.16425 5.72342 8.16933 5.71822 8.1744 5.71226V5.70482C8.1744 5.70259 8.1744 5.70036 8.17513 5.69887C8.17658 5.69441 8.17803 5.69143 8.18021 5.68846C8.18238 5.68548 8.18601 5.68325 8.18891 5.68027C8.19254 5.67804 8.19617 5.67581 8.1998 5.67358C8.20197 5.67135 8.20342 5.66911 8.20487 5.66688C8.2368 5.62596 8.26944 5.58504 8.30137 5.54413C8.30499 5.53966 8.30862 5.53445 8.31225 5.52999C8.31225 5.52701 8.3137 5.52478 8.31515 5.52181C8.31588 5.51957 8.31733 5.5166 8.31878 5.51437C8.32168 5.5099 8.32531 5.50544 8.32893 5.50172C8.32893 5.50097 8.33039 5.50023 8.33111 5.49949C8.34489 5.48609 8.36231 5.47494 8.36593 5.45485V5.45113C8.36593 5.44741 8.36884 5.44443 8.37174 5.44294C8.37319 5.44294 8.37464 5.4422 8.37609 5.44146C8.38552 5.43402 8.39423 5.42658 8.40148 5.41765C8.40366 5.41542 8.40511 5.41319 8.40656 5.4117C8.41237 5.405 8.41744 5.39756 8.42252 5.39012C8.42905 5.38045 8.43558 5.37003 8.44211 5.35962C8.44719 5.35218 8.45227 5.344 8.45735 5.33656C8.46097 5.33135 8.4646 5.32614 8.46823 5.32168C8.4929 5.29043 8.51829 5.25918 8.54295 5.22868C8.71707 5.01069 8.89627 4.79791 9.08054 4.5896C9.22492 4.42593 9.37437 4.26746 9.52527 4.11048C9.55139 4.08295 9.57823 4.05542 9.60435 4.02864C9.65368 3.97805 9.70519 3.93118 9.75598 3.88282C9.77629 3.86348 9.79661 3.84488 9.81619 3.82479C9.82055 3.82107 9.82417 3.81661 9.82853 3.81289C9.89164 3.75039 9.95621 3.6879 10.0201 3.62615C10.0215 3.62466 10.023 3.62392 10.0244 3.62243C10.0411 3.60681 10.06 3.59267 10.0774 3.57853C10.0817 3.57481 10.0854 3.57109 10.0897 3.56663C10.0912 3.56514 10.0919 3.5644 10.0933 3.56291C10.1129 3.54208 10.1332 3.52199 10.1528 3.50116C10.1557 3.4967 10.1586 3.49372 10.1623 3.49149C10.1659 3.48926 10.1702 3.48777 10.1753 3.48777C10.1811 3.48702 10.1862 3.48405 10.1905 3.48107C10.1934 3.47884 10.1964 3.47587 10.1993 3.47289C10.2014 3.47066 10.2029 3.46768 10.2051 3.46471C10.2087 3.46024 10.213 3.45503 10.2167 3.45057C10.2682 3.4037 10.3197 3.35757 10.3726 3.31219C10.3806 3.30549 10.3886 3.2988 10.3966 3.29136C10.4474 3.24746 10.4989 3.20431 10.5511 3.16116C10.6679 3.06519 10.7884 2.97219 10.911 2.8844C10.9153 2.88217 10.9189 2.87994 10.9233 2.87771H10.924C10.9276 2.8725 10.932 2.86803 10.9364 2.86431C10.9639 2.84348 10.9922 2.82191 11.0198 2.80182C11.0756 2.76016 11.133 2.71998 11.1896 2.68055C11.2178 2.66121 11.2469 2.64112 11.2759 2.62252C11.3049 2.60318 11.3339 2.58383 11.3629 2.56524C11.4507 2.50869 11.5392 2.45364 11.6292 2.40082C11.7271 2.34279 11.8273 2.28699 11.9274 2.23342C12.2292 2.07421 12.5411 1.93955 12.8676 1.83986C12.8923 1.83242 12.9177 1.82498 12.9423 1.81754C13.1165 1.76769 13.2913 1.72975 13.469 1.7052C13.5699 1.69106 13.6722 1.68139 13.7745 1.67693C13.8514 1.67321 13.9283 1.67246 14.0059 1.67469C14.032 1.67544 14.0574 1.67618 14.0835 1.67767C14.1612 1.68213 14.2381 1.69032 14.315 1.70148C14.4216 1.71636 14.5268 1.73719 14.632 1.76471C14.6349 1.76397 14.6371 1.76323 14.64 1.76471C14.6429 1.76471 14.6451 1.76695 14.6465 1.76918C14.6487 1.76992 14.6516 1.77067 14.6538 1.77141C14.6589 1.7729 14.6632 1.77439 14.6683 1.77662C14.6683 1.76918 14.669 1.76174 14.6697 1.7543C14.6683 1.75281 14.6668 1.75132 14.6647 1.75058L14.6668 1.74909Z" fill="#F1ECE2"/>
<path fill-rule="evenodd" clip-rule="evenodd" d="M13.5188 1.23724C13.5137 1.21417 13.492 1.21194 13.476 1.2045C13.167 1.06389 12.8579 0.922532 12.5474 0.783408C12.4647 0.746209 12.3849 0.703059 12.2993 0.673299C12.2898 0.679251 12.2797 0.678507 12.2695 0.674787C12.057 0.603365 11.8364 0.567654 11.6144 0.553519C11.4105 0.540871 11.2059 0.553519 11.0035 0.581046C10.8367 0.604109 10.6727 0.63982 10.5102 0.684459C10.1946 0.771505 9.89135 0.889797 9.59898 1.03785C9.48653 1.09514 9.37771 1.15986 9.26671 1.22012C9.22971 1.24021 9.19126 1.25807 9.15571 1.27964C8.83794 1.47382 8.52961 1.68288 8.23723 1.91574C8.16396 1.97377 8.08923 2.03032 8.02104 2.09355C7.97678 2.13447 7.93398 2.17614 7.88609 2.21185C7.87739 2.21854 7.86796 2.22524 7.85707 2.23193C7.84909 2.23937 7.84111 2.24607 7.83313 2.25277V2.25425C7.82951 2.26393 7.82588 2.27285 7.82007 2.27806C7.81645 2.28104 7.81282 2.28252 7.80847 2.28327H7.80121H7.79976C7.79976 2.28327 7.79541 2.28178 7.79251 2.28104C7.79033 2.28252 7.78815 2.28401 7.7867 2.2855C7.76131 2.3041 7.74752 2.33609 7.72431 2.35469C7.72068 2.35767 7.71705 2.3599 7.71343 2.36213C7.65249 2.39487 7.61549 2.45364 7.56107 2.49381C7.50884 2.5325 7.46531 2.58384 7.41743 2.62922C7.18019 2.85316 6.95601 3.09049 6.73401 3.33005C6.66582 3.4037 6.60488 3.48256 6.53958 3.55919C6.50186 3.60309 6.45978 3.64177 6.42278 3.68492C6.32193 3.80322 6.22399 3.92449 6.1246 4.04352C6.0506 4.13206 5.98095 4.22356 5.91493 4.31805C5.8627 4.39319 5.8003 4.46015 5.74444 4.53232C5.5754 4.75477 5.41507 4.98391 5.25473 5.21231C5.09658 5.43774 4.95148 5.67209 4.8013 5.90347C4.66636 6.11104 4.5423 6.32605 4.41389 6.53883C4.36673 6.61769 4.32465 6.69952 4.27677 6.77839C4.19479 6.91379 4.11861 7.05291 4.04679 7.19427C4.00181 7.24932 3.97496 7.31628 3.94087 7.37803C3.86977 7.50748 3.80157 7.63842 3.73991 7.77309C3.72032 7.81624 3.69202 7.85269 3.67171 7.89584C3.6144 8.01562 3.55636 8.1354 3.49614 8.25444C3.34596 8.55352 3.21392 8.86078 3.07681 9.16656C2.92808 9.49688 2.79604 9.83539 2.66545 10.1739C2.57694 10.4038 2.48771 10.6337 2.41733 10.8703C2.40572 10.909 2.38396 10.9439 2.3709 10.9819C2.3027 11.1857 2.23451 11.3888 2.16994 11.5934C2.10972 11.7816 2.05314 11.9714 1.99872 12.1611C1.94649 12.3441 1.89643 12.5271 1.84855 12.7109C1.75496 13.0672 1.66935 13.4258 1.59608 13.7867C1.57721 13.8826 1.55835 13.9786 1.54021 14.0746C1.47782 14.4012 1.42268 14.73 1.3777 15.0604C1.33562 15.3743 1.3008 15.689 1.27323 16.0045C1.27105 16.0335 1.26888 16.0625 1.2667 16.0915V16.1719V16.0915C1.25364 16.2641 1.24349 16.4375 1.23696 16.6115C1.22898 16.8102 1.22753 17.0088 1.22607 17.2075C1.22607 17.302 1.23551 17.3972 1.23478 17.4924C1.23333 17.6375 1.24566 17.7818 1.25364 17.9262C1.25654 17.979 1.25872 18.0325 1.2638 18.0861C1.26453 18.095 1.26598 18.1047 1.2667 18.1136C1.28339 18.2528 1.29427 18.3926 1.31313 18.531C1.33127 18.6657 1.34941 18.8003 1.37335 18.9335C1.40817 19.1195 1.44082 19.3055 1.49668 19.4863C1.51409 19.5428 1.52353 19.6023 1.53949 19.6604C1.57286 19.7868 1.61276 19.9118 1.65629 20.0346C1.71941 20.2109 1.79196 20.3835 1.87031 20.5531C1.99147 20.8135 2.14165 21.0561 2.31794 21.2808C2.4848 21.4943 2.67561 21.6825 2.89398 21.8402C2.90269 21.8469 2.91212 21.8529 2.92155 21.8588C2.93751 21.8692 2.95347 21.8797 2.96943 21.8901C2.97814 21.896 2.98757 21.902 2.997 21.9079C3.02747 21.9273 3.05722 21.9474 3.08624 21.9689C3.08624 21.9689 3.08696 21.9689 3.08769 21.9697C3.09639 21.9764 3.1051 21.9831 3.11381 21.9905C3.11381 21.992 3.11526 21.9935 3.11598 21.995C3.12106 22.0024 3.13122 22.0032 3.1392 22.0069C3.51645 22.178 3.89298 22.3491 4.27024 22.5202C4.28548 22.5269 4.29999 22.5373 4.31812 22.5329C4.31595 22.5292 4.3145 22.5262 4.31232 22.5225C4.29636 22.5009 4.27097 22.4927 4.2492 22.4786C4.13385 22.4034 4.0243 22.3194 3.922 22.2278C3.86759 22.1795 3.81463 22.1281 3.76385 22.0753C3.56941 21.873 3.40545 21.6483 3.26616 21.408C3.21537 21.3202 3.16749 21.2302 3.12251 21.1379C3.09567 21.0829 3.06955 21.0271 3.04488 20.9705C3.034 20.946 3.02384 20.9222 3.01369 20.8976C3.00353 20.8731 2.99337 20.8493 2.98322 20.8247C2.84102 20.475 2.738 20.1135 2.66037 19.7444C2.63716 19.6351 2.61684 19.525 2.59798 19.4141C2.56025 19.1879 2.53196 18.961 2.51092 18.7326C2.48988 18.505 2.47755 18.2758 2.47029 18.0467C2.46304 17.8041 2.46449 17.5609 2.47174 17.3183C2.47247 17.302 2.47247 17.2856 2.4732 17.2692C2.47755 17.1427 2.48335 17.0163 2.48988 16.8898C2.49714 16.7641 2.50584 16.6376 2.516 16.5119C2.51818 16.4843 2.52108 16.4568 2.52471 16.4181C2.52471 16.4144 2.52543 16.4107 2.52543 16.407C2.52978 16.3564 2.53414 16.3058 2.53994 16.2552C2.56243 16.029 2.59073 15.8036 2.62192 15.5789C2.65457 15.3453 2.69157 15.1132 2.7322 14.8818C2.73727 14.8535 2.74308 14.826 2.74816 14.7977C2.74888 14.7925 2.75033 14.7873 2.75106 14.7814C2.75396 14.7672 2.75614 14.7531 2.75904 14.739C2.76557 14.7032 2.7721 14.6683 2.77863 14.6333C2.80692 14.4853 2.83667 14.3372 2.86859 14.1899C2.90559 14.0173 2.94549 13.8454 2.98684 13.6743C3.03255 13.4839 3.08043 13.2941 3.13122 13.1052C3.13122 13.1022 3.13267 13.0992 3.13339 13.0962C3.16604 12.9757 3.20014 12.8552 3.23496 12.7354C3.31985 12.4438 3.40763 12.1529 3.50194 11.8642C3.55345 11.708 3.60714 11.5525 3.66155 11.3977C3.76457 11.1054 3.87267 10.8152 3.98657 10.528C4.20059 9.98568 4.43275 9.45076 4.6845 8.92402C4.73093 8.82656 4.77808 8.7291 4.82597 8.63238C4.93914 8.40323 5.05667 8.17558 5.17711 7.95015C5.20903 7.88989 5.24167 7.82963 5.2736 7.77011C5.2765 7.76565 5.2794 7.76044 5.28158 7.75597C5.2852 7.74928 5.28811 7.74258 5.28738 7.7344C5.29173 7.72696 5.29681 7.71952 5.30044 7.71282C5.33526 7.64958 5.37009 7.58635 5.40564 7.52311C5.47673 7.39738 5.54783 7.27239 5.62111 7.1474C5.67262 7.05961 5.72485 6.97182 5.77709 6.88478C5.83585 6.78657 5.89534 6.68911 5.95628 6.59239C6.03246 6.47038 6.11009 6.34837 6.18844 6.22784C6.27115 6.10062 6.35531 5.97563 6.44091 5.85065C6.4917 5.7755 6.54321 5.70111 6.59472 5.62596V5.6215C6.59472 5.62076 6.59544 5.61927 6.59617 5.61852C6.59762 5.61629 6.60052 5.61555 6.60342 5.61555C6.61793 5.59472 6.63172 5.57314 6.64695 5.55231C7.21864 4.74732 7.84329 3.98847 8.54629 3.29954C8.79949 3.0518 9.06067 2.81521 9.33418 2.59276C9.443 2.50349 9.554 2.41718 9.66718 2.33237L9.69547 2.31154C9.74263 2.27657 9.79051 2.24235 9.83839 2.20813C10.0691 2.04445 10.3056 1.89194 10.5501 1.75504C10.5965 1.729 10.6437 1.70371 10.6908 1.67916C10.7264 1.66056 10.7612 1.64196 10.7968 1.6241C10.8272 1.60848 10.8577 1.5936 10.8882 1.57872C11.0108 1.51995 11.1348 1.46489 11.2618 1.41505C11.6652 1.25583 12.0802 1.14721 12.5133 1.12341C12.8398 1.10555 13.1611 1.13531 13.476 1.23277C13.4898 1.23724 13.5036 1.24393 13.5181 1.23798C13.5326 1.23203 13.5181 1.23724 13.5181 1.23798L13.5188 1.23724ZM1.2609 17.6792V17.7V17.6792Z" fill="#FDBF41"/>
<path fill-rule="evenodd" clip-rule="evenodd" d="M12.2311 0.642797C11.9504 0.514089 11.6689 0.389101 11.3896 0.258905C11.0696 0.109365 10.7373 0.0171115 10.3855 0C10.297 0 10.2077 -6.92884e-10 10.1192 0.000743978H10.0155C9.83846 0.0104157 9.66362 0.0371989 9.49023 0.0751418C8.97875 0.186739 8.50283 0.392077 8.0465 0.649493C7.58726 0.908398 7.16067 1.21789 6.75512 1.55715C6.70361 1.6003 6.64775 1.63973 6.60277 1.69181C6.59914 1.6933 6.59551 1.69627 6.59333 1.69999V1.70445H6.59116H6.58898C6.57737 1.71413 6.56577 1.72305 6.55416 1.73273C6.10508 2.12703 5.68792 2.55482 5.29325 3.00642C4.82458 3.54357 4.39219 4.11048 3.98809 4.69971C3.38593 5.57761 2.8527 6.49865 2.3775 7.45466C2.05683 8.09895 1.76518 8.75737 1.50255 9.42918C1.22904 10.13 0.978023 10.8398 0.776336 11.5666C0.753846 11.647 0.726277 11.7266 0.703787 11.8069C0.538374 12.4058 0.395453 13.01 0.283001 13.6215C0.187236 14.1401 0.111059 14.6608 0.0610005 15.1861C0.0240004 15.567 -0.00139186 15.9487 5.9128e-05 16.3318C5.9128e-05 16.5059 0.000784619 16.68 0.00151011 16.8541C0.00368659 16.8779 0.00441208 16.9017 0.00513757 16.9255C0.00586307 16.9627 0.00513758 16.9992 0.00368659 17.0364C0.00513758 17.2484 0.0225494 17.4589 0.0421377 17.6702C0.0747849 18.0147 0.125569 18.3554 0.200295 18.6925C0.293158 19.115 0.420119 19.525 0.600767 19.917C0.794473 20.3367 1.04042 20.7183 1.37269 21.0375C1.5664 21.2235 1.77969 21.3805 2.01983 21.4958C2.23312 21.5984 2.44932 21.6944 2.66552 21.7919C2.81352 21.8588 2.96007 21.931 3.11097 21.9905C3.10226 21.9838 3.09356 21.9764 3.08485 21.9697C3.08485 21.9697 3.08413 21.9697 3.0834 21.9689C3.05438 21.9474 3.02464 21.9273 2.99417 21.9079C2.98474 21.902 2.97603 21.896 2.9666 21.8901C2.95064 21.8797 2.93468 21.87 2.91872 21.8588C2.90928 21.8529 2.90058 21.8462 2.89115 21.8402C2.67277 21.6818 2.48269 21.4943 2.31511 21.2808C2.13881 21.0561 1.98863 20.8135 1.86748 20.5532C1.7884 20.3835 1.71585 20.2109 1.65346 20.0346C1.63677 20.019 1.62081 20.0026 1.60485 19.9862C1.62081 20.0026 1.63677 20.019 1.65346 20.0346C1.60993 19.9118 1.57002 19.7869 1.53665 19.6604C1.52142 19.6031 1.51126 19.5436 1.49385 19.4863C1.43799 19.3055 1.40461 19.1195 1.37051 18.9335C1.34585 18.8003 1.32844 18.6657 1.3103 18.531C1.29144 18.3926 1.27983 18.2528 1.26387 18.1136C1.26314 18.1047 1.26169 18.095 1.26097 18.0861V18.6195V18.0861C1.25589 18.0333 1.25371 17.9797 1.25081 17.9262C1.24355 17.7818 1.23122 17.6375 1.23195 17.4924C1.23195 17.3979 1.22251 17.3027 1.22324 17.2075C1.22469 17.0088 1.22687 16.8102 1.23412 16.6116C1.24065 16.4382 1.25081 16.2649 1.26387 16.0915C1.26604 16.0625 1.26822 16.0335 1.2704 16.0045C1.29797 15.689 1.33279 15.3743 1.37487 15.0604C1.41985 14.73 1.47499 14.4012 1.53738 14.0746C1.55551 13.9786 1.57438 13.8826 1.59324 13.7867C1.66579 13.4251 1.75212 13.0672 1.84571 12.7109C1.89359 12.5271 1.94365 12.3433 1.99589 12.1611C2.0503 11.9706 2.10689 11.7816 2.16711 11.5934C2.2324 11.3888 2.3006 11.185 2.36807 10.9819C2.3804 10.9432 2.40289 10.9082 2.4145 10.8703C2.4856 10.6337 2.57411 10.4038 2.66262 10.1739C2.79321 9.8354 2.92524 9.49763 3.07397 9.16656C3.21109 8.86153 3.34313 8.55352 3.49331 8.25444C3.5528 8.1354 3.61156 8.01562 3.66887 7.89584C3.68919 7.85344 3.71821 7.81624 3.73707 7.77309C3.79874 7.63843 3.86693 7.50749 3.93803 7.37803C3.97213 7.31628 3.99897 7.24933 4.04395 7.19427C4.11578 7.05292 4.19195 6.91379 4.27393 6.77839C4.32182 6.70027 4.3639 6.61769 4.41105 6.53883C4.53874 6.32605 4.6628 6.11178 4.79847 5.90347C4.94864 5.67209 5.09374 5.43774 5.2519 5.21231C5.41223 4.98391 5.57257 4.75477 5.74161 4.53232C5.79674 4.45941 5.85914 4.39319 5.9121 4.31805C5.97812 4.22357 6.04776 4.13206 6.12176 4.04352C6.22116 3.92374 6.3191 3.80247 6.41994 3.68493C6.45694 3.64177 6.49902 3.60309 6.53675 3.55919C6.60204 3.48331 6.66298 3.4037 6.73118 3.33005C6.95318 3.09049 7.17736 2.85316 7.41459 2.62922C7.46247 2.58384 7.506 2.5325 7.55824 2.49382C7.61265 2.45364 7.64893 2.39487 7.71059 2.36213C7.71422 2.3599 7.71857 2.35767 7.72148 2.35469C7.74469 2.33609 7.75848 2.3041 7.78387 2.2855C7.78604 2.28401 7.78822 2.28253 7.78967 2.28104C7.79112 2.27211 7.79402 2.26467 7.79838 2.26021C7.80273 2.255 7.80781 2.25202 7.81506 2.25128C7.81942 2.25128 7.82522 2.25128 7.83102 2.25277C7.839 2.24607 7.84699 2.23863 7.85497 2.23194C7.86585 2.2245 7.87455 2.21854 7.88399 2.21185C7.93187 2.17614 7.97467 2.13522 8.01893 2.09356C8.08712 2.02957 8.16257 1.97377 8.23512 1.91574C8.5275 1.68288 8.83583 1.47382 9.1536 1.27964C9.18987 1.25807 9.2276 1.24021 9.2646 1.22012C9.3756 1.15912 9.48442 1.09439 9.59687 1.03785C9.88925 0.889798 10.1932 0.771506 10.5081 0.68446C10.6706 0.639821 10.8346 0.604855 11.0014 0.581047C11.2038 0.552776 11.4084 0.540872 11.6123 0.55352C11.835 0.567656 12.0548 0.603366 12.2674 0.674788C12.2783 0.678508 12.2877 0.679252 12.2972 0.673301C12.279 0.653213 12.2514 0.653213 12.229 0.642797H12.2311Z" fill="#FF1100"/>
<path opacity="0.48" fill-rule="evenodd" clip-rule="evenodd" d="M21.9839 18.5548C22.0201 18.5258 22.0201 18.5228 21.9839 18.4938C21.8997 18.4246 21.8097 18.3644 21.7176 18.3071C21.41 18.1159 21.0813 17.9701 20.7447 17.8436C20.6678 17.8146 20.5931 17.7796 20.5111 17.7647C20.4886 17.7387 20.4552 17.7365 20.4262 17.7268C20.1121 17.6197 19.7921 17.5319 19.4715 17.4478C19.4446 17.4456 19.4185 17.4396 19.3953 17.4262C19.2451 17.3927 19.0949 17.3585 18.9455 17.325C18.6676 17.2633 18.3883 17.2097 18.1083 17.1614C17.9008 17.1257 17.6926 17.0922 17.4844 17.0602C17.3218 17.0356 17.1593 17.0103 16.9954 16.9984C16.9685 16.994 16.9417 16.9888 16.9141 16.985C16.3403 16.9129 15.7657 16.8586 15.1889 16.8176C14.8124 16.7916 14.4358 16.7708 14.0586 16.7559C13.566 16.7365 13.0726 16.7276 12.5793 16.7276C11.9677 16.7276 11.3568 16.7432 10.7467 16.7737C10.0415 16.8087 9.3378 16.8638 8.63625 16.9441C8.52162 16.9575 8.40554 16.965 8.29237 16.9902C8.26915 16.9836 8.24666 16.9902 8.22344 16.9925C7.72358 17.0557 7.22589 17.1338 6.73111 17.2298C6.43873 17.2864 6.14781 17.3488 5.85906 17.4195L5.85326 17.4292C5.85326 17.4292 5.77854 18.5318 5.94395 19.6083C6.22907 19.6775 6.51564 19.7392 6.80293 19.7943C7.05975 19.8434 7.3173 19.8903 7.57631 19.9282C7.93905 19.9818 8.30252 20.0361 8.66745 20.0748C9.02221 20.1127 9.37625 20.1522 9.73174 20.1789C9.94214 20.1946 10.1518 20.2132 10.3622 20.2258C10.6734 20.2444 10.9854 20.26 11.2966 20.2712C11.581 20.2816 11.8654 20.2898 12.1498 20.2935C12.6047 20.2995 13.0603 20.2972 13.5152 20.2876C13.9534 20.2779 14.3916 20.2608 14.8291 20.2355C15.3507 20.2057 15.8716 20.1633 16.3918 20.1083C17.1847 20.0242 17.9733 19.9111 18.7547 19.7512C19.4374 19.6113 20.1121 19.4402 20.7665 19.1932C21.0516 19.086 21.3309 18.9633 21.5964 18.8115C21.7314 18.7349 21.862 18.6516 21.9839 18.5541V18.5548Z" fill="url(#paint0_linear_5203_2714)"/>
<defs>
<linearGradient id="paint0_linear_5203_2714" x1="13.9602" y1="17.1383" x2="13.9553" y2="19.8079" gradientUnits="userSpaceOnUse">
<stop offset="0.16" stop-color="#191919"/>
<stop offset="0.97" stop-color="#191919" stop-opacity="0"/>
</linearGradient>
</defs>
</svg>
